{
.appVersion = "1075";
DisplayStrings = (
"/quotedblleft Design,/quotedblright  she said, /quotedblleft affects us all./quotedblright",
"Save // Restore // Open // Buy // File // Window // Government",
testimonialsunmonneltno,
"United States turken away ",
"message mummer",
"100 new features",
/six.tf,
/five.tf
);
customParameters = (
{
name = fsType;
value = (
);
},
{
name = licenseURL;
value = "http://scripts.sil.org/OFL";
},
{
name = license;
value = "This Font Software is licensed under the SIL Open Font License, Version 1.1. This license is available with a FAQ at: http://scripts.sil.org/OFL";
},
{
name = trademark;
value = "18Franklin is based on Libre Franklin, which is a trademark of Impallari Type.";
},
{
name = description;
value = "Libre Franklin is a reinterpretation and expansion of the 1912 Morris Fuller Benton’s classic.";
},
{
name = vendorID;
value = IMPA;
},
{
name = note;
value = "Based on Libre Franklin";
},
{
name = vsuffix;
value = "-v.030";
},
{
name = Axes;
value = (
{
Name = Weight;
Tag = wght;
}
);
}
);
date = "2017-01-06 04:52:40 +0000";
designer = "Pablo Impallari, Rodrigo Fuenzalida (Modified by Dan O. Williams)";
familyName = "18Franklin";
featurePrefixes = (
{
automatic = 1;
code = "languagesystem DFLT dflt;\012languagesystem latn dflt;\012languagesystem latn CAT;\012languagesystem latn ROM;\012languagesystem latn MOL;\012languagesystem latn KAZ;\012languagesystem latn TAT;\012languagesystem latn TRK;\012languagesystem latn CRT;\012languagesystem latn AZE;\012";
name = Languagesystems;
}
);
features = (
{
automatic = 1;
code = "feature ccmp;\012feature locl;\012feature subs;\012feature sinf;\012feature sups;\012feature numr;\012feature dnom;\012feature frac;\012feature ordn;\012feature lnum;\012feature pnum;\012feature tnum;\012feature onum;\012feature salt;\012feature ss01;\012";
name = aalt;
},
{
automatic = 1;

glyphs = (
{
glyphname = A;
lastChange = "2017-11-28 01:31:26 +0000";
layers = (
{
anchors = (
{
name = ogonek;
position = "{736, 9}";
},
{
name = top;
position = "{385, 742}";
}
);
background = {
anchors = (
{
name = ogonek;
position = "{731, 9}";
},
{
name = top;
position = "{380, 742}";
}
);
paths = (
{
closed = 1;
nodes = (
"180 0 LINE SMOOTH",
"194 0 OFFCURVE",
"201 7 OFFCURVE",
"204 15 CURVE SMOOTH",
"245 133 LINE SMOOTH",
"247 140 OFFCURVE",
"252 144 OFFCURVE",
"260 144 CURVE SMOOTH",
"472 144 LINE SMOOTH",
"482 144 OFFCURVE",
"484 139 OFFCURVE",
"487 132 CURVE SMOOTH",
"526 17 LINE SMOOTH",
"530 4 OFFCURVE",
"538 0 OFFCURVE",
"548 0 CURVE SMOOTH",
"744 0 LINE SMOOTH",
"759 0 OFFCURVE",
"763 20 OFFCURVE",
"758 34 CURVE SMOOTH",
"518 715 LINE SMOOTH",
"512 731 OFFCURVE",
"499 742 OFFCURVE",
"482 742 CURVE SMOOTH",
"285 742 LINE SMOOTH",
"267 742 OFFCURVE",
"261 735 OFFCURVE",
"255 719 CURVE SMOOTH",
"13 37 LINE SMOOTH",
"5 15 OFFCURVE",
"13 0 OFFCURVE",
"28 0 CURVE SMOOTH"
);
},
{
closed = 1;
nodes = (
"296 314 OFFCURVE",
"293 322 OFFCURVE",
"298 335 CURVE SMOOTH",
"359 505 LINE SMOOTH",
"361 512 OFFCURVE",
"368 512 OFFCURVE",
"371 505 CURVE SMOOTH",
"431 334 LINE SMOOTH",
"435 321 OFFCURVE",
"433 314 OFFCURVE",
"422 314 CURVE SMOOTH",
"308 314 LINE SMOOTH"
);
}
);
};
layerId = "258ED206-D907-4350-8EBA-CBDDA1C16BF7";
paths = (
{
closed = 1;
nodes = (
"204 0 LINE",
"254 144 LINE",
"488 144 LINE",
"537 0 LINE",
"734 0 LINE",
"472 742 LINE",
"268 742 LINE",
"5 0 LINE"
);
},
{
closed = 1;
nodes = (
"370 551 LINE",
"443 314 LINE",
"296 314 LINE"
);
}
);
width = 739;
},
{
anchors = (
{
name = ogonek;
position = "{639, 11}";
},
{
name = top;
position = "{350, 742}";
}
);
background = {
anchors = (
{
name = ogonek;
position = "{639, 11}";
},
{
name = top;
position = "{350, 742}";
}
);
paths = (
{
closed = 1;
nodes = (
"85 0 LINE SMOOTH",
"91 0 OFFCURVE",
"95 2 OFFCURVE",
"96 7 CURVE SMOOTH",
"179 231 LINE SMOOTH",
"181 236 OFFCURVE",
"183 238 OFFCURVE",
"189 238 CURVE SMOOTH",
"511 238 LINE SMOOTH",
"517 238 OFFCURVE",
"519 236 OFFCURVE",
"521 231 CURVE SMOOTH",
"602 8 LINE SMOOTH",
"604 2 OFFCURVE",
"608 0 OFFCURVE",
"615 0 CURVE SMOOTH",
"639 0 LINE SMOOTH",
"646 0 OFFCURVE",
"649 4 OFFCURVE",
"647 10 CURVE SMOOTH",
"385 732 LINE SMOOTH",
"383 739 OFFCURVE",
"377 742 OFFCURVE",
"367 742 CURVE SMOOTH",
"334 742 LINE SMOOTH",
"325 742 OFFCURVE",
"321 739 OFFCURVE",
"318 731 CURVE SMOOTH",
"53 9 LINE SMOOTH",
"51 3 OFFCURVE",
"54 0 OFFCURVE",
"60 0 CURVE SMOOTH"
);
},
{
closed = 1;
nodes = (
"197 278 OFFCURVE",
"195 279 OFFCURVE",
"198 286 CURVE SMOOTH",
"343 677 LINE SMOOTH",
"348 691 OFFCURVE",
"353 691 OFFCURVE",
"358 678 CURVE SMOOTH",
"501 288 LINE SMOOTH",
"503 282 OFFCURVE",
"502 278 OFFCURVE",
"494 278 CURVE SMOOTH",
"203 278 LINE SMOOTH"
);
}
);
};
guideLines = (
{
angle = 69.4967;
position = "{132, 119}";
},
{
angle = 110.0797;
position = "{556, 119}";
}
);
layerId = "91AB5BCA-6A50-42DA-B2F7-8181BF189245";
paths = (
{
closed = 1;
nodes = (
"93 0 LINE",
"181 234 LINE",
"520 234 LINE",
"605 0 LINE",
"649 0 LINE",
"379 742 LINE",
"322 742 LINE",
"50 0 LINE"
);
},
{
closed = 1;
nodes = (
"351 698 LINE",
"505 278 LINE",
"195 278 LINE"
);
}
);
width = 699;
}
);
leftKerningGroup = A;
rightKerningGroup = A;
unicode = 0041;
},
{
glyphname = Aringacute;
lastChange = "2017-11-14 17:50:30 +0000";
layers = (
{
background = {
paths = (
{
closed = 1;
nodes = (
"214 3 LINE",
"264 147 LINE",
"498 147 LINE",
"547 3 LINE",
"785 3 LINE",
"523 745 LINE",
"278 745 LINE",
"15 3 LINE"
);
},
{
closed = 1;
nodes = (
"380 524 LINE",
"453 317 LINE",
"306 317 LINE"
);
},
{
closed = 1;
nodes = (
"461 693 OFFCURVE",
"510 734 OFFCURVE",
"510 796 CURVE SMOOTH",
"510 856 OFFCURVE",
"461 899 OFFCURVE",
"400 899 CURVE SMOOTH",
"340 899 OFFCURVE",
"290 857 OFFCURVE",
"290 798 CURVE SMOOTH",
"290 735 OFFCURVE",
"339 693 OFFCURVE",
"400 693 CURVE SMOOTH"
);
},
{
closed = 1;
nodes = (
"373 746 OFFCURVE",
"350 769 OFFCURVE",
"350 795 CURVE SMOOTH",
"350 822 OFFCURVE",
"373 842 OFFCURVE",
"399 842 CURVE SMOOTH",
"426 842 OFFCURVE",
"447 822 OFFCURVE",
"447 795 CURVE SMOOTH",
"447 769 OFFCURVE",
"426 746 OFFCURVE",
"399 746 CURVE SMOOTH"
);
},
{
closed = 1;
nodes = (
"443 875 LINE",
"468 935 LINE SMOOTH",
"474 949 OFFCURVE",
"470 964 OFFCURVE",
"454 964 CURVE SMOOTH",
"409 964 LINE SMOOTH",
"390 964 OFFCURVE",
"377 958 OFFCURVE",
"371 933 CURVE SMOOTH",
"357 875 LINE"
);
}
);
};
layerId = "258ED206-D907-4350-8EBA-CBDDA1C16BF7";
paths = (
{
closed = 1;
nodes = (
"219 3 LINE",
"269 147 LINE",
"503 147 LINE",
"552 3 LINE",
"790 3 LINE",
"528 745 LINE",
"283 745 LINE",
"20 3 LINE"
);
},
{
closed = 1;
nodes = (
"385 524 LINE",
"458 317 LINE",
"311 317 LINE"
);
},
{
closed = 1;
nodes = (
"466 693 OFFCURVE",
"515 734 OFFCURVE",
"515 796 CURVE SMOOTH",
"515 856 OFFCURVE",
"466 899 OFFCURVE",
"405 899 CURVE SMOOTH",
"345 899 OFFCURVE",
"295 857 OFFCURVE",
"295 798 CURVE SMOOTH",
"295 735 OFFCURVE",
"344 693 OFFCURVE",
"405 693 CURVE SMOOTH"
);
},
{
closed = 1;
nodes = (
"378 746 OFFCURVE",
"355 769 OFFCURVE",
"355 795 CURVE SMOOTH",
"355 822 OFFCURVE",
"378 842 OFFCURVE",
"404 842 CURVE SMOOTH",
"431 842 OFFCURVE",
"452 822 OFFCURVE",
"452 795 CURVE SMOOTH",
"452 769 OFFCURVE",
"431 746 OFFCURVE",
"404 746 CURVE SMOOTH"
);
},
{
closed = 1;
nodes = (
"448 875 LINE",
"485 964 LINE",
"383 964 LINE",
"362 875 LINE"
);
}
);
width = 819;
},
{
background = {
paths = (
{
closed = 1;
nodes = (
"418 857 OFFCURVE",
"374 900 OFFCURVE",
"318 900 CURVE SMOOTH",
"263 900 OFFCURVE",
"218 857 OFFCURVE",
"218 804 CURVE SMOOTH",
"218 746 OFFCURVE",
"262 702 OFFCURVE",
"318 702 CURVE SMOOTH",
"374 702 OFFCURVE",
"418 745 OFFCURVE",
"418 802 CURVE SMOOTH"
);
},
{
closed = 1;
nodes = (
"375 770 OFFCURVE",
"350 742 OFFCURVE",
"317 742 CURVE SMOOTH",
"286 742 OFFCURVE",
"258 770 OFFCURVE",
"258 801 CURVE SMOOTH",
"258 836 OFFCURVE",
"286 860 OFFCURVE",
"317 860 CURVE SMOOTH",
"350 860 OFFCURVE",
"375 836 OFFCURVE",
"375 801 CURVE SMOOTH"
);
},
{
closed = 1;
nodes = (
"294 742 OFFCURVE",
"290 739 OFFCURVE",
"287 731 CURVE SMOOTH",
"40 9 LINE",
"38 4 OFFCURVE",
"41 0 OFFCURVE",
"47 0 CURVE SMOOTH",
"69 0 LINE SMOOTH",
"75 0 OFFCURVE",
"78 2 OFFCURVE",
"80 7 CURVE",
"157 231 LINE SMOOTH",
"159 236 OFFCURVE",
"161 238 OFFCURVE",
"167 238 CURVE SMOOTH",
"463 238 LINE SMOOTH",
"469 238 OFFCURVE",
"471 236 OFFCURVE",
"473 231 CURVE SMOOTH",
"549 8 LINE SMOOTH",
"551 2 OFFCURVE",
"554 0 OFFCURVE",
"561 0 CURVE SMOOTH",
"588 0 LINE SMOOTH",
"595 0 OFFCURVE",
"598 4 OFFCURVE",
"596 10 CURVE SMOOTH",
"353 732 LINE",
"351 739 OFFCURVE",
"345 742 OFFCURVE",
"335 742 CURVE SMOOTH",
"303 742 LINE SMOOTH"
);
},
{
closed = 1;
nodes = (
"457 282 OFFCURVE",
"456 278 OFFCURVE",
"448 278 CURVE SMOOTH",
"179 278 LINE SMOOTH",
"173 278 OFFCURVE",
"172 279 OFFCURVE",
"175 286 CURVE SMOOTH",
"308 677 LINE SMOOTH",
"313 691 OFFCURVE",
"319 691 OFFCURVE",
"323 678 CURVE SMOOTH",
"455 288 LINE SMOOTH"
);
},
{
closed = 1;
nodes = (
"328 964 OFFCURVE",
"323 960 OFFCURVE",
"321 951 CURVE SMOOTH",
"303 875 LINE",
"341 875 LINE",
"372 948 LINE SMOOTH",
"376 958 OFFCURVE",
"373 964 OFFCURVE",
"362 964 CURVE SMOOTH",
"339 964 LINE SMOOTH"
);
}
);
};
layerId = "91AB5BCA-6A50-42DA-B2F7-8181BF189245";
paths = (
{
closed = 1;
nodes = (
"78 0 LINE",
"159 238 LINE",
"471 238 LINE",
"552 0 LINE",
"599 0 LINE",
"350 742 LINE",
"291 742 LINE",
"37 0 LINE"
);
},
{
closed = 1;
nodes = (
"316 700 LINE",
"458 278 LINE",
"172 278 LINE"
);
},
{
closed = 1;
nodes = (
"374 702 OFFCURVE",
"418 745 OFFCURVE",
"418 802 CURVE SMOOTH",
"418 857 OFFCURVE",
"374 900 OFFCURVE",
"318 900 CURVE SMOOTH",
"263 900 OFFCURVE",
"218 857 OFFCURVE",
"218 804 CURVE SMOOTH",
"218 746 OFFCURVE",
"262 702 OFFCURVE",
"318 702 CURVE SMOOTH"
);
},
{
closed = 1;
nodes = (
"286 742 OFFCURVE",
"258 770 OFFCURVE",
"258 801 CURVE SMOOTH",
"258 836 OFFCURVE",
"286 860 OFFCURVE",
"317 860 CURVE SMOOTH",
"350 860 OFFCURVE",
"375 836 OFFCURVE",
"375 801 CURVE SMOOTH",
"375 770 OFFCURVE",
"350 742 OFFCURVE",
"317 742 CURVE SMOOTH"
);
},
{
closed = 1;
nodes = (
"341 875 LINE",
"379 964 LINE",
"324 964 LINE",
"303 875 LINE"
);
}
);
width = 637;
}
);
leftKerningGroup = A;
rightKerningGroup = A;
unicode = 01FA;
},
{
glyphname = AE;
lastChange = "2017-11-28 01:36:51 +0000";
layers = (
{
anchors = (
{
name = top;
position = "{714, 742}";
}
);
background = {
anchors = (
{
name = top;
position = "{709, 742}";
}
);
paths = (
{
closed = 1;
nodes = (
"735 164 LINE SMOOTH",
"726 164 OFFCURVE",
"723 167 OFFCURVE",
"723 178 CURVE SMOOTH",
"723 278 LINE SMOOTH",
"723 286 OFFCURVE",
"729 292 OFFCURVE",
"739 292 CURVE SMOOTH",
"924 292 LINE SMOOTH",
"937 292 OFFCURVE",
"942 300 OFFCURVE",
"942 309 CURVE SMOOTH",
"942 433 LINE SMOOTH",
"942 446 OFFCURVE",
"935 453 OFFCURVE",
"921 453 CURVE SMOOTH",
"741 453 LINE SMOOTH",
"731 453 OFFCURVE",
"723 460 OFFCURVE",
"723 474 CURVE SMOOTH",
"723 559 LINE SMOOTH",
"723 572 OFFCURVE",
"731 578 OFFCURVE",
"746 578 CURVE SMOOTH",
"1046 578 LINE SMOOTH",
"1064 578 OFFCURVE",
"1072 589 OFFCURVE",
"1072 605 CURVE SMOOTH",
"1073 721 LINE SMOOTH",
"1073 734 OFFCURVE",
"1067 742 OFFCURVE",
"1055 742 CURVE SMOOTH",
"406 742 LINE SMOOTH",
"389 742 OFFCURVE",
"381 735 OFFCURVE",
"373 719 CURVE SMOOTH",
"19 37 LINE SMOOTH",
"7 15 OFFCURVE",
"13 0 OFFCURVE",
"28 0 CURVE SMOOTH",
"180 0 LINE SMOOTH",
"194 0 OFFCURVE",
"202 7 OFFCURVE",
"206 15 CURVE SMOOTH",
"265 133 LINE",
"268 140 OFFCURVE",
"274 144 OFFCURVE",
"282 144 CURVE SMOOTH",
"483 144 LINE SMOOTH",
"493 144 OFFCURVE",
"496 139 OFFCURVE",
"496 130 CURVE SMOOTH",
"496 25 LINE SMOOTH",
"496 8 OFFCURVE",
"503 0 OFFCURVE",
"523 0 CURVE SMOOTH",
"1058 0 LINE SMOOTH",
"1075 0 OFFCURVE",
"1082 10 OFFCURVE",
"1082 22 CURVE SMOOTH",
"1082 145 LINE SMOOTH",
"1082 159 OFFCURVE",
"1074 164 OFFCURVE",
"1060 164 CURVE SMOOTH"
);
},
{
closed = 1;
nodes = (
"360 314 LINE SMOOTH",
"348 314 OFFCURVE",
"346 322 OFFCURVE",
"354 335 CURVE",
"456 537 LINE SMOOTH",
"472 567 OFFCURVE",
"496 565 OFFCURVE",
"496 535 CURVE SMOOTH",
"496 334 LINE SMOOTH",
"496 321 OFFCURVE",
"489 314 OFFCURVE",
"477 314 CURVE SMOOTH"
);
}
);
};
layerId = "258ED206-D907-4350-8EBA-CBDDA1C16BF7";
paths = (
{
closed = 1;
nodes = (
"728 164 LINE",
"728 292 LINE",
"947 292 LINE",
"947 453 LINE",
"728 453 LINE",
"728 578 LINE",
"1077 578 LINE",
"1078 742 LINE",
"390 742 LINE",
"5 0 LINE",
"204 0 LINE",
"275 144 LINE",
"501 144 LINE",
"501 0 LINE",
"1087 0 LINE",
"1087 164 LINE"
);
},
{
closed = 1;
nodes = (
"348 314 LINE",
"501 616 LINE",
"501 314 LINE"
);
}
);
width = 1137;
},
{
anchors = (
{
name = top;
position = "{683, 742}";
}
);
background = {
anchors = (
{
name = top;
position = "{683, 742}";
}
);
paths = (
{
closed = 1;
nodes = (
"552 40 LINE SMOOTH",
"545 40 OFFCURVE",
"543 41 OFFCURVE",
"543 49 CURVE SMOOTH",
"543 346 LINE SMOOTH",
"543 354 OFFCURVE",
"545 355 OFFCURVE",
"552 355 CURVE SMOOTH",
"820 355 LINE SMOOTH",
"826 355 OFFCURVE",
"828 356 OFFCURVE",
"828 362 CURVE SMOOTH",
"828 388 LINE SMOOTH",
"828 393 OFFCURVE",
"826 395 OFFCURVE",
"821 395 CURVE SMOOTH",
"552 395 LINE SMOOTH",
"545 395 OFFCURVE",
"543 396 OFFCURVE",
"543 402 CURVE SMOOTH",
"543 693 LINE SMOOTH",
"543 701 OFFCURVE",
"545 702 OFFCURVE",
"552 702 CURVE SMOOTH",
"890 702 LINE SMOOTH",
"896 702 OFFCURVE",
"898 703 OFFCURVE",
"898 709 CURVE SMOOTH",
"898 735 LINE SMOOTH",
"898 740 OFFCURVE",
"896 742 OFFCURVE",
"891 742 CURVE SMOOTH",
"486 742 LINE SMOOTH",
"477 742 OFFCURVE",
"472 739 OFFCURVE",
"468 731 CURVE",
"55 9 LINE SMOOTH",
"52 4 OFFCURVE",
"54 0 OFFCURVE",
"60 0 CURVE SMOOTH",
"85 0 LINE SMOOTH",
"91 0 OFFCURVE",
"94 2 OFFCURVE",
"97 7 CURVE SMOOTH",
"226 231 LINE SMOOTH",
"229 236 OFFCURVE",
"232 238 OFFCURVE",
"238 238 CURVE SMOOTH",
"492 238 LINE SMOOTH",
"495 238 OFFCURVE",
"497 236 OFFCURVE",
"497 233 CURVE SMOOTH",
"497 10 LINE SMOOTH",
"497 2 OFFCURVE",
"499 0 OFFCURVE",
"506 0 CURVE SMOOTH",
"906 0 LINE SMOOTH",
"911 0 OFFCURVE",
"913 2 OFFCURVE",
"913 7 CURVE SMOOTH",
"913 33 LINE SMOOTH",
"913 39 OFFCURVE",
"911 40 OFFCURVE",
"905 40 CURVE SMOOTH"
);
},
{
closed = 1;
nodes = (
"257 278 LINE SMOOTH",
"251 278 OFFCURVE",
"250 279 OFFCURVE",
"254 286 CURVE SMOOTH",
"482 677 LINE SMOOTH",
"490 691 OFFCURVE",
"496 691 OFFCURVE",
"497 678 CURVE",
"497 287 LINE SMOOTH",
"497 282 OFFCURVE",
"495 278 OFFCURVE",
"489 278 CURVE SMOOTH"
);
}
);
};
layerId = "91AB5BCA-6A50-42DA-B2F7-8181BF189245";
paths = (
{
closed = 1;
nodes = (
"543 40 LINE",
"543 355 LINE",
"828 355 LINE",
"828 395 LINE",
"543 395 LINE",
"543 702 LINE",
"898 702 LINE",
"898 742 LINE",
"474 742 LINE",
"50 0 LINE",
"93 0 LINE",
"230 238 LINE",
"497 238 LINE",
"497 0 LINE",
"913 0 LINE",
"913 40 LINE"
);
},
{
closed = 1;
nodes = (
"249 278 LINE",
"497 703 LINE",
"497 278 LINE"
);
}
);
width = 986;
}
);
leftKerningGroup = AE;
leftMetricsKey = A;
rightMetricsKey = E;
unicode = 00C6;
},
{
glyphname = B;
lastChange = "2017-11-28 01:30:58 +0000";
layers = (
{
background = {
paths = (
{
closed = 1;
nodes = (
"392 0 LINE SMOOTH",
"608 0 OFFCURVE",
"711 65 OFFCURVE",
"711 202 CURVE SMOOTH",
"711 287 OFFCURVE",
"672 338 OFFCURVE",
"562 379 CURVE SMOOTH",
"559 380 OFFCURVE",
"559 385 OFFCURVE",
"562 386 CURVE SMOOTH",
"662 432 OFFCURVE",
"693 477 OFFCURVE",
"693 546 CURVE SMOOTH",
"693 675 OFFCURVE",
"583 742 OFFCURVE",
"376 742 CURVE SMOOTH",
"78 742 LINE SMOOTH",
"63 742 OFFCURVE",
"53 731 OFFCURVE",
"53 716 CURVE SMOOTH",
"53 22 LINE SMOOTH",
"53 10 OFFCURVE",
"62 0 OFFCURVE",
"76 0 CURVE SMOOTH"
);
},
{
closed = 1;
nodes = (
"284 150 OFFCURVE",
"280 157 OFFCURVE",
"280 172 CURVE SMOOTH",
"280 277 LINE SMOOTH",
"280 292 OFFCURVE",
"286 298 OFFCURVE",
"303 298 CURVE SMOOTH",
"392 298 LINE SMOOTH",
"442 298 OFFCURVE",
"475 268 OFFCURVE",
"475 227 CURVE SMOOTH",
"475 188 OFFCURVE",
"445 150 OFFCURVE",
"387 150 CURVE SMOOTH",
"297 150 LINE SMOOTH"
);
},
{
closed = 1;
nodes = (
"284 452 OFFCURVE",
"280 459 OFFCURVE",
"280 474 CURVE SMOOTH",
"280 572 LINE SMOOTH",
"280 587 OFFCURVE",
"286 592 OFFCURVE",
"303 592 CURVE SMOOTH",
"385 592 LINE SMOOTH",
"432 592 OFFCURVE",
"469 564 OFFCURVE",
"469 520 CURVE SMOOTH",
"469 481 OFFCURVE",
"439 452 OFFCURVE",
"392 452 CURVE SMOOTH",
"297 452 LINE SMOOTH"
);
}
);
};
layerId = "258ED206-D907-4350-8EBA-CBDDA1C16BF7";
paths = (
{
closed = 1;
nodes = (
"377 0 LINE SMOOTH",
"593 0 OFFCURVE",
"676 64 OFFCURVE",
"676 202 CURVE",
"676 257 OFFCURVE",
"669 343 OFFCURVE",
"538 382 CURVE",
"630 427 OFFCURVE",
"658 477 OFFCURVE",
"658 546 CURVE SMOOTH",
"658 672 OFFCURVE",
"568 742 OFFCURVE",
"361 742 CURVE SMOOTH",
"65 742 LINE",
"65 0 LINE"
);
},
{
closed = 1;
nodes = (
"265 298 LINE",
"390 298 LINE",
"440 298 OFFCURVE",
"473 268 OFFCURVE",
"473 227 CURVE SMOOTH",
"473 188 OFFCURVE",
"443 150 OFFCURVE",
"385 150 CURVE",
"265 150 LINE"
);
},
{
closed = 1;
nodes = (
"265 592 LINE",
"383 592 LINE SMOOTH",
"430 592 OFFCURVE",
"467 564 OFFCURVE",
"467 520 CURVE SMOOTH",
"467 481 OFFCURVE",
"437 452 OFFCURVE",
"390 452 CURVE SMOOTH",
"265 452 LINE"
);
}
);
width = 711;
},
{
background = {
paths = (
{
closed = 1;
nodes = (
"324 0 LINE SMOOTH",
"499 0 OFFCURVE",
"602 65 OFFCURVE",
"602 197 CURVE SMOOTH",
"602 297 OFFCURVE",
"543 356 OFFCURVE",
"453 373 CURVE SMOOTH",
"447 374 OFFCURVE",
"447 380 OFFCURVE",
"453 382 CURVE SMOOTH",
"541 409 OFFCURVE",
"584 467 OFFCURVE",
"584 551 CURVE SMOOTH",
"584 675 OFFCURVE",
"487 742 OFFCURVE",
"321 742 CURVE SMOOTH",
"116 742 LINE SMOOTH",
"109 742 OFFCURVE",
"107 740 OFFCURVE",
"107 732 CURVE SMOOTH",
"107 8 LINE SMOOTH",
"107 3 OFFCURVE",
"110 0 OFFCURVE",
"115 0 CURVE SMOOTH"
);
},
{
closed = 1;
nodes = (
"155 40 OFFCURVE",
"153 43 OFFCURVE",
"153 50 CURVE SMOOTH",
"153 346 LINE SMOOTH",
"153 353 OFFCURVE",
"156 355 OFFCURVE",
"164 355 CURVE SMOOTH",
"333 355 LINE SMOOTH",
"458 355 OFFCURVE",
"554 311 OFFCURVE",
"554 191 CURVE SMOOTH",
"554 82 OFFCURVE",
"477 40 OFFCURVE",
"319 40 CURVE SMOOTH",
"160 40 LINE SMOOTH"
);
},
{
closed = 1;
nodes = (
"155 395 OFFCURVE",
"153 398 OFFCURVE",
"153 405 CURVE SMOOTH",
"153 694 LINE SMOOTH",
"153 700 OFFCURVE",
"156 702 OFFCURVE",
"162 702 CURVE SMOOTH",
"317 702 LINE SMOOTH",
"452 702 OFFCURVE",
"536 654 OFFCURVE",
"536 546 CURVE SMOOTH",
"536 424 OFFCURVE",
"426 395 OFFCURVE",
"333 395 CURVE SMOOTH",
"160 395 LINE SMOOTH"
);
}
);
};
layerId = "91AB5BCA-6A50-42DA-B2F7-8181BF189245";
paths = (
{
closed = 1;
nodes = (
"322 0 LINE",
"497 0 OFFCURVE",
"600 66 OFFCURVE",
"600 198 CURVE",
"600 296 OFFCURVE",
"545 358 OFFCURVE",
"435 376 CURVE",
"542 407 OFFCURVE",
"582 466 OFFCURVE",
"582 550 CURVE SMOOTH",
"582 674 OFFCURVE",
"485 742 OFFCURVE",
"319 742 CURVE SMOOTH",
"111 742 LINE",
"111 0 LINE"
);
},
{
closed = 1;
nodes = (
"151 354 LINE",
"331 354 LINE SMOOTH",
"456 354 OFFCURVE",
"560 312 OFFCURVE",
"560 192 CURVE SMOOTH",
"560 83 OFFCURVE",
"475 42 OFFCURVE",
"317 42 CURVE",
"151 42 LINE"
);
},
{
closed = 1;
nodes = (
"151 700 LINE",
"315 700 LINE SMOOTH",
"450 700 OFFCURVE",
"542 653 OFFCURVE",
"542 545 CURVE SMOOTH",
"542 423 OFFCURVE",
"424 396 OFFCURVE",
"331 396 CURVE SMOOTH",
"151 396 LINE"
);
}
);
width = 670;
}
);
leftMetricsKey = N;
rightKerningGroup = B;
unicode = 0042;
},
{
glyphname = C;
lastChange = "2017-11-29 05:46:05 +0000";
layers = (
{
anchors = (
{
name = bottom;
position = "{390, 0}";
},
{
name = top;
position = "{390, 742}";
}
);
background = {
anchors = (
{
name = bottom;
position = "{383, 0}";
},
{
name = top;
position = "{385, 742}";
}
);
paths = (
{
closed = 1;
nodes = (
"168 752 OFFCURVE",
"30 606 OFFCURVE",
"30 381 CURVE SMOOTH",
"30 155 OFFCURVE",
"168 -10 OFFCURVE",
"383 -10 CURVE SMOOTH",
"614 -10 OFFCURVE",
"700 167 OFFCURVE",
"710 221 CURVE SMOOTH",
"714 247 OFFCURVE",
"703 252 OFFCURVE",
"696 254 CURVE SMOOTH",
"571 279 LINE SMOOTH",
"555 282 OFFCURVE",
"546 279 OFFCURVE",
"543 271 CURVE SMOOTH",
"508 183 OFFCURVE",
"457 154 OFFCURVE",
"390 154 CURVE SMOOTH",
"309 154 OFFCURVE",
"268 212 OFFCURVE",
"268 377 CURVE SMOOTH",
"268 540 OFFCURVE",
"316 598 OFFCURVE",
"391 598 CURVE SMOOTH",
"459 598 OFFCURVE",
"486 544 OFFCURVE",
"498 475 CURVE",
"688 487 LINE",
"703 489 OFFCURVE",
"707 494 OFFCURVE",
"701 522 CURVE SMOOTH",
"675 655 OFFCURVE",
"554 752 OFFCURVE",
"385 752 CURVE SMOOTH"
);
}
);
};
guideLines = (
{
angle = -183.559;
position = "{528, 331}";
}
);
layerId = "258ED206-D907-4350-8EBA-CBDDA1C16BF7";
paths = (
{
closed = 1;
nodes = (
"173 752 OFFCURVE",
"35 606 OFFCURVE",
"35 381 CURVE SMOOTH",
"35 155 OFFCURVE",
"175 -10 OFFCURVE",
"390 -10 CURVE SMOOTH",
"627 -10 OFFCURVE",
"691 110 OFFCURVE",
"712 264 CURVE",
"514 277 LINE",
"502 208 OFFCURVE",
"464 150 OFFCURVE",
"396 150 CURVE SMOOTH",
"321 150 OFFCURVE",
"253 212 OFFCURVE",
"253 377 CURVE SMOOTH",
"253 540 OFFCURVE",
"321 592 OFFCURVE",
"396 592 CURVE SMOOTH",
"464 592 OFFCURVE",
"502 544 OFFCURVE",
"514 475 CURVE",
"712 488 LINE",
"695 648 OFFCURVE",
"566 752 OFFCURVE",
"390 752 CURVE SMOOTH"
);
}
);
width = 747;
},
{
anchors = (
{
name = bottom;
position = "{360, 0}";
},
{
name = top;
position = "{360, 742}";
}
);
background = {
anchors = (
{
name = bottom;
position = "{366, 0}";
},
{
name = top;
position = "{360, 742}";
}
);
guideLines = (
{
angle = 90;
position = "{621, 369}";
}
);
paths = (
{
closed = 1;
nodes = (
"173 752 OFFCURVE",
"63 610 OFFCURVE",
"63 368 CURVE SMOOTH",
"63 127 OFFCURVE",
"173 -10 OFFCURVE",
"366 -10 CURVE SMOOTH",
"487 -10 OFFCURVE",
"587 61 OFFCURVE",
"622 171 CURVE SMOOTH",
"623 175 OFFCURVE",
"622 177 OFFCURVE",
"620 178 CURVE SMOOTH",
"586 188 LINE SMOOTH",
"583 189 OFFCURVE",
"581 188 OFFCURVE",
"580 186 CURVE SMOOTH",
"540 81 OFFCURVE",
"474 32 OFFCURVE",
"370 32 CURVE SMOOTH",
"197 32 OFFCURVE",
"111 153 OFFCURVE",
"111 368 CURVE SMOOTH",
"111 591 OFFCURVE",
"199 710 OFFCURVE",
"362 710 CURVE SMOOTH",
"463 710 OFFCURVE",
"543 647 OFFCURVE",
"566 552 CURVE SMOOTH",
"567 546 OFFCURVE",
"569 544 OFFCURVE",
"573 545 CURVE SMOOTH",
"609 549 LINE SMOOTH",
"614 549 OFFCURVE",
"615 551 OFFCURVE",
"614 556 CURVE SMOOTH",
"602 659 OFFCURVE",
"482 752 OFFCURVE",
"360 752 CURVE SMOOTH"
);
}
);
};
guideLines = (
{
angle = 90;
position = "{723, 369}";
}
);
layerId = "91AB5BCA-6A50-42DA-B2F7-8181BF189245";
paths = (
{
closed = 1;
nodes = (
"165 752 OFFCURVE",
"63 610 OFFCURVE",
"63 368 CURVE SMOOTH",
"63 127 OFFCURVE",
"167 -10 OFFCURVE",
"360 -10 CURVE SMOOTH",
"482 -10 OFFCURVE",
"600 71 OFFCURVE",
"611 177 CURVE",
"568 189 LINE",
"545 89 OFFCURVE",
"464 32 OFFCURVE",
"362 32 CURVE SMOOTH",
"189 32 OFFCURVE",
"108 153 OFFCURVE",
"108 368 CURVE SMOOTH",
"108 591 OFFCURVE",
"191 710 OFFCURVE",
"354 710 CURVE SMOOTH",
"481 710 OFFCURVE",
"552 639 OFFCURVE",
"571 543 CURVE",
"615 550 LINE",
"603 656 OFFCURVE",
"504 752 OFFCURVE",
"352 752 CURVE SMOOTH"
);
}
);
width = 678;
}
);
leftKerningGroup = O;
leftMetricsKey = O;
rightMetricsKey = O;
unicode = 0043;
},
{
glyphname = D;
lastChange = "2017-11-28 01:30:58 +0000";
layers = (
{
anchors = (
{
name = center;
position = "{376, 371}";
},
{
name = top;
position = "{376, 742}";
}
);
background = {
anchors = (
{
name = center;
position = "{371, 371}";
},
{
name = top;
position = "{371, 742}";
}
);
paths = (
{
closed = 1;
nodes = (
"33 0 LINE",
"325 0 LINE SMOOTH",
"588 0 OFFCURVE",
"721 157 OFFCURVE",
"721 373 CURVE SMOOTH",
"721 584 OFFCURVE",
"594 731 OFFCURVE",
"326 741 CURVE SMOOTH",
"262 743 OFFCURVE",
"54 742 OFFCURVE",
"33 742 CURVE"
);
},
{
closed = 1;
nodes = (
"280 585 LINE SMOOTH",
"432 585 OFFCURVE",
"483 513 OFFCURVE",
"483 376 CURVE SMOOTH",
"483 215 OFFCURVE",
"407 157 OFFCURVE",
"281 157 CURVE SMOOTH",
"260 157 LINE",
"260 585 LINE"
);
}
);
};
layerId = "258ED206-D907-4350-8EBA-CBDDA1C16BF7";
paths = (
{
closed = 1;
nodes = (
"65 0 LINE",
"330 0 LINE SMOOTH",
"593 0 OFFCURVE",
"715 157 OFFCURVE",
"715 373 CURVE SMOOTH",
"715 584 OFFCURVE",
"599 731 OFFCURVE",
"331 741 CURVE SMOOTH",
"267 743 OFFCURVE",
"86 742 OFFCURVE",
"65 742 CURVE"
);
},
{
closed = 1;
nodes = (
"336 585 LINE SMOOTH",
"438 585 OFFCURVE",
"507 513 OFFCURVE",
"507 376 CURVE SMOOTH",
"507 215 OFFCURVE",
"412 157 OFFCURVE",
"336 157 CURVE SMOOTH",
"265 157 LINE",
"265 585 LINE"
);
}
);
width = 750;
},
{
anchors = (
{
name = center;
position = "{337, 371}";
},
{
name = top;
position = "{331, 742}";
}
);
background = {
anchors = (
{
name = center;
position = "{337, 371}";
},
{
name = top;
position = "{331, 742}";
}
);
paths = (
{
closed = 1;
nodes = (
"109 0 LINE",
"220 0 LINE SMOOTH",
"492 0 OFFCURVE",
"621 115 OFFCURVE",
"621 376 CURVE SMOOTH",
"621 624 OFFCURVE",
"509 739 OFFCURVE",
"234 741 CURVE SMOOTH",
"172 741 OFFCURVE",
"111 742 OFFCURVE",
"109 742 CURVE"
);
},
{
closed = 1;
nodes = (
"157 701 OFFCURVE",
"205 701 OFFCURVE",
"223 701 CURVE SMOOTH",
"467 696 OFFCURVE",
"573 628 OFFCURVE",
"573 372 CURVE SMOOTH",
"573 130 OFFCURVE",
"474 40 OFFCURVE",
"216 40 CURVE SMOOTH",
"155 40 LINE",
"155 701 LINE"
);
}
);
};
layerId = "91AB5BCA-6A50-42DA-B2F7-8181BF189245";
paths = (
{
closed = 1;
nodes = (
"111 0 LINE",
"220 0 LINE SMOOTH",
"492 0 OFFCURVE",
"621 115 OFFCURVE",
"621 376 CURVE SMOOTH",
"621 624 OFFCURVE",
"509 739 OFFCURVE",
"234 741 CURVE SMOOTH",
"172 741 OFFCURVE",
"113 742 OFFCURVE",
"111 742 CURVE"
);
},
{
closed = 1;
nodes = (
"223 699 LINE SMOOTH",
"449 699 OFFCURVE",
"577 628 OFFCURVE",
"577 372 CURVE SMOOTH",
"577 130 OFFCURVE",
"456 42 OFFCURVE",
"216 42 CURVE SMOOTH",
"155 42 LINE",
"155 699 LINE"
);
}
);
width = 681;
}
);
leftMetricsKey = N;
rightKerningGroup = O;
unicode = 0044;
},
{
glyphname = Eth;
lastChange = "2017-11-28 01:30:58 +0000";
layers = (
{
background = {
components = (
{
name = D;
transform = "{1, 0, 0, 1, 20, 0}";
}
);
paths = (
{
closed = 1;
nodes = (
"432 426 OFFCURVE",
"425 434 OFFCURVE",
"414 434 CURVE SMOOTH",
"43 434 LINE SMOOTH",
"31 434 OFFCURVE",
"24 426 OFFCURVE",
"24 411 CURVE SMOOTH",
"24 318 LINE SMOOTH",
"24 301 OFFCURVE",
"30 293 OFFCURVE",
"50 293 CURVE SMOOTH",
"399 293 LINE SMOOTH",
"422 293 OFFCURVE",
"432 301 OFFCURVE",
"432 321 CURVE SMOOTH",
"432 414 LINE SMOOTH"
);
}
);
};
components = (
{
name = D;
transform = "{1, 0, 0, 1, 30, 0}";
}
);
layerId = "258ED206-D907-4350-8EBA-CBDDA1C16BF7";
paths = (
{
closed = 1;
nodes = (
"437 426 OFFCURVE",
"430 434 OFFCURVE",
"419 434 CURVE SMOOTH",
"48 434 LINE SMOOTH",
"36 434 OFFCURVE",
"29 426 OFFCURVE",
"29 411 CURVE SMOOTH",
"29 318 LINE SMOOTH",
"29 301 OFFCURVE",
"35 293 OFFCURVE",
"55 293 CURVE SMOOTH",
"404 293 LINE SMOOTH",
"427 293 OFFCURVE",
"437 301 OFFCURVE",
"437 321 CURVE SMOOTH",
"437 414 LINE SMOOTH"
);
}
);
width = 780;
},
{
background = {
components = (
{
name = D;
}
);
paths = (
{
closed = 1;
nodes = (
"342 392 OFFCURVE",
"340 395 OFFCURVE",
"335 395 CURVE SMOOTH",
"42 395 LINE SMOOTH",
"37 395 OFFCURVE",
"35 392 OFFCURVE",
"35 386 CURVE SMOOTH",
"35 363 LINE SMOOTH",
"35 356 OFFCURVE",
"37 353 OFFCURVE",
"45 353 CURVE SMOOTH",
"329 353 LINE SMOOTH",
"338 353 OFFCURVE",
"342 356 OFFCURVE",
"342 364 CURVE SMOOTH",
"342 387 LINE SMOOTH"
);
}
);
};
components = (
{
name = D;
transform = "{1, 0, 0, 1, -2, 0}";
}
);
layerId = "91AB5BCA-6A50-42DA-B2F7-8181BF189245";
paths = (
{
closed = 1;
nodes = (
"342 392 OFFCURVE",
"340 395 OFFCURVE",
"335 395 CURVE SMOOTH",
"42 395 LINE SMOOTH",
"37 395 OFFCURVE",
"35 392 OFFCURVE",
"35 386 CURVE SMOOTH",
"35 363 LINE SMOOTH",
"35 356 OFFCURVE",
"37 353 OFFCURVE",
"45 353 CURVE SMOOTH",
"329 353 LINE SMOOTH",
"338 353 OFFCURVE",
"342 356 OFFCURVE",
"342 364 CURVE SMOOTH",
"342 387 LINE SMOOTH"
);
}
);
width = 679;
}
);
rightKerningGroup = O;
rightMetricsKey = D;
unicode = 00D0;
},
{
glyphname = E;
lastChange = "2017-11-28 01:30:58 +0000";
layers = (
{
anchors = (
{
name = bottom;
position = "{338, 0}";
},
{
name = ogonek;
position = "{612, 10}";
},
{
name = top;
position = "{338, 742}";
}
);
background = {
anchors = (
{
name = bottom;
position = "{333, 0}";
},
{
name = ogonek;
position = "{607, 10}";
},
{
name = top;
position = "{333, 742}";
}
);
paths = (
{
closed = 1;
nodes = (
"49 25 LINE SMOOTH",
"49 8 OFFCURVE",
"56 0 OFFCURVE",
"76 0 CURVE SMOOTH",
"611 0 LINE SMOOTH",
"628 0 OFFCURVE",
"635 10 OFFCURVE",
"635 22 CURVE SMOOTH",
"635 145 LINE SMOOTH",
"635 159 OFFCURVE",
"627 164 OFFCURVE",
"613 164 CURVE SMOOTH",
"288 164 LINE SMOOTH",
"279 164 OFFCURVE",
"276 167 OFFCURVE",
"276 178 CURVE SMOOTH",
"276 278 LINE SMOOTH",
"276 286 OFFCURVE",
"282 292 OFFCURVE",
"292 292 CURVE SMOOTH",
"477 292 LINE SMOOTH",
"490 292 OFFCURVE",
"495 300 OFFCURVE",
"495 309 CURVE SMOOTH",
"495 433 LINE SMOOTH",
"495 446 OFFCURVE",
"488 453 OFFCURVE",
"474 453 CURVE SMOOTH",
"294 453 LINE SMOOTH",
"284 453 OFFCURVE",
"276 460 OFFCURVE",
"276 474 CURVE SMOOTH",
"276 559 LINE SMOOTH",
"276 572 OFFCURVE",
"284 578 OFFCURVE",
"299 578 CURVE SMOOTH",
"599 578 LINE SMOOTH",
"617 578 OFFCURVE",
"625 589 OFFCURVE",
"625 605 CURVE SMOOTH",
"626 721 LINE SMOOTH",
"626 734 OFFCURVE",
"620 742 OFFCURVE",
"608 742 CURVE SMOOTH",
"68 742 LINE SMOOTH",
"56 742 OFFCURVE",
"49 734 OFFCURVE",
"49 719 CURVE SMOOTH"
);
}
);
};
layerId = "258ED206-D907-4350-8EBA-CBDDA1C16BF7";
paths = (
{
closed = 1;
nodes = (
"613 0 LINE",
"613 166 LINE",
"265 166 LINE",
"265 292 LINE",
"555 292 LINE",
"555 453 LINE",
"266 453 LINE",
"266 576 LINE",
"611 576 LINE",
"612 742 LINE",
"65 742 LINE",
"65 0 LINE"
);
}
);
width = 663;
},
{
anchors = (
{
name = bottom;
position = "{357, 0}";
},
{
name = ogonek;
position = "{542, 10}";
},
{
name = top;
position = "{338, 742}";
}
);
background = {
anchors = (
{
name = bottom;
position = "{357, 0}";
},
{
name = ogonek;
position = "{542, 10}";
},
{
name = top;
position = "{338, 742}";
}
);
paths = (
{
closed = 1;
nodes = (
"107 10 LINE SMOOTH",
"107 2 OFFCURVE",
"109 0 OFFCURVE",
"116 0 CURVE SMOOTH",
"546 0 LINE SMOOTH",
"551 0 OFFCURVE",
"553 2 OFFCURVE",
"553 7 CURVE SMOOTH",
"553 33 LINE SMOOTH",
"553 39 OFFCURVE",
"551 40 OFFCURVE",
"545 40 CURVE SMOOTH",
"162 40 LINE SMOOTH",
"155 40 OFFCURVE",
"153 41 OFFCURVE",
"153 49 CURVE SMOOTH",
"153 346 LINE SMOOTH",
"153 354 OFFCURVE",
"155 355 OFFCURVE",
"162 355 CURVE SMOOTH",
"450 355 LINE SMOOTH",
"456 355 OFFCURVE",
"458 356 OFFCURVE",
"458 362 CURVE SMOOTH",
"458 388 LINE SMOOTH",
"458 393 OFFCURVE",
"456 395 OFFCURVE",
"451 395 CURVE SMOOTH",
"162 395 LINE SMOOTH",
"155 395 OFFCURVE",
"153 396 OFFCURVE",
"153 402 CURVE SMOOTH",
"153 693 LINE SMOOTH",
"153 701 OFFCURVE",
"155 702 OFFCURVE",
"162 702 CURVE SMOOTH",
"530 702 LINE SMOOTH",
"536 702 OFFCURVE",
"538 703 OFFCURVE",
"538 709 CURVE SMOOTH",
"538 735 LINE SMOOTH",
"538 740 OFFCURVE",
"536 742 OFFCURVE",
"531 742 CURVE SMOOTH",
"116 742 LINE SMOOTH",
"109 742 OFFCURVE",
"107 740 OFFCURVE",
"107 732 CURVE SMOOTH"
);
}
);
};
layerId = "91AB5BCA-6A50-42DA-B2F7-8181BF189245";
paths = (
{
closed = 1;
nodes = (
"551 0 LINE",
"551 42 LINE",
"151 43 LINE",
"151 354 LINE",
"510 354 LINE",
"510 396 LINE",
"151 396 LINE",
"151 700 LINE",
"536 700 LINE",
"536 742 LINE",
"111 742 LINE",
"111 0 LINE"
);
}
);
width = 624;
}
);
leftMetricsKey = N;
unicode = 0045;
},
{
glyphname = F;
lastChange = "2017-11-28 01:30:58 +0000";
layers = (
{
background = {
paths = (
{
closed = 1;
nodes = (
"33 25 LINE SMOOTH",
"33 8 OFFCURVE",
"39 0 OFFCURVE",
"60 0 CURVE",
"227 0 LINE SMOOTH",
"250 0 OFFCURVE",
"260 8 OFFCURVE",
"260 29 CURVE SMOOTH",
"260 271 LINE SMOOTH",
"260 280 OFFCURVE",
"266 286 OFFCURVE",
"276 286 CURVE SMOOTH",
"463 286 LINE SMOOTH",
"477 286 OFFCURVE",
"481 293 OFFCURVE",
"481 303 CURVE SMOOTH",
"481 425 LINE SMOOTH",
"481 438 OFFCURVE",
"475 445 OFFCURVE",
"461 445 CURVE SMOOTH",
"278 445 LINE SMOOTH",
"267 445 OFFCURVE",
"260 451 OFFCURVE",
"260 465 CURVE SMOOTH",
"260 559 LINE SMOOTH",
"260 572 OFFCURVE",
"267 578 OFFCURVE",
"283 578 CURVE SMOOTH",
"577 578 LINE SMOOTH",
"595 578 OFFCURVE",
"602 589 OFFCURVE",
"602 605 CURVE SMOOTH",
"603 721 LINE SMOOTH",
"603 734 OFFCURVE",
"597 742 OFFCURVE",
"585 742 CURVE SMOOTH",
"52 742 LINE SMOOTH",
"41 742 OFFCURVE",
"33 734 OFFCURVE",
"33 719 CURVE SMOOTH"
);
}
);
};
layerId = "258ED206-D907-4350-8EBA-CBDDA1C16BF7";
paths = (
{
closed = 1;
nodes = (
"65 0 LINE",
"265 0 LINE",
"265 286 LINE",
"551 286 LINE",
"551 445 LINE",
"265 445 LINE",
"265 578 LINE",
"607 578 LINE",
"608 742 LINE",
"65 742 LINE"
);
}
);
width = 633;
},
{
background = {
paths = (
{
closed = 1;
nodes = (
"111 10 LINE SMOOTH",
"111 2 OFFCURVE",
"113 0 OFFCURVE",
"120 0 CURVE SMOOTH",
"150 0 LINE SMOOTH",
"155 0 OFFCURVE",
"157 2 OFFCURVE",
"157 7 CURVE SMOOTH",
"157 333 LINE SMOOTH",
"157 341 OFFCURVE",
"159 342 OFFCURVE",
"166 342 CURVE SMOOTH",
"464 342 LINE SMOOTH",
"470 342 OFFCURVE",
"472 343 OFFCURVE",
"472 349 CURVE SMOOTH",
"472 375 LINE SMOOTH",
"472 380 OFFCURVE",
"470 382 OFFCURVE",
"465 382 CURVE SMOOTH",
"166 382 LINE SMOOTH",
"159 382 OFFCURVE",
"157 383 OFFCURVE",
"157 389 CURVE SMOOTH",
"157 693 LINE SMOOTH",
"157 701 OFFCURVE",
"159 702 OFFCURVE",
"166 702 CURVE SMOOTH",
"524 702 LINE SMOOTH",
"530 702 OFFCURVE",
"532 703 OFFCURVE",
"532 709 CURVE SMOOTH",
"532 735 LINE SMOOTH",
"532 740 OFFCURVE",
"530 742 OFFCURVE",
"525 742 CURVE SMOOTH",
"120 742 LINE SMOOTH",
"113 742 OFFCURVE",
"111 740 OFFCURVE",
"111 732 CURVE SMOOTH"
);
}
);
};
layerId = "91AB5BCA-6A50-42DA-B2F7-8181BF189245";
paths = (
{
closed = 1;
nodes = (
"111 0 LINE",
"155 0 LINE",
"155 355 LINE",
"504 355 LINE",
"504 397 LINE",
"155 397 LINE",
"155 700 LINE",
"530 700 LINE",
"530 742 LINE",
"111 742 LINE"
);
}
);
width = 578;
}
);
leftMetricsKey = N;
rightKerningGroup = F;
unicode = 0046;
},
{
glyphname = G;
lastChange = "2017-11-29 05:44:01 +0000";
layers = (
{
anchors = (
{
name = bottom;
position = "{377, 0}";
},
{
name = top;
position = "{377, 742}";
}
);
background = {
anchors = (
{
name = bottom;
position = "{372, 0}";
},
{
name = top;
position = "{372, 742}";
}
);
paths = (
{
closed = 1;
nodes = (
"488 -10 OFFCURVE",
"539 40 OFFCURVE",
"575 75 CURVE SMOOTH",
"580 81 OFFCURVE",
"583 81 OFFCURVE",
"586 77 CURVE SMOOTH",
"626 19 LINE SMOOTH",
"636 5 OFFCURVE",
"646 0 OFFCURVE",
"658 0 CURVE SMOOTH",
"696 0 LINE SMOOTH",
"706 0 OFFCURVE",
"713 8 OFFCURVE",
"713 17 CURVE SMOOTH",
"713 344 LINE SMOOTH",
"713 362 OFFCURVE",
"700 375 OFFCURVE",
"675 375 CURVE SMOOTH",
"395 377 LINE SMOOTH",
"380 377 OFFCURVE",
"374 370 OFFCURVE",
"374 360 CURVE SMOOTH",
"374 264 LINE SMOOTH",
"374 247 OFFCURVE",
"380 242 OFFCURVE",
"394 242 CURVE SMOOTH",
"488 242 LINE SMOOTH",
"498 242 OFFCURVE",
"501 236 OFFCURVE",
"497 225 CURVE",
"494 216 LINE",
"476 170 OFFCURVE",
"442 146 OFFCURVE",
"386 146 CURVE SMOOTH",
"310 146 OFFCURVE",
"258 193 OFFCURVE",
"258 374 CURVE SMOOTH",
"258 544 OFFCURVE",
"304 597 OFFCURVE",
"378 597 CURVE SMOOTH",
"450 597 OFFCURVE",
"485 547 OFFCURVE",
"495 492 CURVE SMOOTH",
"498 479 OFFCURVE",
"499 472 OFFCURVE",
"515 472 CURVE SMOOTH",
"686 498 LINE SMOOTH",
"702 500 OFFCURVE",
"706 505 OFFCURVE",
"700 533 CURVE SMOOTH",
"676 640 OFFCURVE",
"563 752 OFFCURVE",
"383 752 CURVE SMOOTH",
"169 752 OFFCURVE",
"20 599 OFFCURVE",
"20 368 CURVE SMOOTH",
"20 145 OFFCURVE",
"159 -10 OFFCURVE",
"370 -10 CURVE SMOOTH"
);
}
);
};
layerId = "258ED206-D907-4350-8EBA-CBDDA1C16BF7";
paths = (
{
closed = 1;
nodes = (
"497 -10 OFFCURVE",
"550 44 OFFCURVE",
"587 82 CURVE",
"587 0 LINE",
"718 0 LINE",
"718 392 LINE",
"379 394 LINE",
"379 259 LINE",
"508 259 LINE",
"499 233 LINE",
"488 199 OFFCURVE",
"447 163 OFFCURVE",
"391 163 CURVE SMOOTH",
"327 163 OFFCURVE",
"242 193 OFFCURVE",
"242 374 CURVE SMOOTH",
"242 534 OFFCURVE",
"309 587 OFFCURVE",
"383 587 CURVE SMOOTH",
"452 587 OFFCURVE",
"490 540 OFFCURVE",
"504 480 CURVE",
"712 480 LINE",
"710 618 OFFCURVE",
"587 752 OFFCURVE",
"388 752 CURVE SMOOTH",
"174 752 OFFCURVE",
"25 599 OFFCURVE",
"25 368 CURVE SMOOTH",
"25 145 OFFCURVE",
"164 -10 OFFCURVE",
"375 -10 CURVE SMOOTH"
);
}
);
width = 778;
},
{
anchors = (
{
name = bottom;
position = "{376, 0}";
},
{
name = top;
position = "{371, 742}";
}
);
background = {
anchors = (
{
name = bottom;
position = "{376, 0}";
},
{
name = top;
position = "{371, 742}";
}
);
paths = (
{
closed = 1;
nodes = (
"481 -10 OFFCURVE",
"554 45 OFFCURVE",
"593 115 CURVE SMOOTH",
"597 122 OFFCURVE",
"601 121 OFFCURVE",
"601 115 CURVE SMOOTH",
"601 9 LINE SMOOTH",
"601 0 OFFCURVE",
"606 0 OFFCURVE",
"614 0 CURVE SMOOTH",
"631 0 LINE SMOOTH",
"638 0 OFFCURVE",
"641 2 OFFCURVE",
"641 11 CURVE SMOOTH",
"641 371 LINE SMOOTH",
"641 375 OFFCURVE",
"639 377 OFFCURVE",
"635 377 CURVE SMOOTH",
"399 377 LINE SMOOTH",
"396 377 OFFCURVE",
"394 375 OFFCURVE",
"394 371 CURVE SMOOTH",
"394 348 LINE SMOOTH",
"394 344 OFFCURVE",
"396 342 OFFCURVE",
"401 342 CURVE SMOOTH",
"590 342 LINE SMOOTH",
"596 342 OFFCURVE",
"601 341 OFFCURVE",
"601 334 CURVE SMOOTH",
"601 255 LINE SMOOTH",
"601 161 OFFCURVE",
"529 32 OFFCURVE",
"371 32 CURVE SMOOTH",
"208 32 OFFCURVE",
"123 153 OFFCURVE",
"123 374 CURVE SMOOTH",
"123 584 OFFCURVE",
"210 710 OFFCURVE",
"371 710 CURVE SMOOTH",
"477 710 OFFCURVE",
"562 640 OFFCURVE",
"578 551 CURVE SMOOTH",
"579 546 OFFCURVE",
"582 544 OFFCURVE",
"585 545 CURVE SMOOTH",
"620 551 LINE SMOOTH",
"625 552 OFFCURVE",
"625 555 OFFCURVE",
"625 559 CURVE SMOOTH",
"613 663 OFFCURVE",
"494 752 OFFCURVE",
"371 752 CURVE SMOOTH",
"190 752 OFFCURVE",
"75 614 OFFCURVE",
"75 368 CURVE SMOOTH",
"75 129 OFFCURVE",
"185 -10 OFFCURVE",
"370 -10 CURVE SMOOTH"
);
}
);
};
layerId = "91AB5BCA-6A50-42DA-B2F7-8181BF189245";
paths = (
{
closed = 1;
nodes = (
"485 -10 OFFCURVE",
"561 51 OFFCURVE",
"601 129 CURVE",
"601 0 LINE",
"641 0 LINE",
"641 377 LINE",
"394 377 LINE",
"394 342 LINE",
"601 342 LINE",
"601 255 LINE SMOOTH",
"601 161 OFFCURVE",
"529 30 OFFCURVE",
"371 30 CURVE SMOOTH",
"208 30 OFFCURVE",
"117 153 OFFCURVE",
"117 374 CURVE SMOOTH",
"117 584 OFFCURVE",
"210 710 OFFCURVE",
"371 710 CURVE SMOOTH",
"478 710 OFFCURVE",
"563 637 OFFCURVE",
"579 544 CURVE",
"626 552 LINE",
"614 660 OFFCURVE",
"494 752 OFFCURVE",
"371 752 CURVE SMOOTH",
"190 752 OFFCURVE",
"75 614 OFFCURVE",
"75 368 CURVE SMOOTH",
"75 129 OFFCURVE",
"185 -10 OFFCURVE",
"370 -10 CURVE SMOOTH"
);
}
);
width = 737;
}
);
leftKerningGroup = O;
rightKerningGroup = G;
unicode = 0047;
},
{
glyphname = H;
lastChange = "2017-11-28 01:30:58 +0000";
layers = (
{
anchors = (
{
name = bottom;
position = "{372, 0}";
},
{
name = top;
position = "{374, 742}";
}
);
background = {
anchors = (
{
name = bottom;
position = "{367, 0}";
},
{
name = top;
position = "{369, 742}";
}
);
paths = (
{
closed = 1;
nodes = (
"466 297 OFFCURVE",
"472 290 OFFCURVE",
"472 282 CURVE SMOOTH",
"472 29 LINE SMOOTH",
"472 8 OFFCURVE",
"482 0 OFFCURVE",
"505 0 CURVE SMOOTH",
"672 0 LINE SMOOTH",
"693 0 OFFCURVE",
"699 8 OFFCURVE",
"699 25 CURVE SMOOTH",
"699 719 LINE SMOOTH",
"699 734 OFFCURVE",
"691 742 OFFCURVE",
"680 742 CURVE SMOOTH",
"490 742 LINE SMOOTH",
"479 742 OFFCURVE",
"472 734 OFFCURVE",
"472 721 CURVE SMOOTH",
"472 489 LINE SMOOTH",
"472 476 OFFCURVE",
"465 469 OFFCURVE",
"454 469 CURVE SMOOTH",
"286 469 LINE SMOOTH",
"275 469 OFFCURVE",
"268 476 OFFCURVE",
"268 489 CURVE SMOOTH",
"268 721 LINE SMOOTH",
"268 734 OFFCURVE",
"261 742 OFFCURVE",
"250 742 CURVE SMOOTH",
"60 742 LINE SMOOTH",
"49 742 OFFCURVE",
"41 734 OFFCURVE",
"41 719 CURVE SMOOTH",
"41 25 LINE SMOOTH",
"41 8 OFFCURVE",
"47 0 OFFCURVE",
"68 0 CURVE SMOOTH",
"235 0 LINE SMOOTH",
"258 0 OFFCURVE",
"268 8 OFFCURVE",
"268 29 CURVE SMOOTH",
"268 282 LINE SMOOTH",
"268 290 OFFCURVE",
"274 297 OFFCURVE",
"284 297 CURVE SMOOTH",
"456 297 LINE SMOOTH"
);
}
);
};
layerId = "258ED206-D907-4350-8EBA-CBDDA1C16BF7";
paths = (
{
closed = 1;
nodes = (
"489 0 LINE",
"689 0 LINE",
"689 742 LINE",
"489 742 LINE",
"489 461 LINE",
"265 461 LINE",
"265 742 LINE",
"65 742 LINE",
"65 0 LINE",
"265 0 LINE",
"265 297 LINE",
"489 297 LINE"
);
}
);
width = 754;
},
{
anchors = (
{
name = bottom;
position = "{356, 0}";
},
{
name = top;
position = "{356, 742}";
}
);
background = {
anchors = (
{
name = bottom;
position = "{356, 0}";
},
{
name = top;
position = "{356, 742}";
}
);
paths = (
{
closed = 1;
nodes = (
"556 366 OFFCURVE",
"558 364 OFFCURVE",
"558 359 CURVE SMOOTH",
"558 9 LINE SMOOTH",
"558 2 OFFCURVE",
"561 0 OFFCURVE",
"568 0 CURVE SMOOTH",
"595 0 LINE SMOOTH",
"601 0 OFFCURVE",
"604 3 OFFCURVE",
"604 10 CURVE SMOOTH",
"604 732 LINE SMOOTH",
"604 740 OFFCURVE",
"602 742 OFFCURVE",
"595 742 CURVE SMOOTH",
"566 742 LINE SMOOTH",
"560 742 OFFCURVE",
"558 739 OFFCURVE",
"558 733 CURVE SMOOTH",
"558 414 LINE SMOOTH",
"558 408 OFFCURVE",
"556 406 OFFCURVE",
"550 406 CURVE SMOOTH",
"162 406 LINE SMOOTH",
"155 406 OFFCURVE",
"153 407 OFFCURVE",
"153 415 CURVE SMOOTH",
"153 732 LINE SMOOTH",
"153 740 OFFCURVE",
"151 742 OFFCURVE",
"144 742 CURVE SMOOTH",
"116 742 LINE SMOOTH",
"109 742 OFFCURVE",
"107 740 OFFCURVE",
"107 732 CURVE SMOOTH",
"107 10 LINE SMOOTH",
"107 3 OFFCURVE",
"109 0 OFFCURVE",
"116 0 CURVE SMOOTH",
"143 0 LINE SMOOTH",
"150 0 OFFCURVE",
"153 3 OFFCURVE",
"153 9 CURVE SMOOTH",
"153 360 LINE SMOOTH",
"153 363 OFFCURVE",
"155 366 OFFCURVE",
"159 366 CURVE SMOOTH",
"551 366 LINE SMOOTH"
);
}
);
};
layerId = "91AB5BCA-6A50-42DA-B2F7-8181BF189245";
paths = (
{
closed = 1;
nodes = (
"560 0 LINE",
"600 0 LINE",
"600 742 LINE",
"560 742 LINE",
"560 407 LINE",
"151 407 LINE",
"151 742 LINE",
"111 742 LINE",
"111 0 LINE",
"151 0 LINE",
"151 365 LINE",
"560 365 LINE"
);
}
);
width = 711;
}
);
leftMetricsKey = N;
rightMetricsKey = N;
unicode = 0048;
},
{
glyphname = Hbar;
lastChange = "2017-11-14 17:50:30 +0000";
layers = (
{
background = {
components = (
{
name = H;
transform = "{1, 0, 0, 1, 25, 0}";
}
);
paths = (
{
closed = 1;
nodes = (
"799 651 OFFCURVE",
"793 658 OFFCURVE",
"783 658 CURVE SMOOTH",
"16 658 LINE SMOOTH",
"6 658 OFFCURVE",
"0 651 OFFCURVE",
"0 638 CURVE SMOOTH",
"0 577 LINE SMOOTH",
"0 562 OFFCURVE",
"5 555 OFFCURVE",
"22 555 CURVE SMOOTH",
"770 555 LINE SMOOTH",
"790 555 OFFCURVE",
"799 562 OFFCURVE",
"799 579 CURVE SMOOTH",
"799 640 LINE SMOOTH"
);
}
);
};
components = (
{
name = H;
transform = "{1, 0, 0, 1, 35, 0}";
}
);
layerId = "258ED206-D907-4350-8EBA-CBDDA1C16BF7";
paths = (
{
closed = 1;
nodes = (
"804 651 OFFCURVE",
"798 658 OFFCURVE",
"788 658 CURVE SMOOTH",
"21 658 LINE SMOOTH",
"11 658 OFFCURVE",
"5 651 OFFCURVE",
"5 638 CURVE SMOOTH",
"5 577 LINE SMOOTH",
"5 562 OFFCURVE",
"10 555 OFFCURVE",
"27 555 CURVE SMOOTH",
"775 555 LINE SMOOTH",
"795 555 OFFCURVE",
"804 562 OFFCURVE",
"804 579 CURVE SMOOTH",
"804 640 LINE SMOOTH"
);
}
);
width = 819;
},
{
background = {
components = (
{
name = H;
transform = "{1, 0, 0, 1, -1, 0}";
}
);
paths = (
{
closed = 1;
nodes = (
"702 615 OFFCURVE",
"700 618 OFFCURVE",
"695 618 CURVE SMOOTH",
"12 618 LINE SMOOTH",
"7 618 OFFCURVE",
"5 615 OFFCURVE",
"5 609 CURVE SMOOTH",
"5 588 LINE SMOOTH",
"5 581 OFFCURVE",
"7 578 OFFCURVE",
"15 578 CURVE SMOOTH",
"689 578 LINE SMOOTH",
"698 578 OFFCURVE",
"702 581 OFFCURVE",
"702 589 CURVE SMOOTH",
"702 610 LINE SMOOTH"
);
}
);
};
components = (
{
name = H;
transform = "{1, 0, 0, 1, -3, 0}";
}
);
layerId = "91AB5BCA-6A50-42DA-B2F7-8181BF189245";
paths = (
{
closed = 1;
nodes = (
"702 615 OFFCURVE",
"700 618 OFFCURVE",
"695 618 CURVE SMOOTH",
"12 618 LINE SMOOTH",
"7 618 OFFCURVE",
"5 615 OFFCURVE",
"5 609 CURVE SMOOTH",
"5 588 LINE SMOOTH",
"5 581 OFFCURVE",
"7 578 OFFCURVE",
"15 578 CURVE SMOOTH",
"689 578 LINE SMOOTH",
"698 578 OFFCURVE",
"702 581 OFFCURVE",
"702 589 CURVE SMOOTH",
"702 610 LINE SMOOTH"
);
}
);
width = 707;
}
);
unicode = 0126;
},
{
glyphname = I;
lastChange = "2017-11-28 01:30:58 +0000";
layers = (
{
anchors = (
{
name = bottom;
position = "{175, 0}";
},
{
name = ogonek;
position = "{240, 3}";
},
{
name = top;
position = "{165, 742}";
}
);
background = {
anchors = (
{
name = bottom;
position = "{173, 0}";
},
{
name = ogonek;
position = "{255, 10}";
},
{
name = top;
position = "{174, 742}";
}
);
paths = (
{
closed = 1;
nodes = (
"68 742 OFFCURVE",
"60 734 OFFCURVE",
"60 719 CURVE SMOOTH",
"60 25 LINE SMOOTH",
"60 8 OFFCURVE",
"66 0 OFFCURVE",
"87 0 CURVE SMOOTH",
"254 0 LINE SMOOTH",
"277 0 OFFCURVE",
"287 8 OFFCURVE",
"287 29 CURVE SMOOTH",
"287 721 LINE SMOOTH",
"287 734 OFFCURVE",
"281 742 OFFCURVE",
"269 742 CURVE SMOOTH",
"79 742 LINE SMOOTH"
);
}
);
};
layerId = "258ED206-D907-4350-8EBA-CBDDA1C16BF7";
paths = (
{
closed = 1;
nodes = (
"65 0 LINE",
"265 0 LINE",
"265 742 LINE",
"65 742 LINE"
);
}
);
width = 330;
},
{
anchors = (
{
name = bottom;
position = "{132, 0}";
},
{
name = ogonek;
position = "{144, 10}";
},
{
name = top;
position = "{135, 742}";
}
);
background = {
anchors = (
{
name = bottom;
position = "{132, 0}";
},
{
name = ogonek;
position = "{144, 10}";
},
{
name = top;
position = "{135, 742}";
}
);
paths = (
{
closed = 1;
nodes = (
"111 742 OFFCURVE",
"109 740 OFFCURVE",
"109 732 CURVE SMOOTH",
"109 10 LINE SMOOTH",
"109 2 OFFCURVE",
"111 0 OFFCURVE",
"120 0 CURVE SMOOTH",
"143 0 LINE SMOOTH",
"153 0 OFFCURVE",
"155 2 OFFCURVE",
"155 12 CURVE SMOOTH",
"155 732 LINE SMOOTH",
"155 740 OFFCURVE",
"153 742 OFFCURVE",
"146 742 CURVE SMOOTH",
"118 742 LINE SMOOTH"
);
}
);
};
layerId = "91AB5BCA-6A50-42DA-B2F7-8181BF189245";
paths = (
{
closed = 1;
nodes = (
"111 0 LINE",
"151 0 LINE",
"151 742 LINE",
"111 742 LINE"
);
}
);
width = 262;
}
);
leftMetricsKey = N;
rightMetricsKey = N;
unicode = 0049;
},
{
glyphname = J;
lastChange = "2017-11-14 17:50:30 +0000";
layers = (
{
anchors = (
{
name = top;
position = "{223, 742}";
}
);
background = {
anchors = (
{
name = top;
position = "{218, 742}";
}
);
paths = (
{
closed = 1;
nodes = (
"395 721 LINE SMOOTH",
"395 734 OFFCURVE",
"389 742 OFFCURVE",
"377 742 CURVE SMOOTH",
"188 742 LINE SMOOTH",
"176 742 OFFCURVE",
"168 734 OFFCURVE",
"168 719 CURVE SMOOTH",
"168 268 LINE SMOOTH",
"168 200 OFFCURVE",
"139 175 OFFCURVE",
"90 175 CURVE SMOOTH",
"68 175 OFFCURVE",
"51 180 OFFCURVE",
"35 182 CURVE SMOOTH",
"19 184 OFFCURVE",
"12 174 OFFCURVE",
"11 159 CURVE SMOOTH",
"2 45 LINE SMOOTH",
"0 17 OFFCURVE",
"10 6 OFFCURVE",
"33 2 CURVE SMOOTH",
"78 -6 OFFCURVE",
"116 -10 OFFCURVE",
"157 -10 CURVE SMOOTH",
"313 -10 OFFCURVE",
"395 48 OFFCURVE",
"395 212 CURVE SMOOTH"
);
}
);
};
layerId = "258ED206-D907-4350-8EBA-CBDDA1C16BF7";
paths = (
{
closed = 1;
nodes = (
"373 742 LINE",
"173 742 LINE",
"173 286 LINE SMOOTH",
"173 209 OFFCURVE",
"156 174 OFFCURVE",
"85 174 CURVE SMOOTH",
"64 174 OFFCURVE",
"38 177 OFFCURVE",
"20 179 CURVE",
"20 0 LINE",
"50 -6 OFFCURVE",
"112 -10 OFFCURVE",
"154 -10 CURVE SMOOTH",
"333 -10 OFFCURVE",
"373 71 OFFCURVE",
"373 235 CURVE SMOOTH"
);
}
);
width = 428;
},
{
anchors = (
{
name = top;
position = "{245, 742}";
}
);
background = {
anchors = (
{
name = top;
position = "{245, 742}";
}
);
paths = (
{
closed = 1;
nodes = (
"268 732 LINE SMOOTH",
"268 739 OFFCURVE",
"266 742 OFFCURVE",
"260 742 CURVE SMOOTH",
"230 742 LINE SMOOTH",
"224 742 OFFCURVE",
"222 739 OFFCURVE",
"222 733 CURVE SMOOTH",
"222 154 LINE SMOOTH",
"222 61 OFFCURVE",
"200 34 OFFCURVE",
"135 34 CURVE SMOOTH",
"86 34 OFFCURVE",
"64 49 OFFCURVE",
"43 59 CURVE SMOOTH",
"39 61 OFFCURVE",
"36 60 OFFCURVE",
"35 55 CURVE SMOOTH",
"26 24 LINE SMOOTH",
"25 20 OFFCURVE",
"27 17 OFFCURVE",
"30 15 CURVE SMOOTH",
"37 10 OFFCURVE",
"82 -10 OFFCURVE",
"137 -10 CURVE SMOOTH",
"234 -10 OFFCURVE",
"268 49 OFFCURVE",
"268 144 CURVE SMOOTH"
);
}
);
};
layerId = "91AB5BCA-6A50-42DA-B2F7-8181BF189245";
paths = (
{
closed = 1;
nodes = (
"263 742 LINE",
"223 742 LINE",
"223 158 LINE SMOOTH",
"223 65 OFFCURVE",
"200 32 OFFCURVE",
"135 32 CURVE SMOOTH",
"83 32 OFFCURVE",
"57 53 OFFCURVE",
"35 64 CURVE",
"25 19 LINE",
"32 13 OFFCURVE",
"79 -10 OFFCURVE",
"137 -10 CURVE SMOOTH",
"234 -10 OFFCURVE",
"263 49 OFFCURVE",
"263 144 CURVE SMOOTH"
);
}
);
width = 355;
}
);
leftKerningGroup = J;
rightMetricsKey = U;
unicode = 004A;
},
{
glyphname = K;
lastChange = "2017-11-28 01:30:58 +0000";
layers = (
{
anchors = (
{
name = bottom;
position = "{364, 0}";
},
{
name = top;
position = "{364, 742}";
}
);
background = {
anchors = (
{
name = bottom;
position = "{359, 0}";
},
{
name = top;
position = "{359, 742}";
}
);
paths = (
{
closed = 1;
nodes = (
"515 480 LINE SMOOTH",
"509 494 OFFCURVE",
"510 501 OFFCURVE",
"518 512 CURVE SMOOTH",
"682 713 LINE SMOOTH",
"695 728 OFFCURVE",
"683 742 OFFCURVE",
"661 742 CURVE SMOOTH",
"509 742 LINE SMOOTH",
"485 742 OFFCURVE",
"477 736 OFFCURVE",
"466 721 CURVE SMOOTH",
"282 463 LINE",
"274 453 OFFCURVE",
"267 452 OFFCURVE",
"267 468 CURVE SMOOTH",
"267 721 LINE SMOOTH",
"267 734 OFFCURVE",
"261 742 OFFCURVE",
"249 742 CURVE SMOOTH",
"59 742 LINE SMOOTH",
"48 742 OFFCURVE",
"40 734 OFFCURVE",
"40 719 CURVE SMOOTH",
"40 25 LINE SMOOTH",
"40 8 OFFCURVE",
"46 0 OFFCURVE",
"67 0 CURVE SMOOTH",
"234 0 LINE SMOOTH",
"257 0 OFFCURVE",
"267 8 OFFCURVE",
"267 29 CURVE SMOOTH",
"267 180 LINE SMOOTH",
"267 190 OFFCURVE",
"268 196 OFFCURVE",
"273 202 CURVE SMOOTH",
"344 293 LINE SMOOTH",
"354 306 OFFCURVE",
"360 308 OFFCURVE",
"366 298 CURVE SMOOTH",
"488 20 LINE SMOOTH",
"495 5 OFFCURVE",
"507 0 OFFCURVE",
"524 0 CURVE SMOOTH",
"719 0 LINE SMOOTH",
"739 0 OFFCURVE",
"741 15 OFFCURVE",
"733 31 CURVE SMOOTH"
);
}
);
};
guideLines = (
{
angle = 54.4985;
position = "{724, 742}";
},
{
angle = -62.8805;
position = "{377, 313}";
}
);
hints = (
{
horizontal = 1;
origin = "{0, 6}";
target = up;
type = BottomGhost;
},
{
horizontal = 1;
origin = "{0, 5}";
target = down;
type = TopGhost;
},
{
place = "{70, 225}";
}
);
layerId = "258ED206-D907-4350-8EBA-CBDDA1C16BF7";
paths = (
{
closed = 1;
nodes = (
"507 458 LINE",
"711 742 LINE",
"486 742 LINE",
"272 442 LINE",
"272 742 LINE",
"65 742 LINE",
"65 0 LINE",
"272 0 LINE",
"272 194 LINE",
"364 313 LINE",
"529 0 LINE",
"744 0 LINE"
);
}
);
width = 759;
},
{
anchors = (
{
name = bottom;
position = "{338, 0}";
},
{
name = top;
position = "{368, 742}";
}
);
background = {
anchors = (
{
name = bottom;
position = "{340, 0}";
},
{
name = top;
position = "{370, 742}";
}
);
paths = (
{
closed = 1;
nodes = (
"340 445 LINE SMOOTH",
"338 449 OFFCURVE",
"338 449 OFFCURVE",
"340 451 CURVE SMOOTH",
"599 734 LINE SMOOTH",
"603 738 OFFCURVE",
"602 742 OFFCURVE",
"596 742 CURVE SMOOTH",
"558 742 LINE SMOOTH",
"552 742 OFFCURVE",
"550 741 OFFCURVE",
"547 738 CURVE SMOOTH",
"164 322 LINE SMOOTH",
"159 317 OFFCURVE",
"157 317 OFFCURVE",
"157 323 CURVE SMOOTH",
"157 734 LINE SMOOTH",
"157 740 OFFCURVE",
"154 742 OFFCURVE",
"149 742 CURVE SMOOTH",
"119 742 LINE SMOOTH",
"113 742 OFFCURVE",
"111 739 OFFCURVE",
"111 734 CURVE SMOOTH",
"111 9 LINE SMOOTH",
"111 2 OFFCURVE",
"114 0 OFFCURVE",
"121 0 CURVE SMOOTH",
"147 0 LINE SMOOTH",
"154 0 OFFCURVE",
"157 3 OFFCURVE",
"157 9 CURVE SMOOTH",
"157 246 LINE SMOOTH",
"157 254 OFFCURVE",
"159 257 OFFCURVE",
"165 263 CURVE SMOOTH",
"297 409 LINE SMOOTH",
"302 414 OFFCURVE",
"305 415 OFFCURVE",
"309 409 CURVE SMOOTH",
"567 5 LINE SMOOTH",
"569 2 OFFCURVE",
"573 0 OFFCURVE",
"578 0 CURVE SMOOTH",
"617 0 LINE SMOOTH",
"621 0 OFFCURVE",
"623 3 OFFCURVE",
"620 7 CURVE SMOOTH"
);
}
);
};
layerId = "91AB5BCA-6A50-42DA-B2F7-8181BF189245";
paths = (
{
closed = 1;
nodes = (
"334 449 LINE",
"602 742 LINE",
"547 742 LINE",
"153 314 LINE",
"153 742 LINE",
"111 742 LINE",
"111 0 LINE",
"153 0 LINE",
"153 254 LINE",
"300 417 LINE",
"566 0 LINE",
"620 0 LINE"
);
}
);
width = 660;
}
);
leftMetricsKey = N;
rightKerningGroup = K;
unicode = 004B;
},
{
glyphname = L;
lastChange = "2017-11-28 01:30:58 +0000";
layers = (
{
anchors = (
{
name = bottom;
position = "{310, 0}";
},
{
name = top;
position = "{154, 742}";
},
{
name = topright;
position = "{496, 742}";
}
);
background = {
anchors = (
{
name = bottom;
position = "{305, 0}";
},
{
name = top;
position = "{159, 742}";
},
{
name = topright;
position = "{501, 742}";
}
);
paths = (
{
closed = 1;
nodes = (
"43 25 LINE SMOOTH",
"43 8 OFFCURVE",
"49 0 OFFCURVE",
"70 0 CURVE SMOOTH",
"581 0 LINE SMOOTH",
"598 0 OFFCURVE",
"606 10 OFFCURVE",
"606 22 CURVE SMOOTH",
"606 145 LINE SMOOTH",
"606 159 OFFCURVE",
"597 164 OFFCURVE",
"583 164 CURVE SMOOTH",
"282 164 LINE SMOOTH",
"273 164 OFFCURVE",
"270 167 OFFCURVE",
"270 178 CURVE SMOOTH",
"270 721 LINE SMOOTH",
"270 734 OFFCURVE",
"264 742 OFFCURVE",
"252 742 CURVE SMOOTH",
"62 742 LINE SMOOTH",
"51 742 OFFCURVE",
"43 734 OFFCURVE",
"43 719 CURVE SMOOTH"
);
}
);
};
layerId = "258ED206-D907-4350-8EBA-CBDDA1C16BF7";
paths = (
{
closed = 1;
nodes = (
"65 0 LINE",
"561 0 LINE",
"561 164 LINE",
"265 164 LINE",
"265 742 LINE",
"65 742 LINE"
);
}
);
width = 581;
},
{
anchors = (
{
name = bottom;
position = "{316, 0}";
},
{
name = top;
position = "{136, 742}";
},
{
name = topright;
position = "{418, 742}";
}
);
background = {
anchors = (
{
name = bottom;
position = "{316, 0}";
},
{
name = top;
position = "{134, 742}";
},
{
name = topright;
position = "{420, 742}";
}
);
paths = (
{
closed = 1;
nodes = (
"111 10 LINE SMOOTH",
"111 3 OFFCURVE",
"113 0 OFFCURVE",
"120 0 CURVE",
"530 0 LINE",
"535 0 OFFCURVE",
"537 2 OFFCURVE",
"537 7 CURVE SMOOTH",
"537 33 LINE SMOOTH",
"537 39 OFFCURVE",
"535 40 OFFCURVE",
"529 40 CURVE SMOOTH",
"166 40 LINE SMOOTH",
"159 40 OFFCURVE",
"157 41 OFFCURVE",
"157 49 CURVE SMOOTH",
"157 732 LINE SMOOTH",
"157 740 OFFCURVE",
"155 742 OFFCURVE",
"148 742 CURVE SMOOTH",
"120 742 LINE SMOOTH",
"113 742 OFFCURVE",
"111 740 OFFCURVE",
"111 732 CURVE SMOOTH"
);
}
);
};
layerId = "91AB5BCA-6A50-42DA-B2F7-8181BF189245";
paths = (
{
closed = 1;
nodes = (
"111 0 LINE",
"533 0 LINE",
"533 44 LINE",
"155 44 LINE",
"155 742 LINE",
"111 742 LINE"
);
}
);
width = 568;
}
);
leftMetricsKey = N;
rightKerningGroup = L;
unicode = 004C;
},
{
glyphname = Lslash;
lastChange = "2017-11-28 01:30:58 +0000";
layers = (
{
background = {
components = (
{
name = L;
}
);
paths = (
{
closed = 1;
nodes = (
"439 550 OFFCURVE",
"432 557 OFFCURVE",
"415 552 CURVE SMOOTH",
"10 444 LINE SMOOTH",
"-2 441 OFFCURVE",
"-9 436 OFFCURVE",
"-9 421 CURVE SMOOTH",
"-9 301 LINE SMOOTH",
"-9 284 OFFCURVE",
"-3 277 OFFCURVE",
"17 283 CURVE SMOOTH",
"419 397 LINE SMOOTH",
"433 401 OFFCURVE",
"439 409 OFFCURVE",
"439 421 CURVE SMOOTH",
"439 534 LINE SMOOTH"
);
}
);
};
components = (
{
name = L;
transform = "{1, 0, 0, 1, 10, 0}";
}
);
layerId = "258ED206-D907-4350-8EBA-CBDDA1C16BF7";
paths = (
{
closed = 1;
nodes = (
"444 550 OFFCURVE",
"437 557 OFFCURVE",
"420 552 CURVE SMOOTH",
"15 444 LINE SMOOTH",
"3 441 OFFCURVE",
"-4 436 OFFCURVE",
"-4 421 CURVE SMOOTH",
"-4 301 LINE SMOOTH",
"-4 284 OFFCURVE",
"2 277 OFFCURVE",
"22 283 CURVE SMOOTH",
"424 397 LINE SMOOTH",
"438 401 OFFCURVE",
"444 409 OFFCURVE",
"444 421 CURVE SMOOTH",
"444 534 LINE SMOOTH"
);
}
);
width = 591;
},
{
background = {
components = (
{
name = L;
}
);
paths = (
{
closed = 1;
nodes = (
"327 436 OFFCURVE",
"325 438 OFFCURVE",
"320 437 CURVE SMOOTH",
"38 365 LINE SMOOTH",
"35 364 OFFCURVE",
"33 361 OFFCURVE",
"33 356 CURVE SMOOTH",
"33 332 LINE SMOOTH",
"33 327 OFFCURVE",
"35 326 OFFCURVE",
"40 327 CURVE SMOOTH",
"321 400 LINE SMOOTH",
"325 401 OFFCURVE",
"327 404 OFFCURVE",
"327 408 CURVE SMOOTH",
"327 432 LINE SMOOTH"
);
}
);
};
components = (
{
name = L;
transform = "{1, 0, 0, 1, -2, 0}";
}
);
layerId = "91AB5BCA-6A50-42DA-B2F7-8181BF189245";
paths = (
{
closed = 1;
nodes = (
"327 436 OFFCURVE",
"325 438 OFFCURVE",
"320 437 CURVE SMOOTH",
"38 365 LINE SMOOTH",
"35 364 OFFCURVE",
"33 361 OFFCURVE",
"33 356 CURVE SMOOTH",
"33 332 LINE SMOOTH",
"33 327 OFFCURVE",
"35 326 OFFCURVE",
"40 327 CURVE SMOOTH",
"321 400 LINE SMOOTH",
"325 401 OFFCURVE",
"327 404 OFFCURVE",
"327 408 CURVE SMOOTH",
"327 432 LINE SMOOTH"
);
}
);
width = 566;
}
);
rightMetricsKey = L;
unicode = 0141;
},
{
glyphname = M;
lastChange = "2017-11-28 01:30:24 +0000";
layers = (
{
background = {
paths = (
{
closed = 1;
nodes = (
"214 0 LINE SMOOTH",
"232 0 OFFCURVE",
"236 4 OFFCURVE",
"236 22 CURVE SMOOTH",
"236 464 LINE SMOOTH",
"236 477 OFFCURVE",
"243 481 OFFCURVE",
"248 465 CURVE SMOOTH",
"392 18 LINE SMOOTH",
"396 6 OFFCURVE",
"404 0 OFFCURVE",
"416 0 CURVE SMOOTH",
"521 0 LINE SMOOTH",
"532 0 OFFCURVE",
"541 7 OFFCURVE",
"545 18 CURVE SMOOTH",
"689 473 LINE SMOOTH",
"693 485 OFFCURVE",
"701 485 OFFCURVE",
"701 474 CURVE SMOOTH",
"701 25 LINE SMOOTH",
"701 8 OFFCURVE",
"707 0 OFFCURVE",
"727 0 CURVE SMOOTH",
"896 0 LINE SMOOTH",
"919 0 OFFCURVE",
"928 8 OFFCURVE",
"928 29 CURVE SMOOTH",
"928 721 LINE SMOOTH",
"928 734 OFFCURVE",
"922 742 OFFCURVE",
"910 742 CURVE SMOOTH",
"621 742 LINE SMOOTH",
"607 742 OFFCURVE",
"599 731 OFFCURVE",
"594 713 CURVE SMOOTH",
"501 406 LINE SMOOTH",
"498 397 OFFCURVE",
"492 395 OFFCURVE",
"488 406 CURVE SMOOTH",
"384 724 LINE SMOOTH",
"379 738 OFFCURVE",
"373 742 OFFCURVE",
"356 742 CURVE SMOOTH",
"76 742 LINE SMOOTH",
"61 742 OFFCURVE",
"55 735 OFFCURVE",
"55 719 CURVE SMOOTH",
"55 28 LINE SMOOTH",
"55 11 OFFCURVE",
"65 0 OFFCURVE",
"81 0 CURVE SMOOTH"
);
}
);
};
guideLines = (
{
angle = -105;
position = "{494, 289}";
},
{
angle = 105;
position = "{494, 289}";
}
);
layerId = "258ED206-D907-4350-8EBA-CBDDA1C16BF7";
paths = (
{
closed = 1;
nodes = (
"265 0 LINE",
"265 537 LINE",
"409 0 LINE",
"553 0 LINE",
"697 537 LINE",
"697 0 LINE",
"897 0 LINE",
"897 742 LINE",
"602 742 LINE",
"481 289 LINE",
"361 742 LINE",
"65 742 LINE",
"65 0 LINE"
);
}
);
width = 962;
},
{
background = {
guideLines = (
{
position = "{36, 566}";
showMeasurement = 1;
}
);
paths = (
{
closed = 1;
nodes = (
"141 0 LINE SMOOTH",
"148 0 OFFCURVE",
"151 3 OFFCURVE",
"151 9 CURVE SMOOTH",
"151 622 LINE SMOOTH",
"151 626 OFFCURVE",
"153 625 OFFCURVE",
"154 622 CURVE SMOOTH",
"398 10 LINE SMOOTH",
"401 3 OFFCURVE",
"406 0 OFFCURVE",
"417 0 CURVE SMOOTH",
"444 0 LINE SMOOTH",
"453 0 OFFCURVE",
"457 3 OFFCURVE",
"460 11 CURVE SMOOTH",
"709 627 LINE SMOOTH",
"710 630 OFFCURVE",
"712 632 OFFCURVE",
"712 627 CURVE SMOOTH",
"712 9 LINE SMOOTH",
"712 2 OFFCURVE",
"715 0 OFFCURVE",
"722 0 CURVE SMOOTH",
"749 0 LINE SMOOTH",
"755 0 OFFCURVE",
"758 3 OFFCURVE",
"758 10 CURVE SMOOTH",
"758 732 LINE SMOOTH",
"758 740 OFFCURVE",
"756 742 OFFCURVE",
"749 742 CURVE SMOOTH",
"720 742 LINE SMOOTH",
"714 742 OFFCURVE",
"711 740 OFFCURVE",
"709 735 CURVE SMOOTH",
"438 65 LINE SMOOTH",
"432 51 OFFCURVE",
"427 51 OFFCURVE",
"422 64 CURVE SMOOTH",
"155 734 LINE",
"153 740 OFFCURVE",
"150 742 OFFCURVE",
"142 742 CURVE SMOOTH",
"116 742 LINE SMOOTH",
"109 742 OFFCURVE",
"107 740 OFFCURVE",
"107 732 CURVE SMOOTH",
"107 10 LINE SMOOTH",
"107 3 OFFCURVE",
"109 0 OFFCURVE",
"116 0 CURVE SMOOTH"
);
}
);
};
guideLines = (
{
position = "{138, 566}";
showMeasurement = 1;
},
{
angle = 68.255;
position = "{458, 0}";
}
);
layerId = "91AB5BCA-6A50-42DA-B2F7-8181BF189245";
paths = (
{
closed = 1;
nodes = (
"155 0 LINE",
"155 624 LINE",
"404 0 LINE",
"464 0 LINE",
"716 632 LINE",
"716 0 LINE",
"760 0 LINE",
"760 742 LINE",
"716 742 LINE",
"434 45 LINE",
"156 742 LINE",
"111 742 LINE",
"111 0 LINE"
);
}
);
width = 871;
}
);
leftMetricsKey = N;
rightMetricsKey = N;
unicode = 004D;
},
{
glyphname = N;
lastChange = "2017-11-28 01:30:15 +0000";
layers = (
{
anchors = (
{
name = bottom;
position = "{409, 0}";
},
{
name = top;
position = "{409, 742}";
}
);
background = {
anchors = (
{
name = bottom;
position = "{404, 0}";
},
{
name = top;
position = "{404, 742}";
}
);
paths = (
{
closed = 1;
nodes = (
"557 742 OFFCURVE",
"550 734 OFFCURVE",
"550 721 CURVE SMOOTH",
"550 394 LINE SMOOTH",
"550 378 OFFCURVE",
"543 378 OFFCURVE",
"534 390 CURVE SMOOTH",
"294 724 LINE SMOOTH",
"283 739 OFFCURVE",
"277 742 OFFCURVE",
"260 742 CURVE SMOOTH",
"97 742 LINE SMOOTH",
"82 742 OFFCURVE",
"75 735 OFFCURVE",
"75 719 CURVE SMOOTH",
"75 20 LINE SMOOTH",
"75 5 OFFCURVE",
"85 0 OFFCURVE",
"100 0 CURVE SMOOTH",
"236 0 LINE SMOOTH",
"254 0 OFFCURVE",
"261 6 OFFCURVE",
"260 22 CURVE SMOOTH",
"260 386 LINE SMOOTH",
"260 393 OFFCURVE",
"265 395 OFFCURVE",
"270 388 CURVE SMOOTH",
"545 15 LINE SMOOTH",
"555 2 OFFCURVE",
"561 0 OFFCURVE",
"572 0 CURVE SMOOTH",
"709 0 LINE SMOOTH",
"722 0 OFFCURVE",
"732 7 OFFCURVE",
"732 18 CURVE SMOOTH",
"732 725 LINE SMOOTH",
"732 736 OFFCURVE",
"727 742 OFFCURVE",
"717 742 CURVE SMOOTH",
"572 742 LINE SMOOTH"
);
}
);
};
guideLines = (
{
angle = 125.0467;
position = "{568, 328}";
}
);
layerId = "258ED206-D907-4350-8EBA-CBDDA1C16BF7";
paths = (
{
closed = 1;
nodes = (
"555 328 LINE",
"266 742 LINE",
"65 742 LINE",
"65 0 LINE",
"265 0 LINE",
"265 442 LINE",
"574 0 LINE",
"755 0 LINE",
"755 742 LINE",
"555 742 LINE"
);
}
);
width = 820;
},
{
anchors = (
{
name = bottom;
position = "{346, 0}";
},
{
name = top;
position = "{385, 742}";
}
);
background = {
anchors = (
{
name = bottom;
position = "{352, 0}";
},
{
name = top;
position = "{387, 742}";
}
);
guideLines = (
{
position = "{41, 576}";
showMeasurement = 1;
}
);
paths = (
{
closed = 1;
nodes = (
"592 742 OFFCURVE",
"590 739 OFFCURVE",
"590 733 CURVE SMOOTH",
"590 107 LINE SMOOTH",
"590 101 OFFCURVE",
"583 95 OFFCURVE",
"576 105 CURVE SMOOTH",
"149 735 LINE SMOOTH",
"145 741 OFFCURVE",
"142 742 OFFCURVE",
"134 742 CURVE SMOOTH",
"116 742 LINE",
"109 742 OFFCURVE",
"107 740 OFFCURVE",
"107 732 CURVE SMOOTH",
"107 10 LINE SMOOTH",
"107 3 OFFCURVE",
"109 0 OFFCURVE",
"116 0 CURVE SMOOTH",
"141 0 LINE SMOOTH",
"148 0 OFFCURVE",
"151 3 OFFCURVE",
"151 9 CURVE SMOOTH",
"151 637 LINE SMOOTH",
"151 645 OFFCURVE",
"156 647 OFFCURVE",
"163 637 CURVE SMOOTH",
"591 6 LINE SMOOTH",
"596 -1 OFFCURVE",
"602 0 OFFCURVE",
"610 0 CURVE SMOOTH",
"625 0 LINE SMOOTH",
"631 0 OFFCURVE",
"634 3 OFFCURVE",
"634 10 CURVE SMOOTH",
"634 732 LINE SMOOTH",
"634 740 OFFCURVE",
"632 742 OFFCURVE",
"625 742 CURVE SMOOTH",
"598 742 LINE SMOOTH"
);
}
);
};
guideLines = (
{
position = "{143, 576}";
showMeasurement = 1;
},
{
angle = 123.9688;
position = "{145, 659}";
}
);
layerId = "91AB5BCA-6A50-42DA-B2F7-8181BF189245";
paths = (
{
closed = 1;
nodes = (
"590 80 LINE",
"144 742 LINE",
"111 742 LINE",
"111 0 LINE",
"151 0 LINE",
"151 659 LINE",
"595 0 LINE",
"630 0 LINE",
"630 742 LINE",
"590 742 LINE"
);
}
);
width = 741;
}
);
unicode = 004E;
},
{
glyphname = Eng;
lastChange = "2017-11-28 01:30:58 +0000";
layers = (
{
background = {
paths = (
{
closed = 1;
nodes = (
"557 742 LINE SMOOTH",
"542 742 OFFCURVE",
"535 734 OFFCURVE",
"535 721 CURVE SMOOTH",
"535 434 LINE SMOOTH",
"535 418 OFFCURVE",
"528 418 OFFCURVE",
"519 430 CURVE",
"279 724 LINE SMOOTH",
"267 739 OFFCURVE",
"262 742 OFFCURVE",
"245 742 CURVE SMOOTH",
"82 742 LINE SMOOTH",
"67 742 OFFCURVE",
"60 735 OFFCURVE",
"60 719 CURVE SMOOTH",
"60 20 LINE SMOOTH",
"60 5 OFFCURVE",
"70 0 OFFCURVE",
"85 0 CURVE SMOOTH",
"221 0 LINE SMOOTH",
"239 0 OFFCURVE",
"246 6 OFFCURVE",
"245 22 CURVE",
"245 386 LINE",
"245 393 OFFCURVE",
"249 395 OFFCURVE",
"255 388 CURVE SMOOTH",
"495 97 LINE",
"495 88 LINE SMOOTH",
"492 31 OFFCURVE",
"462 10 OFFCURVE",
"417 10 CURVE SMOOTH",
"395 10 OFFCURVE",
"372 15 OFFCURVE",
"356 17 CURVE SMOOTH",
"340 19 OFFCURVE",
"333 9 OFFCURVE",
"332 -6 CURVE SMOOTH",
"323 -120 LINE SMOOTH",
"321 -148 OFFCURVE",
"331 -159 OFFCURVE",
"354 -163 CURVE SMOOTH",
"399 -171 OFFCURVE",
"443 -175 OFFCURVE",
"484 -175 CURVE SMOOTH",
"636 -175 OFFCURVE",
"717 -114 OFFCURVE",
"717 47 CURVE SMOOTH",
"717 725 LINE SMOOTH",
"717 736 OFFCURVE",
"712 742 OFFCURVE",
"702 742 CURVE SMOOTH"
);
}
);
};
layerId = "258ED206-D907-4350-8EBA-CBDDA1C16BF7";
paths = (
{
closed = 1;
nodes = (
"562 742 LINE SMOOTH",
"547 742 OFFCURVE",
"540 734 OFFCURVE",
"540 721 CURVE SMOOTH",
"540 434 LINE SMOOTH",
"540 418 OFFCURVE",
"533 418 OFFCURVE",
"524 430 CURVE",
"284 724 LINE SMOOTH",
"272 739 OFFCURVE",
"267 742 OFFCURVE",
"250 742 CURVE SMOOTH",
"87 742 LINE SMOOTH",
"72 742 OFFCURVE",
"65 735 OFFCURVE",
"65 719 CURVE SMOOTH",
"65 20 LINE SMOOTH",
"65 5 OFFCURVE",
"75 0 OFFCURVE",
"90 0 CURVE SMOOTH",
"226 0 LINE SMOOTH",
"244 0 OFFCURVE",
"251 6 OFFCURVE",
"250 22 CURVE",
"250 386 LINE",
"250 393 OFFCURVE",
"254 395 OFFCURVE",
"260 388 CURVE SMOOTH",
"500 97 LINE",
"500 88 LINE SMOOTH",
"497 31 OFFCURVE",
"467 10 OFFCURVE",
"422 10 CURVE SMOOTH",
"400 10 OFFCURVE",
"377 15 OFFCURVE",
"361 17 CURVE SMOOTH",
"345 19 OFFCURVE",
"338 9 OFFCURVE",
"337 -6 CURVE SMOOTH",
"328 -120 LINE SMOOTH",
"326 -148 OFFCURVE",
"336 -159 OFFCURVE",
"359 -163 CURVE SMOOTH",
"404 -171 OFFCURVE",
"448 -175 OFFCURVE",
"489 -175 CURVE SMOOTH",
"641 -175 OFFCURVE",
"722 -114 OFFCURVE",
"722 47 CURVE SMOOTH",
"722 725 LINE SMOOTH",
"722 736 OFFCURVE",
"717 742 OFFCURVE",
"707 742 CURVE SMOOTH"
);
}
);
width = 787;
},
{
background = {
paths = (
{
closed = 1;
nodes = (
"603 742 LINE SMOOTH",
"597 742 OFFCURVE",
"595 739 OFFCURVE",
"595 733 CURVE SMOOTH",
"595 107 LINE SMOOTH",
"595 101 OFFCURVE",
"588 94 OFFCURVE",
"581 104 CURVE SMOOTH",
"155 735 LINE SMOOTH",
"151 741 OFFCURVE",
"148 742 OFFCURVE",
"141 742 CURVE SMOOTH",
"120 742 LINE SMOOTH",
"113 742 OFFCURVE",
"111 740 OFFCURVE",
"111 732 CURVE SMOOTH",
"111 10 LINE SMOOTH",
"111 3 OFFCURVE",
"113 0 OFFCURVE",
"120 0 CURVE SMOOTH",
"145 0 LINE SMOOTH",
"152 0 OFFCURVE",
"155 3 OFFCURVE",
"155 9 CURVE SMOOTH",
"155 640 LINE SMOOTH",
"155 648 OFFCURVE",
"157 650 OFFCURVE",
"164 640 CURVE SMOOTH",
"592 12 LINE",
"592 -41 LINE SMOOTH",
"592 -112 OFFCURVE",
"561 -135 OFFCURVE",
"507 -135 CURVE SMOOTH",
"477 -135 OFFCURVE",
"453 -128 OFFCURVE",
"437 -122 CURVE SMOOTH",
"432 -120 OFFCURVE",
"430 -121 OFFCURVE",
"429 -126 CURVE",
"426 -151 LINE",
"426 -155 OFFCURVE",
"427 -158 OFFCURVE",
"430 -160 CURVE SMOOTH",
"437 -165 OFFCURVE",
"470 -175 OFFCURVE",
"511 -175 CURVE SMOOTH",
"605 -175 OFFCURVE",
"638 -124 OFFCURVE",
"638 -46 CURVE SMOOTH",
"638 732 LINE SMOOTH",
"638 740 OFFCURVE",
"636 742 OFFCURVE",
"629 742 CURVE SMOOTH"
);
}
);
};
layerId = "91AB5BCA-6A50-42DA-B2F7-8181BF189245";
paths = (
{
closed = 1;
nodes = (
"603 742 LINE SMOOTH",
"597 742 OFFCURVE",
"595 739 OFFCURVE",
"595 733 CURVE SMOOTH",
"595 107 LINE SMOOTH",
"595 101 OFFCURVE",
"588 94 OFFCURVE",
"581 104 CURVE SMOOTH",
"155 735 LINE SMOOTH",
"151 741 OFFCURVE",
"148 742 OFFCURVE",
"141 742 CURVE SMOOTH",
"120 742 LINE SMOOTH",
"113 742 OFFCURVE",
"111 740 OFFCURVE",
"111 732 CURVE SMOOTH",
"111 10 LINE SMOOTH",
"111 3 OFFCURVE",
"113 0 OFFCURVE",
"120 0 CURVE SMOOTH",
"145 0 LINE SMOOTH",
"152 0 OFFCURVE",
"155 3 OFFCURVE",
"155 9 CURVE SMOOTH",
"155 640 LINE SMOOTH",
"155 648 OFFCURVE",
"157 650 OFFCURVE",
"164 640 CURVE SMOOTH",
"592 12 LINE",
"592 -41 LINE SMOOTH",
"592 -112 OFFCURVE",
"561 -135 OFFCURVE",
"507 -135 CURVE SMOOTH",
"477 -135 OFFCURVE",
"453 -128 OFFCURVE",
"437 -122 CURVE SMOOTH",
"432 -120 OFFCURVE",
"430 -121 OFFCURVE",
"429 -126 CURVE",
"426 -151 LINE",
"426 -155 OFFCURVE",
"427 -158 OFFCURVE",
"430 -160 CURVE SMOOTH",
"437 -165 OFFCURVE",
"470 -175 OFFCURVE",
"511 -175 CURVE SMOOTH",
"605 -175 OFFCURVE",
"638 -124 OFFCURVE",
"638 -46 CURVE SMOOTH",
"638 732 LINE SMOOTH",
"638 740 OFFCURVE",
"636 742 OFFCURVE",
"629 742 CURVE SMOOTH"
);
}
);
width = 749;
}
);
leftMetricsKey = N;
rightMetricsKey = N;
unicode = 014A;
},
{
glyphname = O;
lastChange = "2017-11-28 21:14:38 +0000";
layers = (
{
anchors = (
{
name = bottom;
position = "{396, 0}";
},
{
name = ogonek;
position = "{487, 10}";
},
{
name = top;
position = "{394, 742}";
}
);
background = {
anchors = (
{
name = bottom;
position = "{391, 0}";
},
{
name = ogonek;
position = "{482, 10}";
},
{
name = top;
position = "{389, 742}";
}
);
paths = (
{
closed = 1;
nodes = (
"608 -10 OFFCURVE",
"748 139 OFFCURVE",
"748 369 CURVE SMOOTH",
"748 601 OFFCURVE",
"605 752 OFFCURVE",
"390 752 CURVE SMOOTH",
"173 752 OFFCURVE",
"30 601 OFFCURVE",
"30 369 CURVE SMOOTH",
"30 138 OFFCURVE",
"169 -10 OFFCURVE",
"390 -10 CURVE SMOOTH"
);
},
{
closed = 1;
nodes = (
"301 146 OFFCURVE",
"268 206 OFFCURVE",
"268 366 CURVE SMOOTH",
"268 531 OFFCURVE",
"303 598 OFFCURVE",
"390 598 CURVE SMOOTH",
"475 598 OFFCURVE",
"510 531 OFFCURVE",
"510 366 CURVE SMOOTH",
"510 206 OFFCURVE",
"477 146 OFFCURVE",
"390 146 CURVE SMOOTH"
);
}
);
};
guideLines = (
{
angle = 90;
position = "{-589, 431}";
}
);
layerId = "258ED206-D907-4350-8EBA-CBDDA1C16BF7";
paths = (
{
closed = 1;
nodes = (
"613 -10 OFFCURVE",
"753 139 OFFCURVE",
"753 369 CURVE SMOOTH",
"753 601 OFFCURVE",
"610 752 OFFCURVE",
"395 752 CURVE SMOOTH",
"178 752 OFFCURVE",
"35 601 OFFCURVE",
"35 369 CURVE SMOOTH",
"35 138 OFFCURVE",
"174 -10 OFFCURVE",
"395 -10 CURVE SMOOTH"
);
},
{
closed = 1;
nodes = (
"313 150 OFFCURVE",
"252 206 OFFCURVE",
"252 366 CURVE SMOOTH",
"252 531 OFFCURVE",
"313 592 OFFCURVE",
"395 592 CURVE SMOOTH",
"477 592 OFFCURVE",
"536 531 OFFCURVE",
"536 366 CURVE SMOOTH",
"536 206 OFFCURVE",
"477 150 OFFCURVE",
"395 150 CURVE SMOOTH"
);
}
);
width = 788;
},
{
anchors = (
{
name = bottom;
position = "{366, 0}";
},
{
name = ogonek;
position = "{436, 9}";
},
{
name = top;
position = "{366, 742}";
}
);
background = {
anchors = (
{
name = bottom;
position = "{366, 0}";
},
{
name = ogonek;
position = "{436, 9}";
},
{
name = top;
position = "{366, 742}";
}
);
paths = (
{
closed = 1;
nodes = (
"552 -10 OFFCURVE",
"665 122 OFFCURVE",
"665 369 CURVE SMOOTH",
"665 618 OFFCURVE",
"552 752 OFFCURVE",
"365 752 CURVE SMOOTH",
"177 752 OFFCURVE",
"63 617 OFFCURVE",
"63 367 CURVE SMOOTH",
"63 121 OFFCURVE",
"175 -10 OFFCURVE",
"364 -10 CURVE SMOOTH"
);
},
{
closed = 1;
nodes = (
"200 32 OFFCURVE",
"111 143 OFFCURVE",
"111 369 CURVE SMOOTH",
"111 597 OFFCURVE",
"200 710 OFFCURVE",
"365 710 CURVE SMOOTH",
"529 710 OFFCURVE",
"617 598 OFFCURVE",
"617 369 CURVE SMOOTH",
"617 142 OFFCURVE",
"531 32 OFFCURVE",
"366 32 CURVE SMOOTH"
);
}
);
};
guideLines = (
{
angle = 90;
position = "{-489, 431}";
},
{
angle = 90;
position = "{468, 640}";
}
);
layerId = "91AB5BCA-6A50-42DA-B2F7-8181BF189245";
paths = (
{
closed = 1;
nodes = (
"552 -10 OFFCURVE",
"665 122 OFFCURVE",
"665 369 CURVE SMOOTH",
"665 618 OFFCURVE",
"552 752 OFFCURVE",
"365 752 CURVE SMOOTH",
"177 752 OFFCURVE",
"63 617 OFFCURVE",
"63 367 CURVE SMOOTH",
"63 121 OFFCURVE",
"175 -10 OFFCURVE",
"364 -10 CURVE SMOOTH"
);
},
{
closed = 1;
nodes = (
"200 32 OFFCURVE",
"108 143 OFFCURVE",
"108 369 CURVE SMOOTH",
"108 597 OFFCURVE",
"200 710 OFFCURVE",
"365 710 CURVE SMOOTH",
"529 710 OFFCURVE",
"620 598 OFFCURVE",
"620 369 CURVE SMOOTH",
"620 142 OFFCURVE",
"531 32 OFFCURVE",
"366 32 CURVE SMOOTH"
);
}
);
width = 728;
}
);
leftKerningGroup = O;
rightKerningGroup = O;
unicode = 004F;
},
{
glyphname = Oslash;
lastChange = "2017-11-14 17:50:30 +0000";
layers = (
{
anchors = (
{
name = top;
position = "{398, 742}";
}
);
background = {
anchors = (
{
name = top;
position = "{393, 742}";
}
);
paths = (
{
closed = 1;
nodes = (
"722 742 LINE SMOOTH",
"714 750 OFFCURVE",
"702 748 OFFCURVE",
"691 737 CURVE SMOOTH",
"625.978 673.628 LINE",
"565.773 724.014 OFFCURVE",
"486.559 752 OFFCURVE",
"394 752 CURVE SMOOTH",
"177 752 OFFCURVE",
"34 601 OFFCURVE",
"34 369 CURVE SMOOTH",
"34 283.385 OFFCURVE",
"53.094 209.172 OFFCURVE",
"88.379 149.669 CURVE",
"21 84 LINE SMOOTH",
"9 72 OFFCURVE",
"10 62 OFFCURVE",
"25 47 CURVE SMOOTH",
"64 7 LINE SMOOTH",
"80 -9 OFFCURVE",
"92 -8 OFFCURVE",
"107 7 CURVE SMOOTH",
"164.116 62.748 LINE",
"223.663 15.829 OFFCURVE",
"301.676 -10 OFFCURVE",
"394 -10 CURVE SMOOTH",
"612 -10 OFFCURVE",
"752 139 OFFCURVE",
"752 369 CURVE SMOOTH",
"752 452.736 OFFCURVE",
"733.371 525.92 OFFCURVE",
"699.451 585.261 CURVE",
"775 659 LINE",
"785 668 OFFCURVE",
"784 678 OFFCURVE",
"776 686 CURVE SMOOTH"
);
},
{
closed = 1;
nodes = (
"272 531 OFFCURVE",
"307 598 OFFCURVE",
"394 598 CURVE SMOOTH",
"438.199 598 OFFCURVE",
"468.878 579.884 OFFCURVE",
"488.147 539.294 CURVE",
"272.654 329.269 LINE",
"272 342 OFFCURVE",
"272 354 OFFCURVE",
"272 366 CURVE"
);
},
{
closed = 1;
nodes = (
"514 206 OFFCURVE",
"481 146 OFFCURVE",
"394 146 CURVE SMOOTH",
"349.772 146 OFFCURVE",
"319.374 160.817 OFFCURVE",
"299.982 195.36 CURVE",
"513.326 403.593 LINE",
"514 391 OFFCURVE",
"514 379 OFFCURVE",
"514 366 CURVE SMOOTH"
);
}
);
};
layerId = "258ED206-D907-4350-8EBA-CBDDA1C16BF7";
paths = (
{
closed = 1;
nodes = (
"727 742 LINE SMOOTH",
"719 750 OFFCURVE",
"707 748 OFFCURVE",
"696 737 CURVE SMOOTH",
"631 674 LINE",
"571 724 OFFCURVE",
"492 752 OFFCURVE",
"399 752 CURVE SMOOTH",
"182 752 OFFCURVE",
"39 601 OFFCURVE",
"39 369 CURVE SMOOTH",
"39 283 OFFCURVE",
"58 209 OFFCURVE",
"93 150 CURVE",
"26 84 LINE SMOOTH",
"14 72 OFFCURVE",
"15 62 OFFCURVE",
"30 47 CURVE SMOOTH",
"69 7 LINE SMOOTH",
"85 -9 OFFCURVE",
"97 -8 OFFCURVE",
"112 7 CURVE SMOOTH",
"169 63 LINE",
"229 16 OFFCURVE",
"307 -10 OFFCURVE",
"399 -10 CURVE SMOOTH",
"617 -10 OFFCURVE",
"757 139 OFFCURVE",
"757 369 CURVE SMOOTH",
"757 453 OFFCURVE",
"738 526 OFFCURVE",
"704 585 CURVE",
"780 659 LINE",
"790 668 OFFCURVE",
"789 678 OFFCURVE",
"781 686 CURVE SMOOTH"
);
},
{
closed = 1;
nodes = (
"277 531 OFFCURVE",
"312 598 OFFCURVE",
"399 598 CURVE SMOOTH",
"443 598 OFFCURVE",
"474 580 OFFCURVE",
"493 539 CURVE",
"278 329 LINE",
"277 342 OFFCURVE",
"277 354 OFFCURVE",
"277 366 CURVE"
);
},
{
closed = 1;
nodes = (
"519 206 OFFCURVE",
"486 146 OFFCURVE",
"399 146 CURVE SMOOTH",
"355 146 OFFCURVE",
"324 161 OFFCURVE",
"305 195 CURVE",
"518 404 LINE",
"519 391 OFFCURVE",
"519 379 OFFCURVE",
"519 366 CURVE SMOOTH"
);
}
);
width = 806;
},
{
anchors = (
{
name = top;
position = "{355, 742}";
}
);
background = {
anchors = (
{
name = top;
position = "{355, 742}";
}
);
paths = (
{
closed = 1;
nodes = (
"659 749 LINE",
"654 753 OFFCURVE",
"650 751 OFFCURVE",
"646 746 CURVE",
"571 659 LINE",
"519 720 OFFCURVE",
"446 752 OFFCURVE",
"355 752 CURVE SMOOTH",
"167 752 OFFCURVE",
"53 617 OFFCURVE",
"53 367 CURVE SMOOTH",
"53 266 OFFCURVE",
"72 184 OFFCURVE",
"108 123 CURVE",
"24 26 LINE",
"20 21 OFFCURVE",
"21 18 OFFCURVE",
"28 11 CURVE SMOOTH",
"45 -5 LINE",
"53 -11 OFFCURVE",
"58 -11 OFFCURVE",
"64 -3 CURVE",
"137 81 LINE",
"188 21 OFFCURVE",
"262 -10 OFFCURVE",
"354 -10 CURVE SMOOTH",
"542 -10 OFFCURVE",
"655 122 OFFCURVE",
"655 369 CURVE SMOOTH",
"655 472 OFFCURVE",
"636 555 OFFCURVE",
"600 617 CURVE",
"685 716 LINE",
"688 720 OFFCURVE",
"687 724 OFFCURVE",
"684 727 CURVE"
);
},
{
closed = 1;
nodes = (
"104 597 OFFCURVE",
"190 709 OFFCURVE",
"355 709 CURVE SMOOTH",
"437 709 OFFCURVE",
"499 681 OFFCURVE",
"541 625 CURVE",
"141 161 LINE",
"116 214 OFFCURVE",
"104 283 OFFCURVE",
"104 369 CURVE SMOOTH"
);
},
{
closed = 1;
nodes = (
"604 142 OFFCURVE",
"521 33 OFFCURVE",
"356 33 CURVE SMOOTH",
"273 33 OFFCURVE",
"210 61 OFFCURVE",
"167 117 CURVE",
"567 580 LINE",
"592 526 OFFCURVE",
"604 456 OFFCURVE",
"604 369 CURVE SMOOTH"
);
}
);
};
layerId = "91AB5BCA-6A50-42DA-B2F7-8181BF189245";
paths = (
{
closed = 1;
nodes = (
"659 749 LINE",
"654 753 OFFCURVE",
"650 751 OFFCURVE",
"646 746 CURVE",
"571 659 LINE",
"519 720 OFFCURVE",
"446 752 OFFCURVE",
"355 752 CURVE SMOOTH",
"167 752 OFFCURVE",
"53 617 OFFCURVE",
"53 367 CURVE SMOOTH",
"53 266 OFFCURVE",
"72 184 OFFCURVE",
"108 123 CURVE",
"24 26 LINE",
"20 21 OFFCURVE",
"21 18 OFFCURVE",
"28 11 CURVE SMOOTH",
"45 -5 LINE",
"53 -11 OFFCURVE",
"58 -11 OFFCURVE",
"64 -3 CURVE",
"137 81 LINE",
"188 21 OFFCURVE",
"262 -10 OFFCURVE",
"354 -10 CURVE SMOOTH",
"542 -10 OFFCURVE",
"655 122 OFFCURVE",
"655 369 CURVE SMOOTH",
"655 472 OFFCURVE",
"636 555 OFFCURVE",
"600 617 CURVE",
"685 716 LINE",
"688 720 OFFCURVE",
"687 724 OFFCURVE",
"684 727 CURVE"
);
},
{
closed = 1;
nodes = (
"104 597 OFFCURVE",
"190 709 OFFCURVE",
"355 709 CURVE SMOOTH",
"437 709 OFFCURVE",
"499 681 OFFCURVE",
"541 625 CURVE",
"141 161 LINE",
"116 214 OFFCURVE",
"104 283 OFFCURVE",
"104 369 CURVE SMOOTH"
);
},
{
closed = 1;
nodes = (
"604 142 OFFCURVE",
"521 33 OFFCURVE",
"356 33 CURVE SMOOTH",
"273 33 OFFCURVE",
"210 61 OFFCURVE",
"167 117 CURVE",
"567 580 LINE",
"592 526 OFFCURVE",
"604 456 OFFCURVE",
"604 369 CURVE SMOOTH"
);
}
);
width = 708;
}
);
unicode = 00D8;
},
{
glyphname = OE;
lastChange = "2017-11-28 01:30:53 +0000";
layers = (
{
background = {
paths = (
{
closed = 1;
nodes = (
"737 164 LINE",
"737 292 LINE",
"956 292 LINE",
"956 453 LINE",
"737 453 LINE",
"737 578 LINE",
"1086 578 LINE",
"1087 742 LINE",
"605 742 LINE",
"543 742 LINE",
"508 749 OFFCURVE",
"465 752 OFFCURVE",
"414 752 CURVE SMOOTH",
"173 752 OFFCURVE",
"30 601 OFFCURVE",
"30 369 CURVE SMOOTH",
"30 138 OFFCURVE",
"169 -10 OFFCURVE",
"402 -10 CURVE SMOOTH",
"458 -10 OFFCURVE",
"505 -7 OFFCURVE",
"543 0 CURVE",
"593 0 LINE",
"600 0 OFFCURVE",
"607 0 OFFCURVE",
"614 0 CURVE",
"1072 0 LINE SMOOTH",
"1089 0 OFFCURVE",
"1096 10 OFFCURVE",
"1096 22 CURVE SMOOTH",
"1096 145 LINE SMOOTH",
"1096 159 OFFCURVE",
"1088 164 OFFCURVE",
"1074 164 CURVE SMOOTH"
);
},
{
closed = 1;
nodes = (
"301 146 OFFCURVE",
"268 206 OFFCURVE",
"268 366 CURVE SMOOTH",
"268 531 OFFCURVE",
"303 598 OFFCURVE",
"390 598 CURVE SMOOTH",
"475 598 OFFCURVE",
"510 531 OFFCURVE",
"510 366 CURVE SMOOTH",
"510 206 OFFCURVE",
"477 146 OFFCURVE",
"390 146 CURVE SMOOTH"
);
}
);
};
layerId = "258ED206-D907-4350-8EBA-CBDDA1C16BF7";
paths = (
{
closed = 1;
nodes = (
"742 164 LINE",
"742 292 LINE",
"961 292 LINE",
"961 453 LINE",
"742 453 LINE",
"742 578 LINE",
"1091 578 LINE",
"1092 742 LINE",
"610 742 LINE",
"548 742 LINE",
"513 749 OFFCURVE",
"470 752 OFFCURVE",
"419 752 CURVE SMOOTH",
"178 752 OFFCURVE",
"35 601 OFFCURVE",
"35 369 CURVE SMOOTH",
"35 138 OFFCURVE",
"174 -10 OFFCURVE",
"407 -10 CURVE SMOOTH",
"463 -10 OFFCURVE",
"510 -7 OFFCURVE",
"548 0 CURVE",
"598 0 LINE",
"1101 0 LINE",
"1101 164 LINE"
);
},
{
closed = 1;
nodes = (
"306 146 OFFCURVE",
"273 206 OFFCURVE",
"273 366 CURVE SMOOTH",
"273 531 OFFCURVE",
"308 598 OFFCURVE",
"395 598 CURVE SMOOTH",
"480 598 OFFCURVE",
"515 531 OFFCURVE",
"515 366 CURVE SMOOTH",
"515 206 OFFCURVE",
"482 146 OFFCURVE",
"395 146 CURVE SMOOTH"
);
}
);
width = 1151;
},
{
background = {
paths = (
{
closed = 1;
nodes = (
"674 40 LINE SMOOTH",
"667 40 OFFCURVE",
"665 41 OFFCURVE",
"665 49 CURVE SMOOTH",
"665 346 LINE SMOOTH",
"665 354 OFFCURVE",
"667 355 OFFCURVE",
"674 355 CURVE SMOOTH",
"951 355 LINE SMOOTH",
"957 355 OFFCURVE",
"959 356 OFFCURVE",
"959 362 CURVE SMOOTH",
"959 388 LINE SMOOTH",
"959 393 OFFCURVE",
"957 395 OFFCURVE",
"952 395 CURVE SMOOTH",
"674 395 LINE SMOOTH",
"667 395 OFFCURVE",
"665 396 OFFCURVE",
"665 402 CURVE SMOOTH",
"665 693 LINE SMOOTH",
"665 701 OFFCURVE",
"667 702 OFFCURVE",
"674 702 CURVE SMOOTH",
"1032 702 LINE SMOOTH",
"1038 702 OFFCURVE",
"1040 703 OFFCURVE",
"1040 709 CURVE SMOOTH",
"1040 735 LINE SMOOTH",
"1040 740 OFFCURVE",
"1038 742 OFFCURVE",
"1033 742 CURVE SMOOTH",
"628 742 LINE SMOOTH",
"621 742 OFFCURVE",
"619 740 OFFCURVE",
"619 732 CURVE SMOOTH",
"619 600 LINE",
"569 700 OFFCURVE",
"482 752 OFFCURVE",
"365 752 CURVE SMOOTH",
"177 752 OFFCURVE",
"63 617 OFFCURVE",
"63 367 CURVE SMOOTH",
"63 121 OFFCURVE",
"175 -10 OFFCURVE",
"364 -10 CURVE SMOOTH",
"481 -10 OFFCURVE",
"569 41 OFFCURVE",
"619 140 CURVE",
"619 10 LINE SMOOTH",
"619 2 OFFCURVE",
"621 0 OFFCURVE",
"628 0 CURVE SMOOTH",
"1048 0 LINE SMOOTH",
"1053 0 OFFCURVE",
"1055 2 OFFCURVE",
"1055 7 CURVE SMOOTH",
"1055 33 LINE SMOOTH",
"1055 39 OFFCURVE",
"1053 40 OFFCURVE",
"1047 40 CURVE SMOOTH"
);
},
{
closed = 1;
nodes = (
"200 32 OFFCURVE",
"111 143 OFFCURVE",
"111 369 CURVE SMOOTH",
"111 597 OFFCURVE",
"200 710 OFFCURVE",
"365 710 CURVE SMOOTH",
"529 710 OFFCURVE",
"614 598 OFFCURVE",
"614 369 CURVE SMOOTH",
"614 142 OFFCURVE",
"531 32 OFFCURVE",
"366 32 CURVE SMOOTH"
);
}
);
};
layerId = "91AB5BCA-6A50-42DA-B2F7-8181BF189245";
paths = (
{
closed = 1;
nodes = (
"665 40 LINE",
"665 355 LINE",
"959 355 LINE",
"959 395 LINE",
"665 395 LINE",
"665 702 LINE",
"1040 702 LINE",
"1040 742 LINE",
"619 742 LINE",
"619 600 LINE",
"569 700 OFFCURVE",
"482 752 OFFCURVE",
"365 752 CURVE SMOOTH",
"177 752 OFFCURVE",
"63 617 OFFCURVE",
"63 367 CURVE SMOOTH",
"63 121 OFFCURVE",
"175 -10 OFFCURVE",
"364 -10 CURVE SMOOTH",
"481 -10 OFFCURVE",
"569 41 OFFCURVE",
"619 140 CURVE",
"619 0 LINE",
"1055 0 LINE",
"1055 40 LINE"
);
},
{
closed = 1;
nodes = (
"200 32 OFFCURVE",
"111 143 OFFCURVE",
"111 369 CURVE SMOOTH",
"111 597 OFFCURVE",
"200 710 OFFCURVE",
"365 710 CURVE SMOOTH",
"529 710 OFFCURVE",
"614 598 OFFCURVE",
"614 369 CURVE SMOOTH",
"614 142 OFFCURVE",
"531 32 OFFCURVE",
"366 32 CURVE SMOOTH"
);
}
);
width = 1128;
}
);
leftKerningGroup = O;
leftMetricsKey = O;
rightMetricsKey = E;
unicode = 0152;
},
{
glyphname = P;
lastChange = "2017-11-28 01:30:58 +0000";
layers = (
{
background = {
paths = (
{
closed = 1;
nodes = (
"694 662 OFFCURVE",
"557 742 OFFCURVE",
"393 742 CURVE SMOOTH",
"62 742 LINE SMOOTH",
"50 742 OFFCURVE",
"43 734 OFFCURVE",
"43 719 CURVE SMOOTH",
"43 25 LINE SMOOTH",
"43 8 OFFCURVE",
"49 0 OFFCURVE",
"69 0 CURVE SMOOTH",
"237 0 LINE SMOOTH",
"260 0 OFFCURVE",
"270 8 OFFCURVE",
"270 29 CURVE SMOOTH",
"270 255 LINE SMOOTH",
"270 262 OFFCURVE",
"273 266 OFFCURVE",
"282 266 CURVE SMOOTH",
"419 266 LINE SMOOTH",
"582 266 OFFCURVE",
"694 355 OFFCURVE",
"694 501 CURVE SMOOTH"
);
},
{
closed = 1;
nodes = (
"462 461 OFFCURVE",
"433 426 OFFCURVE",
"385 426 CURVE SMOOTH",
"287 426 LINE SMOOTH",
"274 426 OFFCURVE",
"270 433 OFFCURVE",
"270 448 CURVE SMOOTH",
"270 561 LINE SMOOTH",
"270 576 OFFCURVE",
"276 582 OFFCURVE",
"293 582 CURVE SMOOTH",
"379 582 LINE SMOOTH",
"425 582 OFFCURVE",
"462 552 OFFCURVE",
"462 504 CURVE SMOOTH"
);
}
);
};
layerId = "258ED206-D907-4350-8EBA-CBDDA1C16BF7";
paths = (
{
closed = 1;
nodes = (
"265 0 LINE",
"265 255 LINE",
"384 255 LINE SMOOTH",
"547 255 OFFCURVE",
"649 344 OFFCURVE",
"649 490 CURVE SMOOTH",
"649 651 OFFCURVE",
"522 742 OFFCURVE",
"358 742 CURVE SMOOTH",
"65 742 LINE",
"65 0 LINE"
);
},
{
closed = 1;
nodes = (
"263 594 LINE",
"377 594 LINE SMOOTH",
"422 594 OFFCURVE",
"466 552 OFFCURVE",
"466 500 CURVE SMOOTH",
"466 452 OFFCURVE",
"428 404 OFFCURVE",
"377 404 CURVE SMOOTH",
"263 404 LINE"
);
}
);
width = 664;
},
{
background = {
paths = (
{
closed = 1;
nodes = (
"608 684 OFFCURVE",
"497 742 OFFCURVE",
"342 742 CURVE SMOOTH",
"120 742 LINE SMOOTH",
"113 742 OFFCURVE",
"111 740 OFFCURVE",
"111 732 CURVE SMOOTH",
"111 8 LINE SMOOTH",
"111 3 OFFCURVE",
"114 0 OFFCURVE",
"119 0 CURVE SMOOTH",
"149 0 LINE SMOOTH",
"154 0 OFFCURVE",
"157 3 OFFCURVE",
"157 9 CURVE SMOOTH",
"157 318 LINE SMOOTH",
"157 324 OFFCURVE",
"159 327 OFFCURVE",
"165 327 CURVE SMOOTH",
"348 327 LINE SMOOTH",
"499 327 OFFCURVE",
"608 387 OFFCURVE",
"608 535 CURVE SMOOTH"
);
},
{
closed = 1;
nodes = (
"560 415 OFFCURVE",
"476 367 OFFCURVE",
"348 367 CURVE SMOOTH",
"164 367 LINE SMOOTH",
"159 367 OFFCURVE",
"157 370 OFFCURVE",
"157 377 CURVE SMOOTH",
"157 694 LINE SMOOTH",
"157 700 OFFCURVE",
"160 702 OFFCURVE",
"166 702 CURVE SMOOTH",
"341 702 LINE SMOOTH",
"476 702 OFFCURVE",
"560 662 OFFCURVE",
"560 538 CURVE SMOOTH"
);
}
);
};
layerId = "91AB5BCA-6A50-42DA-B2F7-8181BF189245";
paths = (
{
closed = 1;
nodes = (
"155 0 LINE",
"155 325 LINE",
"346 325 LINE SMOOTH",
"497 325 OFFCURVE",
"606 388 OFFCURVE",
"606 536 CURVE SMOOTH",
"606 685 OFFCURVE",
"495 742 OFFCURVE",
"340 742 CURVE SMOOTH",
"111 742 LINE",
"111 0 LINE"
);
},
{
closed = 1;
nodes = (
"155 698 LINE",
"339 698 LINE SMOOTH",
"474 698 OFFCURVE",
"561 663 OFFCURVE",
"561 539 CURVE SMOOTH",
"561 416 OFFCURVE",
"474 369 OFFCURVE",
"346 369 CURVE SMOOTH",
"155 369 LINE"
);
}
);
width = 636;
}
);
leftMetricsKey = N;
rightKerningGroup = P;
unicode = 0050;
},
{
glyphname = Thorn;
lastChange = "2017-11-28 01:30:58 +0000";
layers = (
{
background = {
paths = (
{
closed = 1;
nodes = (
"724 530 OFFCURVE",
"587 608 OFFCURVE",
"423 608 CURVE SMOOTH",
"297 608 LINE SMOOTH",
"290 608 OFFCURVE",
"287 612 OFFCURVE",
"287 620 CURVE SMOOTH",
"287 721 LINE SMOOTH",
"287 734 OFFCURVE",
"281 742 OFFCURVE",
"269 742 CURVE SMOOTH",
"79 742 LINE SMOOTH",
"68 742 OFFCURVE",
"60 734 OFFCURVE",
"60 719 CURVE SMOOTH",
"60 25 LINE SMOOTH",
"60 8 OFFCURVE",
"66 0 OFFCURVE",
"86 0 CURVE SMOOTH",
"254 0 LINE SMOOTH",
"277 0 OFFCURVE",
"287 8 OFFCURVE",
"287 29 CURVE SMOOTH",
"287 131 LINE SMOOTH",
"287 138 OFFCURVE",
"290 142 OFFCURVE",
"299 142 CURVE SMOOTH",
"449 142 LINE SMOOTH",
"612 142 OFFCURVE",
"724 229 OFFCURVE",
"724 372 CURVE SMOOTH"
);
},
{
closed = 1;
nodes = (
"492 335 OFFCURVE",
"463 302 OFFCURVE",
"415 302 CURVE SMOOTH",
"304 302 LINE SMOOTH",
"291 302 OFFCURVE",
"287 309 OFFCURVE",
"287 324 CURVE SMOOTH",
"287 427 LINE SMOOTH",
"287 442 OFFCURVE",
"293 448 OFFCURVE",
"310 448 CURVE SMOOTH",
"409 448 LINE SMOOTH",
"455 448 OFFCURVE",
"492 420 OFFCURVE",
"492 375 CURVE SMOOTH"
);
}
);
};
layerId = "258ED206-D907-4350-8EBA-CBDDA1C16BF7";
paths = (
{
closed = 1;
nodes = (
"729 530 OFFCURVE",
"592 608 OFFCURVE",
"428 608 CURVE SMOOTH",
"292 608 LINE",
"292 742 LINE",
"65 742 LINE",
"65 0 LINE",
"292 0 LINE",
"292 142 LINE",
"454 142 LINE SMOOTH",
"617 142 OFFCURVE",
"729 229 OFFCURVE",
"729 372 CURVE SMOOTH"
);
},
{
closed = 1;
nodes = (
"497 335 OFFCURVE",
"468 302 OFFCURVE",
"420 302 CURVE SMOOTH",
"292 302 LINE",
"292 448 LINE",
"414 448 LINE SMOOTH",
"460 448 OFFCURVE",
"497 420 OFFCURVE",
"497 375 CURVE SMOOTH"
);
}
);
width = 744;
},
{
background = {
paths = (
{
closed = 1;
nodes = (
"608 522 OFFCURVE",
"498 579 OFFCURVE",
"342 579 CURVE SMOOTH",
"163 579 LINE SMOOTH",
"159 579 OFFCURVE",
"157 581 OFFCURVE",
"157 584 CURVE SMOOTH",
"157 732 LINE SMOOTH",
"157 740 OFFCURVE",
"155 742 OFFCURVE",
"148 742 CURVE SMOOTH",
"120 742 LINE SMOOTH",
"113 742 OFFCURVE",
"111 740 OFFCURVE",
"111 732 CURVE SMOOTH",
"111 8 LINE SMOOTH",
"111 3 OFFCURVE",
"114 0 OFFCURVE",
"119 0 CURVE SMOOTH",
"149 0 LINE SMOOTH",
"154 0 OFFCURVE",
"157 3 OFFCURVE",
"157 9 CURVE SMOOTH",
"157 173 LINE SMOOTH",
"157 179 OFFCURVE",
"159 182 OFFCURVE",
"165 182 CURVE SMOOTH",
"348 182 LINE SMOOTH",
"498 182 OFFCURVE",
"608 239 OFFCURVE",
"608 390 CURVE SMOOTH"
);
},
{
closed = 1;
nodes = (
"560 268 OFFCURVE",
"476 222 OFFCURVE",
"348 222 CURVE SMOOTH",
"164 222 LINE SMOOTH",
"159 222 OFFCURVE",
"157 225 OFFCURVE",
"157 232 CURVE SMOOTH",
"157 531 LINE SMOOTH",
"157 537 OFFCURVE",
"160 539 OFFCURVE",
"166 539 CURVE SMOOTH",
"341 539 LINE SMOOTH",
"476 539 OFFCURVE",
"560 501 OFFCURVE",
"560 390 CURVE SMOOTH"
);
}
);
};
layerId = "91AB5BCA-6A50-42DA-B2F7-8181BF189245";
paths = (
{
closed = 1;
nodes = (
"608 522 OFFCURVE",
"498 579 OFFCURVE",
"342 579 CURVE SMOOTH",
"157 579 LINE",
"157 742 LINE",
"111 742 LINE",
"111 0 LINE",
"157 0 LINE",
"157 182 LINE",
"348 182 LINE SMOOTH",
"498 182 OFFCURVE",
"608 239 OFFCURVE",
"608 390 CURVE SMOOTH"
);
},
{
closed = 1;
nodes = (
"560 268 OFFCURVE",
"476 222 OFFCURVE",
"348 222 CURVE SMOOTH",
"157 222 LINE",
"157 539 LINE",
"341 539 LINE SMOOTH",
"476 539 OFFCURVE",
"560 501 OFFCURVE",
"560 390 CURVE SMOOTH"
);
}
);
width = 638;
}
);
leftMetricsKey = P;
rightMetricsKey = P;
unicode = 00DE;
},
{
glyphname = Q;
lastChange = "2017-11-14 17:50:30 +0000";
layers = (
{
background = {
paths = (
{
closed = 1;
nodes = (
"20 138 OFFCURVE",
"159 -10 OFFCURVE",
"380 -10 CURVE SMOOTH",
"406 -10 OFFCURVE",
"427 -9 OFFCURVE",
"451 -6 CURVE SMOOTH",
"458 -5 OFFCURVE",
"463 -6 OFFCURVE",
"466 -10 CURVE SMOOTH",
"523 -84 OFFCURVE",
"595 -128 OFFCURVE",
"695 -128 CURVE SMOOTH",
"727 -128 OFFCURVE",
"739 -122 OFFCURVE",
"739 -97 CURVE SMOOTH",
"739 13 LINE SMOOTH",
"739 20 OFFCURVE",
"736 28 OFFCURVE",
"722 30 CURVE SMOOTH",
"679 36 OFFCURVE",
"632 61 OFFCURVE",
"632 78 CURVE SMOOTH",
"632 82 OFFCURVE",
"632 84 OFFCURVE",
"634 86 CURVE",
"701 152 OFFCURVE",
"739 249 OFFCURVE",
"739 369 CURVE SMOOTH",
"739 601 OFFCURVE",
"596 752 OFFCURVE",
"380 752 CURVE SMOOTH",
"163 752 OFFCURVE",
"20 601 OFFCURVE",
"20 369 CURVE SMOOTH"
);
},
{
closed = 1;
nodes = (
"258 532 OFFCURVE",
"293 598 OFFCURVE",
"380 598 CURVE SMOOTH",
"466 598 OFFCURVE",
"501 532 OFFCURVE",
"501 367 CURVE SMOOTH",
"501 206 OFFCURVE",
"468 146 OFFCURVE",
"380 146 CURVE SMOOTH",
"291 146 OFFCURVE",
"258 206 OFFCURVE",
"258 367 CURVE SMOOTH"
);
}
);
};
layerId = "258ED206-D907-4350-8EBA-CBDDA1C16BF7";
paths = (
{
closed = 1;
nodes = (
"25 138 OFFCURVE",
"164 -10 OFFCURVE",
"385 -10 CURVE SMOOTH",
"410 -10 OFFCURVE",
"431 -9 OFFCURVE",
"467 -5 CURVE",
"555 -116 OFFCURVE",
"625 -128 OFFCURVE",
"744 -128 CURVE",
"744 28 LINE",
"693 28 OFFCURVE",
"647 53 OFFCURVE",
"639 82 CURVE",
"706 154 OFFCURVE",
"744 249 OFFCURVE",
"744 369 CURVE SMOOTH",
"744 601 OFFCURVE",
"601 752 OFFCURVE",
"385 752 CURVE SMOOTH",
"168 752 OFFCURVE",
"25 601 OFFCURVE",
"25 369 CURVE SMOOTH"
);
},
{
closed = 1;
nodes = (
"243 532 OFFCURVE",
"298 592 OFFCURVE",
"385 592 CURVE SMOOTH",
"471 592 OFFCURVE",
"526 532 OFFCURVE",
"526 367 CURVE SMOOTH",
"526 206 OFFCURVE",
"473 150 OFFCURVE",
"385 150 CURVE SMOOTH",
"296 150 OFFCURVE",
"243 206 OFFCURVE",
"243 367 CURVE SMOOTH"
);
}
);
width = 794;
},
{
background = {
paths = (
{
closed = 1;
nodes = (
"60 116 OFFCURVE",
"177 -10 OFFCURVE",
"361 -10 CURVE SMOOTH",
"387 -10 OFFCURVE",
"417 -7 OFFCURVE",
"442 -1 CURVE SMOOTH",
"449 1 OFFCURVE",
"454 -1 OFFCURVE",
"457 -5 CURVE SMOOTH",
"522 -96 OFFCURVE",
"588 -122 OFFCURVE",
"632 -122 CURVE SMOOTH",
"646 -122 OFFCURVE",
"652 -120 OFFCURVE",
"652 -109 CURVE SMOOTH",
"652 -87 LINE SMOOTH",
"652 -84 OFFCURVE",
"651 -81 OFFCURVE",
"645 -80 CURVE SMOOTH",
"570 -70 OFFCURVE",
"503 -11 OFFCURVE",
"503 16 CURVE SMOOTH",
"503 20 OFFCURVE",
"504 22 OFFCURVE",
"509 25 CURVE SMOOTH",
"606 83 OFFCURVE",
"662 189 OFFCURVE",
"662 369 CURVE SMOOTH",
"662 620 OFFCURVE",
"549 752 OFFCURVE",
"361 752 CURVE SMOOTH",
"173 752 OFFCURVE",
"60 620 OFFCURVE",
"60 369 CURVE SMOOTH"
);
},
{
closed = 1;
nodes = (
"108 592 OFFCURVE",
"194 710 OFFCURVE",
"361 710 CURVE SMOOTH",
"528 710 OFFCURVE",
"614 592 OFFCURVE",
"614 369 CURVE SMOOTH",
"614 141 OFFCURVE",
"525 32 OFFCURVE",
"361 32 CURVE SMOOTH",
"197 32 OFFCURVE",
"108 141 OFFCURVE",
"108 367 CURVE SMOOTH"
);
}
);
};
layerId = "91AB5BCA-6A50-42DA-B2F7-8181BF189245";
paths = (
{
closed = 1;
nodes = (
"60 116 OFFCURVE",
"177 -10 OFFCURVE",
"361 -10 CURVE SMOOTH",
"390 -10 OFFCURVE",
"419 -6 OFFCURVE",
"451 1 CURVE",
"504 -101 OFFCURVE",
"603 -122 OFFCURVE",
"652 -122 CURVE",
"652 -81 LINE",
"587 -78 OFFCURVE",
"529 -51 OFFCURVE",
"495 18 CURVE",
"615 81 OFFCURVE",
"662 199 OFFCURVE",
"662 369 CURVE SMOOTH",
"662 620 OFFCURVE",
"549 752 OFFCURVE",
"361 752 CURVE SMOOTH",
"173 752 OFFCURVE",
"60 620 OFFCURVE",
"60 369 CURVE SMOOTH"
);
},
{
closed = 1;
nodes = (
"105 592 OFFCURVE",
"194 710 OFFCURVE",
"361 710 CURVE SMOOTH",
"528 710 OFFCURVE",
"617 592 OFFCURVE",
"617 369 CURVE SMOOTH",
"617 141 OFFCURVE",
"525 32 OFFCURVE",
"361 32 CURVE SMOOTH",
"197 32 OFFCURVE",
"105 141 OFFCURVE",
"105 367 CURVE SMOOTH"
);
}
);
width = 729;
}
);
leftKerningGroup = O;
rightKerningGroup = O;
unicode = 0051;
},
{
glyphname = R;
lastChange = "2017-11-28 01:30:58 +0000";
layers = (
{
anchors = (
{
name = bottom;
position = "{364, 0}";
},
{
name = top;
position = "{354, 742}";
}
);
background = {
anchors = (
{
name = bottom;
position = "{359, 0}";
},
{
name = top;
position = "{349, 742}";
}
);
paths = (
{
closed = 1;
nodes = (
"566 312 LINE SMOOTH",
"563 320 OFFCURVE",
"563 328 OFFCURVE",
"570 331 CURVE SMOOTH",
"646 360 OFFCURVE",
"701 436 OFFCURVE",
"701 530 CURVE SMOOTH",
"701 664 OFFCURVE",
"589 742 OFFCURVE",
"396 742 CURVE SMOOTH",
"62 742 LINE SMOOTH",
"50 742 OFFCURVE",
"43 734 OFFCURVE",
"43 719 CURVE SMOOTH",
"43 25 LINE SMOOTH",
"43 8 OFFCURVE",
"49 0 OFFCURVE",
"69 0 CURVE SMOOTH",
"237 0 LINE SMOOTH",
"260 0 OFFCURVE",
"270 8 OFFCURVE",
"270 29 CURVE SMOOTH",
"270 284 LINE SMOOTH",
"270 287 OFFCURVE",
"273 295 OFFCURVE",
"282 295 CURVE SMOOTH",
"328 295 LINE SMOOTH",
"347 295 OFFCURVE",
"355 290 OFFCURVE",
"359 279 CURVE SMOOTH",
"453 21 LINE SMOOTH",
"457 7 OFFCURVE",
"466 0 OFFCURVE",
"480 0 CURVE SMOOTH",
"674 0 LINE SMOOTH",
"690 0 OFFCURVE",
"699 15 OFFCURVE",
"692 32 CURVE SMOOTH"
);
},
{
closed = 1;
nodes = (
"287 444 LINE SMOOTH",
"274 444 OFFCURVE",
"270 450 OFFCURVE",
"270 465 CURVE SMOOTH",
"270 574 LINE SMOOTH",
"270 589 OFFCURVE",
"276 594 OFFCURVE",
"293 594 CURVE SMOOTH",
"381 594 LINE SMOOTH",
"426 594 OFFCURVE",
"466 567 OFFCURVE",
"466 516 CURVE SMOOTH",
"466 473 OFFCURVE",
"438 444 OFFCURVE",
"387 444 CURVE SMOOTH"
);
}
);
};
layerId = "258ED206-D907-4350-8EBA-CBDDA1C16BF7";
paths = (
{
closed = 1;
nodes = (
"551 287 LINE",
"620 329 OFFCURVE",
"669 389 OFFCURVE",
"669 503 CURVE SMOOTH",
"669 637 OFFCURVE",
"594 742 OFFCURVE",
"401 742 CURVE SMOOTH",
"65 742 LINE",
"65 0 LINE",
"265 0 LINE",
"265 255 LINE",
"369 255 LINE",
"477 0 LINE",
"681 0 LINE"
);
},
{
closed = 1;
nodes = (
"265 404 LINE",
"265 594 LINE",
"379 594 LINE SMOOTH",
"424 594 OFFCURVE",
"468 552 OFFCURVE",
"468 500 CURVE SMOOTH",
"468 452 OFFCURVE",
"430 404 OFFCURVE",
"379 404 CURVE SMOOTH"
);
}
);
width = 723;
},
{
anchors = (
{
name = bottom;
position = "{332, 0}";
},
{
name = top;
position = "{325, 742}";
}
);
background = {
anchors = (
{
name = bottom;
position = "{332, 0}";
},
{
name = top;
position = "{325, 742}";
}
);
paths = (
{
closed = 1;
nodes = (
"444 359 LINE",
"443 362 OFFCURVE",
"444 365 OFFCURVE",
"448 366 CURVE SMOOTH",
"517 384 OFFCURVE",
"600 435 OFFCURVE",
"600 558 CURVE SMOOTH",
"600 680 OFFCURVE",
"516 742 OFFCURVE",
"372 742 CURVE SMOOTH",
"114 742 LINE SMOOTH",
"107 742 OFFCURVE",
"105 740 OFFCURVE",
"105 732 CURVE SMOOTH",
"105 9 LINE SMOOTH",
"105 3 OFFCURVE",
"107 0 OFFCURVE",
"115 0 CURVE SMOOTH",
"141 0 LINE SMOOTH",
"149 0 OFFCURVE",
"151 3 OFFCURVE",
"151 11 CURVE SMOOTH",
"151 344 LINE SMOOTH",
"151 351 OFFCURVE",
"154 355 OFFCURVE",
"163 355 CURVE SMOOTH",
"379 355 LINE SMOOTH",
"392 355 OFFCURVE",
"397 352 OFFCURVE",
"400 345 CURVE SMOOTH",
"542 9 LINE SMOOTH",
"545 3 OFFCURVE",
"547 0 OFFCURVE",
"554 0 CURVE SMOOTH",
"582 0 LINE SMOOTH",
"589 0 OFFCURVE",
"593 7 OFFCURVE",
"590 14 CURVE SMOOTH"
);
},
{
closed = 1;
nodes = (
"158 395 LINE SMOOTH",
"153 395 OFFCURVE",
"151 398 OFFCURVE",
"151 404 CURVE SMOOTH",
"151 694 LINE SMOOTH",
"151 700 OFFCURVE",
"154 702 OFFCURVE",
"162 702 CURVE SMOOTH",
"371 702 LINE SMOOTH",
"492 702 OFFCURVE",
"552 653 OFFCURVE",
"552 551 CURVE SMOOTH",
"552 439 OFFCURVE",
"480 395 OFFCURVE",
"337 395 CURVE SMOOTH"
);
}
);
};
layerId = "91AB5BCA-6A50-42DA-B2F7-8181BF189245";
paths = (
{
closed = 1;
nodes = (
"442 362 LINE",
"514 381 OFFCURVE",
"600 434 OFFCURVE",
"600 558 CURVE SMOOTH",
"600 680 OFFCURVE",
"516 742 OFFCURVE",
"372 742 CURVE SMOOTH",
"111 742 LINE",
"111 0 LINE",
"151 0 LINE",
"151 353 LINE",
"400 353 LINE",
"550 0 LINE",
"596 0 LINE"
);
},
{
closed = 1;
nodes = (
"151 395 LINE",
"151 700 LINE",
"371 700 LINE SMOOTH",
"492 700 OFFCURVE",
"557 656 OFFCURVE",
"557 551 CURVE SMOOTH",
"557 439 OFFCURVE",
"480 395 OFFCURVE",
"337 395 CURVE SMOOTH"
);
}
);
width = 677;
}
);
leftMetricsKey = N;
rightKerningGroup = R;
unicode = 0052;
},
{
glyphname = S;
lastChange = "2017-11-21 18:02:48 +0000";
layers = (
{
anchors = (
{
name = bottom;
position = "{354, 0}";
},
{
name = top;
position = "{354, 742}";
}
);
background = {
anchors = (
{
name = bottom;
position = "{349, 0}";
},
{
name = top;
position = "{349, 742}";
}
);
paths = (
{
closed = 1;
nodes = (
"502 529 OFFCURVE",
"508 528 OFFCURVE",
"518 535 CURVE SMOOTH",
"627 614 LINE SMOOTH",
"640 624 OFFCURVE",
"633 635 OFFCURVE",
"627 644 CURVE SMOOTH",
"581 709 OFFCURVE",
"468 752 OFFCURVE",
"349 752 CURVE SMOOTH",
"160 752 OFFCURVE",
"41 645 OFFCURVE",
"41 515 CURVE SMOOTH",
"41 410 OFFCURVE",
"117 323 OFFCURVE",
"237 293 CURVE SMOOTH",
"389 256 LINE SMOOTH",
"432 246 OFFCURVE",
"452 226 OFFCURVE",
"452 202 CURVE SMOOTH",
"452 165 OFFCURVE",
"404 144 OFFCURVE",
"331 144 CURVE SMOOTH",
"252 144 OFFCURVE",
"213 167 OFFCURVE",
"169 224 CURVE SMOOTH",
"161 234 OFFCURVE",
"149 238 OFFCURVE",
"131 226 CURVE SMOOTH",
"28 155 LINE SMOOTH",
"14 144 OFFCURVE",
"14 136 OFFCURVE",
"22 122 CURVE SMOOTH",
"69 43 OFFCURVE",
"202 -10 OFFCURVE",
"348 -10 CURVE SMOOTH",
"545 -10 OFFCURVE",
"668 86 OFFCURVE",
"668 234 CURVE SMOOTH",
"668 337 OFFCURVE",
"610 421 OFFCURVE",
"485 452 CURVE SMOOTH",
"319 495 LINE SMOOTH",
"269 507 OFFCURVE",
"255 528 OFFCURVE",
"255 546 CURVE SMOOTH",
"255 571 OFFCURVE",
"282 597 OFFCURVE",
"357 597 CURVE SMOOTH",
"435 597 OFFCURVE",
"464 569 OFFCURVE",
"488 543 CURVE SMOOTH"
);
}
);
};
guideLines = (
{
angle = 214.3236;
position = "{701, 335}";
}
);
layerId = "258ED206-D907-4350-8EBA-CBDDA1C16BF7";
paths = (
{
closed = 1;
nodes = (
"543 -10 OFFCURVE",
"682 84 OFFCURVE",
"682 210 CURVE SMOOTH",
"682 284 OFFCURVE",
"669 417 OFFCURVE",
"453 454 CURVE SMOOTH",
"337 474 LINE SMOOTH",
"273 485 OFFCURVE",
"256 505 OFFCURVE",
"256 538 CURVE SMOOTH",
"256 565 OFFCURVE",
"280 597 OFFCURVE",
"358 597 CURVE SMOOTH",
"428 597 OFFCURVE",
"469 574 OFFCURVE",
"475 517 CURVE",
"677 517 LINE",
"664 639 OFFCURVE",
"535 751 OFFCURVE",
"354 751 CURVE SMOOTH",
"183 751 OFFCURVE",
"41 664 OFFCURVE",
"43 514 CURVE SMOOTH",
"45 388 OFFCURVE",
"122 314 OFFCURVE",
"238 295 CURVE SMOOTH",
"354 276 LINE SMOOTH",
"416 266 OFFCURVE",
"478 255 OFFCURVE",
"478 210 CURVE SMOOTH",
"478 158 OFFCURVE",
"418 143 OFFCURVE",
"356 143 CURVE SMOOTH",
"286 143 OFFCURVE",
"240 173 OFFCURVE",
"229 226 CURVE",
"22 226 LINE",
"35 60 OFFCURVE",
"201 -10 OFFCURVE",
"357 -10 CURVE SMOOTH"
);
}
);
width = 704;
},
{
anchors = (
{
name = bottom;
position = "{325, 0}";
},
{
name = top;
position = "{331, 742}";
}
);
background = {
anchors = (
{
name = bottom;
position = "{335, 0}";
},
{
name = top;
position = "{331, 742}";
}
);
paths = (
{
closed = 1;
nodes = (
"518 620 OFFCURVE",
"520 618 OFFCURVE",
"525 622 CURVE SMOOTH",
"547 642 LINE SMOOTH",
"553 647 OFFCURVE",
"551 652 OFFCURVE",
"547 656 CURVE SMOOTH",
"490 716 OFFCURVE",
"423 752 OFFCURVE",
"330 752 CURVE SMOOTH",
"193 752 OFFCURVE",
"98 681 OFFCURVE",
"98 556 CURVE SMOOTH",
"98 492 OFFCURVE",
"128 421 OFFCURVE",
"236 380 CURVE SMOOTH",
"387 322 LINE SMOOTH",
"496 280 OFFCURVE",
"519 239 OFFCURVE",
"519 180 CURVE SMOOTH",
"519 73 OFFCURVE",
"440 32 OFFCURVE",
"321 32 CURVE SMOOTH",
"214 32 OFFCURVE",
"166 69 OFFCURVE",
"110 141 CURVE SMOOTH",
"105 147 OFFCURVE",
"100 148 OFFCURVE",
"90 141 CURVE SMOOTH",
"79 133 LINE SMOOTH",
"69 126 OFFCURVE",
"68 120 OFFCURVE",
"73 113 CURVE SMOOTH",
"132 29 OFFCURVE",
"210 -10 OFFCURVE",
"321 -10 CURVE SMOOTH",
"472 -10 OFFCURVE",
"565 60 OFFCURVE",
"565 182 CURVE SMOOTH",
"565 266 OFFCURVE",
"522 326 OFFCURVE",
"404 369 CURVE SMOOTH",
"266 419 LINE SMOOTH",
"159 458 OFFCURVE",
"144 518 OFFCURVE",
"144 557 CURVE SMOOTH",
"144 656 OFFCURVE",
"218 710 OFFCURVE",
"327 710 CURVE SMOOTH",
"411 710 OFFCURVE",
"472 674 OFFCURVE",
"512 627 CURVE SMOOTH"
);
}
);
};
layerId = "91AB5BCA-6A50-42DA-B2F7-8181BF189245";
paths = (
{
closed = 1;
nodes = (
"513 -10 OFFCURVE",
"601 77 OFFCURVE",
"601 182 CURVE SMOOTH",
"601 266 OFFCURVE",
"559 336 OFFCURVE",
"442 366 CURVE SMOOTH",
"284 407 LINE SMOOTH",
"167 437 OFFCURVE",
"129 483 OFFCURVE",
"129 547 CURVE SMOOTH",
"129 659 OFFCURVE",
"243 709 OFFCURVE",
"331 709 CURVE SMOOTH",
"432 709 OFFCURVE",
"525 667 OFFCURVE",
"546 546 CURVE",
"587 554 LINE",
"576 656 OFFCURVE",
"502 751 OFFCURVE",
"333 751 CURVE SMOOTH",
"184 751 OFFCURVE",
"85 663 OFFCURVE",
"85 546 CURVE SMOOTH",
"85 457 OFFCURVE",
"147 401 OFFCURVE",
"256 374 CURVE SMOOTH",
"422 333 LINE SMOOTH",
"517 310 OFFCURVE",
"557 258 OFFCURVE",
"557 179 CURVE SMOOTH",
"557 92 OFFCURVE",
"467 30 OFFCURVE",
"337 30 CURVE SMOOTH",
"229 30 OFFCURVE",
"127 80 OFFCURVE",
"105 181 CURVE",
"62 171 LINE",
"84 56 OFFCURVE",
"202 -10 OFFCURVE",
"337 -10 CURVE SMOOTH"
);
}
);
width = 663;
}
);
leftKerningGroup = S;
rightKerningGroup = S;
unicode = 0053;
},
{
glyphname = Schwa;
lastChange = "2017-11-28 01:30:53 +0000";
layers = (
{
background = {
paths = (
{
closed = 1;
nodes = (
"506 431 OFFCURVE",
"499 425 OFFCURVE",
"486 425 CURVE SMOOTH",
"53 425 LINE SMOOTH",
"31 425 OFFCURVE",
"30 414 OFFCURVE",
"30 392 CURVE SMOOTH",
"30 136 OFFCURVE",
"151 -10 OFFCURVE",
"384 -10 CURVE SMOOTH",
"577 -10 OFFCURVE",
"746 158 OFFCURVE",
"746 380 CURVE SMOOTH",
"746 599 OFFCURVE",
"609 752 OFFCURVE",
"387 752 CURVE SMOOTH",
"241 752 OFFCURVE",
"135 689 OFFCURVE",
"73 567 CURVE SMOOTH",
"65 551 OFFCURVE",
"66 542 OFFCURVE",
"78 536 CURVE SMOOTH",
"216 468 LINE SMOOTH",
"233 459 OFFCURVE",
"239 462 OFFCURVE",
"243 469 CURVE SMOOTH",
"289 544 OFFCURVE",
"327 578 OFFCURVE",
"389 578 CURVE SMOOTH",
"487 578 OFFCURVE",
"506 506 OFFCURVE",
"506 447 CURVE SMOOTH"
);
},
{
closed = 1;
nodes = (
"492 192 OFFCURVE",
"463 146 OFFCURVE",
"382 146 CURVE SMOOTH",
"314 146 OFFCURVE",
"273 201 OFFCURVE",
"273 267 CURVE SMOOTH",
"273 282 OFFCURVE",
"278 285 OFFCURVE",
"295 285 CURVE SMOOTH",
"504 284 LINE"
);
}
);
};
layerId = "258ED206-D907-4350-8EBA-CBDDA1C16BF7";
paths = (
{
closed = 1;
nodes = (
"511 431 OFFCURVE",
"504 425 OFFCURVE",
"491 425 CURVE SMOOTH",
"58 425 LINE SMOOTH",
"36 425 OFFCURVE",
"35 414 OFFCURVE",
"35 392 CURVE SMOOTH",
"35 136 OFFCURVE",
"156 -10 OFFCURVE",
"389 -10 CURVE SMOOTH",
"582 -10 OFFCURVE",
"751 158 OFFCURVE",
"751 380 CURVE SMOOTH",
"751 599 OFFCURVE",
"614 752 OFFCURVE",
"392 752 CURVE SMOOTH",
"246 752 OFFCURVE",
"140 689 OFFCURVE",
"78 567 CURVE SMOOTH",
"70 551 OFFCURVE",
"71 542 OFFCURVE",
"83 536 CURVE SMOOTH",
"221 468 LINE SMOOTH",
"238 459 OFFCURVE",
"244 462 OFFCURVE",
"248 469 CURVE SMOOTH",
"294 544 OFFCURVE",
"332 578 OFFCURVE",
"394 578 CURVE SMOOTH",
"492 578 OFFCURVE",
"511 506 OFFCURVE",
"511 447 CURVE SMOOTH"
);
},
{
closed = 1;
nodes = (
"497 192 OFFCURVE",
"468 146 OFFCURVE",
"387 146 CURVE SMOOTH",
"319 146 OFFCURVE",
"278 201 OFFCURVE",
"278 267 CURVE SMOOTH",
"278 282 OFFCURVE",
"283 285 OFFCURVE",
"300 285 CURVE SMOOTH",
"509 284 LINE"
);
}
);
width = 786;
},
{
background = {
paths = (
{
closed = 1;
nodes = (
"612 381 OFFCURVE",
"611 380 OFFCURVE",
"606 380 CURVE SMOOTH",
"71 380 LINE SMOOTH",
"63 380 OFFCURVE",
"63 375 OFFCURVE",
"63 369 CURVE SMOOTH",
"63 174 OFFCURVE",
"129 -10 OFFCURVE",
"364 -10 CURVE SMOOTH",
"593 -10 OFFCURVE",
"664 180 OFFCURVE",
"664 366 CURVE SMOOTH",
"664 531 OFFCURVE",
"614 752 OFFCURVE",
"364 752 CURVE SMOOTH",
"136 752 OFFCURVE",
"92 560 OFFCURVE",
"77 522 CURVE SMOOTH",
"75 517 OFFCURVE",
"74 514 OFFCURVE",
"78 513 CURVE SMOOTH",
"116 500 LINE SMOOTH",
"120 499 OFFCURVE",
"122 498 OFFCURVE",
"123 500 CURVE SMOOTH",
"137 531 OFFCURVE",
"155 709 OFFCURVE",
"364 709 CURVE SMOOTH",
"582 709 OFFCURVE",
"612 504 OFFCURVE",
"612 386 CURVE SMOOTH"
);
},
{
closed = 1;
nodes = (
"609 191 OFFCURVE",
"560 33 OFFCURVE",
"364 33 CURVE SMOOTH",
"167 33 OFFCURVE",
"115 192 OFFCURVE",
"115 332 CURVE SMOOTH",
"115 336 OFFCURVE",
"117 338 OFFCURVE",
"123 338 CURVE SMOOTH",
"612 338 LINE"
);
}
);
};
layerId = "91AB5BCA-6A50-42DA-B2F7-8181BF189245";
paths = (
{
closed = 1;
nodes = (
"612 381 OFFCURVE",
"611 380 OFFCURVE",
"606 380 CURVE SMOOTH",
"71 380 LINE SMOOTH",
"63 380 OFFCURVE",
"63 375 OFFCURVE",
"63 369 CURVE SMOOTH",
"63 174 OFFCURVE",
"129 -10 OFFCURVE",
"364 -10 CURVE SMOOTH",
"593 -10 OFFCURVE",
"664 180 OFFCURVE",
"664 366 CURVE SMOOTH",
"664 531 OFFCURVE",
"614 752 OFFCURVE",
"364 752 CURVE SMOOTH",
"136 752 OFFCURVE",
"92 560 OFFCURVE",
"77 522 CURVE SMOOTH",
"75 517 OFFCURVE",
"74 514 OFFCURVE",
"78 513 CURVE SMOOTH",
"116 500 LINE SMOOTH",
"120 499 OFFCURVE",
"122 498 OFFCURVE",
"123 500 CURVE SMOOTH",
"137 531 OFFCURVE",
"155 709 OFFCURVE",
"364 709 CURVE SMOOTH",
"582 709 OFFCURVE",
"612 504 OFFCURVE",
"612 386 CURVE SMOOTH"
);
},
{
closed = 1;
nodes = (
"609 191 OFFCURVE",
"560 33 OFFCURVE",
"364 33 CURVE SMOOTH",
"167 33 OFFCURVE",
"115 192 OFFCURVE",
"115 332 CURVE SMOOTH",
"115 336 OFFCURVE",
"117 338 OFFCURVE",
"123 338 CURVE SMOOTH",
"612 338 LINE"
);
}
);
width = 727;
}
);
leftMetricsKey = O;
rightMetricsKey = O;
unicode = 018F;
},
{
glyphname = T;
lastChange = "2017-11-14 17:50:30 +0000";
layers = (
{
anchors = (
{
name = bottom;
position = "{330, 0}";
},
{
name = top;
position = "{330, 742}";
}
);
background = {
anchors = (
{
name = bottom;
position = "{329, 0}";
},
{
name = top;
position = "{329, 742}";
}
);
paths = (
{
closed = 1;
nodes = (
"5 586 OFFCURVE",
"14 581 OFFCURVE",
"28 581 CURVE SMOOTH",
"204 581 LINE SMOOTH",
"212 581 OFFCURVE",
"215 577 OFFCURVE",
"215 567 CURVE SMOOTH",
"215 20 LINE SMOOTH",
"215 7 OFFCURVE",
"222 0 OFFCURVE",
"233 0 CURVE SMOOTH",
"423 0 LINE SMOOTH",
"434 0 OFFCURVE",
"442 7 OFFCURVE",
"442 22 CURVE SMOOTH",
"442 571 LINE SMOOTH",
"442 578 OFFCURVE",
"446 581 OFFCURVE",
"454 581 CURVE SMOOTH",
"631 581 LINE SMOOTH",
"644 581 OFFCURVE",
"653 586 OFFCURVE",
"653 600 CURVE SMOOTH",
"653 719 LINE SMOOTH",
"653 732 OFFCURVE",
"645 742 OFFCURVE",
"628 742 CURVE SMOOTH",
"30 742 LINE SMOOTH",
"13 742 OFFCURVE",
"5 732 OFFCURVE",
"5 719 CURVE SMOOTH",
"5 600 LINE SMOOTH"
);
}
);
};
layerId = "258ED206-D907-4350-8EBA-CBDDA1C16BF7";
paths = (
{
closed = 1;
nodes = (
"221 566 LINE",
"221 0 LINE",
"421 0 LINE",
"421 566 LINE",
"633 566 LINE",
"633 742 LINE",
"10 742 LINE",
"10 566 LINE"
);
}
);
width = 643;
},
{
anchors = (
{
name = bottom;
position = "{291, 0}";
},
{
name = top;
position = "{291, 742}";
}
);
background = {
anchors = (
{
name = bottom;
position = "{291, 0}";
},
{
name = top;
position = "{291, 742}";
}
);
paths = (
{
closed = 1;
nodes = (
"15 703 OFFCURVE",
"17 702 OFFCURVE",
"23 702 CURVE SMOOTH",
"257 702 LINE SMOOTH",
"265 702 OFFCURVE",
"267 701 OFFCURVE",
"267 693 CURVE SMOOTH",
"267 10 LINE SMOOTH",
"267 2 OFFCURVE",
"269 0 OFFCURVE",
"277 0 CURVE SMOOTH",
"304 0 LINE SMOOTH",
"311 0 OFFCURVE",
"313 2 OFFCURVE",
"313 10 CURVE SMOOTH",
"313 693 LINE SMOOTH",
"313 701 OFFCURVE",
"315 702 OFFCURVE",
"323 702 CURVE SMOOTH",
"536 702 LINE SMOOTH",
"542 702 OFFCURVE",
"544 703 OFFCURVE",
"544 709 CURVE SMOOTH",
"544 735 LINE SMOOTH",
"544 740 OFFCURVE",
"542 742 OFFCURVE",
"537 742 CURVE SMOOTH",
"22 742 LINE SMOOTH",
"17 742 OFFCURVE",
"15 740 OFFCURVE",
"15 735 CURVE SMOOTH",
"15 709 LINE SMOOTH"
);
}
);
};
layerId = "91AB5BCA-6A50-42DA-B2F7-8181BF189245";
paths = (
{
closed = 1;
nodes = (
"270 700 LINE",
"270 0 LINE",
"310 0 LINE",
"310 700 LINE",
"544 700 LINE",
"544 742 LINE",
"15 742 LINE",
"15 700 LINE"
);
}
);
width = 559;
}
);
leftKerningGroup = T;
rightKerningGroup = T;
unicode = 0054;
},
{
glyphname = Tbar;
lastChange = "2017-11-28 01:30:58 +0000";
layers = (
{
background = {
components = (
{
name = T;
transform = "{1, 0, 0, 1, -10, 0}";
}
);
paths = (
{
closed = 1;
nodes = (
"544 414 OFFCURVE",
"537 422 OFFCURVE",
"526 422 CURVE SMOOTH",
"125 422 LINE SMOOTH",
"113 422 OFFCURVE",
"106 414 OFFCURVE",
"106 399 CURVE SMOOTH",
"106 306 LINE SMOOTH",
"106 289 OFFCURVE",
"112 281 OFFCURVE",
"132 281 CURVE SMOOTH",
"511 281 LINE SMOOTH",
"534 281 OFFCURVE",
"544 289 OFFCURVE",
"544 309 CURVE SMOOTH",
"544 402 LINE SMOOTH"
);
}
);
};
components = (
{
name = T;
}
);
layerId = "258ED206-D907-4350-8EBA-CBDDA1C16BF7";
paths = (
{
closed = 1;
nodes = (
"111 422 LINE",
"111 281 LINE",
"549 281 LINE",
"549 422 LINE"
);
}
);
width = 643;
},
{
background = {
components = (
{
name = T;
transform = "{1, 0, 0, 1, 2, 0}";
}
);
guideLines = (
{
angle = 90;
position = "{177, 188}";
showMeasurement = 1;
}
);
paths = (
{
closed = 1;
nodes = (
"506 399 OFFCURVE",
"504 402 OFFCURVE",
"499 402 CURVE SMOOTH",
"147 402 LINE SMOOTH",
"142 402 OFFCURVE",
"140 399 OFFCURVE",
"140 393 CURVE SMOOTH",
"140 370 LINE SMOOTH",
"140 363 OFFCURVE",
"142 360 OFFCURVE",
"150 360 CURVE SMOOTH",
"493 360 LINE SMOOTH",
"502 360 OFFCURVE",
"506 363 OFFCURVE",
"506 371 CURVE SMOOTH",
"506 394 LINE SMOOTH"
);
}
);
};
components = (
{
name = T;
}
);
guideLines = (
{
angle = 90;
position = "{279, 188}";
showMeasurement = 1;
}
);
layerId = "91AB5BCA-6A50-42DA-B2F7-8181BF189245";
paths = (
{
closed = 1;
nodes = (
"140 402 LINE",
"140 360 LINE",
"506 360 LINE",
"506 402 LINE"
);
}
);
width = 559;
}
);
leftMetricsKey = T;
rightMetricsKey = T;
unicode = 0166;
},
{
glyphname = U;
lastChange = "2017-11-14 17:50:30 +0000";
layers = (
{
anchors = (
{
name = ogonek;
position = "{456, 12}";
},
{
name = top;
position = "{357, 742}";
}
);
background = {
anchors = (
{
name = ogonek;
position = "{467, 10}";
},
{
name = top;
position = "{372, 742}";
}
);
paths = (
{
closed = 1;
nodes = (
"675 721 LINE SMOOTH",
"675 734 OFFCURVE",
"669 742 OFFCURVE",
"657 742 CURVE SMOOTH",
"507 742 LINE SMOOTH",
"495 742 OFFCURVE",
"488 734 OFFCURVE",
"488 719 CURVE SMOOTH",
"488 292 LINE SMOOTH",
"488 181 OFFCURVE",
"434 149 OFFCURVE",
"372 149 CURVE SMOOTH",
"304 149 OFFCURVE",
"262 187 OFFCURVE",
"262 289 CURVE SMOOTH",
"262 721 LINE SMOOTH",
"262 734 OFFCURVE",
"256 742 OFFCURVE",
"244 742 CURVE SMOOTH",
"54 742 LINE SMOOTH",
"43 742 OFFCURVE",
"35 734 OFFCURVE",
"35 719 CURVE SMOOTH",
"35 313 LINE SMOOTH",
"35 104 OFFCURVE",
"116 -10 OFFCURVE",
"355 -10 CURVE SMOOTH",
"546 -10 OFFCURVE",
"675 62 OFFCURVE",
"675 293 CURVE SMOOTH"
);
}
);
};
layerId = "258ED206-D907-4350-8EBA-CBDDA1C16BF7";
paths = (
{
closed = 1;
nodes = (
"695 742 LINE",
"493 742 LINE",
"493 298 LINE SMOOTH",
"493 196 OFFCURVE",
"437 157 OFFCURVE",
"375 157 CURVE SMOOTH",
"313 157 OFFCURVE",
"257 196 OFFCURVE",
"257 298 CURVE SMOOTH",
"257 742 LINE",
"55 742 LINE",
"55 307 LINE SMOOTH",
"55 118 OFFCURVE",
"136 -10 OFFCURVE",
"375 -10 CURVE SMOOTH",
"614 -10 OFFCURVE",
"695 118 OFFCURVE",
"695 307 CURVE SMOOTH"
);
}
);
width = 750;
},
{
anchors = (
{
name = ogonek;
position = "{409, 9}";
},
{
name = top;
position = "{341, 742}";
}
);
background = {
anchors = (
{
name = ogonek;
position = "{409, 9}";
},
{
name = top;
position = "{341, 742}";
}
);
paths = (
{
closed = 1;
nodes = (
"584 733 LINE SMOOTH",
"584 739 OFFCURVE",
"582 742 OFFCURVE",
"576 742 CURVE SMOOTH",
"552 742 LINE SMOOTH",
"546 742 OFFCURVE",
"544 739 OFFCURVE",
"544 733 CURVE SMOOTH",
"544 229 LINE SMOOTH",
"544 97 OFFCURVE",
"477 32 OFFCURVE",
"339 32 CURVE SMOOTH",
"203 32 OFFCURVE",
"136 96 OFFCURVE",
"136 226 CURVE SMOOTH",
"136 732 LINE SMOOTH",
"136 740 OFFCURVE",
"134 742 OFFCURVE",
"126 742 CURVE SMOOTH",
"98 742 LINE SMOOTH",
"92 742 OFFCURVE",
"90 739 OFFCURVE",
"90 731 CURVE SMOOTH",
"90 245 LINE SMOOTH",
"90 71 OFFCURVE",
"169 -10 OFFCURVE",
"337 -10 CURVE SMOOTH",
"503 -10 OFFCURVE",
"584 69 OFFCURVE",
"584 230 CURVE SMOOTH"
);
}
);
};
layerId = "91AB5BCA-6A50-42DA-B2F7-8181BF189245";
paths = (
{
closed = 1;
nodes = (
"584 742 LINE",
"544 742 LINE",
"544 228 LINE SMOOTH",
"544 96 OFFCURVE",
"475 29 OFFCURVE",
"337 29 CURVE SMOOTH",
"201 29 OFFCURVE",
"136 98 OFFCURVE",
"136 228 CURVE SMOOTH",
"136 742 LINE",
"92 742 LINE",
"92 245 LINE SMOOTH",
"92 71 OFFCURVE",
"169 -10 OFFCURVE",
"337 -10 CURVE SMOOTH",
"503 -10 OFFCURVE",
"584 69 OFFCURVE",
"584 230 CURVE SMOOTH"
);
}
);
width = 676;
}
);
leftKerningGroup = U;
rightKerningGroup = U;
unicode = 0055;
},
{
glyphname = V;
lastChange = "2017-11-14 17:50:30 +0000";
layers = (
{
background = {
paths = (
{
closed = 1;
nodes = (
"542 742 LINE SMOOTH",
"530 742 OFFCURVE",
"519 734 OFFCURVE",
"516 721 CURVE SMOOTH",
"391 283 LINE SMOOTH",
"388 273 OFFCURVE",
"384 273 OFFCURVE",
"381 282 CURVE SMOOTH",
"247 721 LINE SMOOTH",
"243 734 OFFCURVE",
"234 742 OFFCURVE",
"222 742 CURVE SMOOTH",
"29 742 LINE SMOOTH",
"13 742 OFFCURVE",
"4 728 OFFCURVE",
"10 713 CURVE SMOOTH",
"242 25 LINE SMOOTH",
"247 8 OFFCURVE",
"259 0 OFFCURVE",
"279 0 CURVE SMOOTH",
"441 0 LINE SMOOTH",
"461 0 OFFCURVE",
"473 8 OFFCURVE",
"478 25 CURVE SMOOTH",
"710 713 LINE SMOOTH",
"715 728 OFFCURVE",
"707 742 OFFCURVE",
"691 742 CURVE SMOOTH"
);
}
);
};
guideLines = (
{
angle = -108.62;
position = "{378, 234}";
}
);
layerId = "258ED206-D907-4350-8EBA-CBDDA1C16BF7";
paths = (
{
closed = 1;
nodes = (
"536 742 LINE",
"365 234 LINE",
"193 742 LINE",
"5 742 LINE",
"255 0 LINE",
"475 0 LINE",
"725 742 LINE"
);
}
);
width = 730;
},
{
background = {
paths = (
{
closed = 1;
nodes = (
"571 742 LINE SMOOTH",
"565 742 OFFCURVE",
"562 740 OFFCURVE",
"560 735 CURVE SMOOTH",
"316 65 LINE SMOOTH",
"311 51 OFFCURVE",
"305 51 OFFCURVE",
"300 64 CURVE SMOOTH",
"63 734 LINE SMOOTH",
"61 740 OFFCURVE",
"58 742 OFFCURVE",
"50 742 CURVE SMOOTH",
"27 742 LINE SMOOTH",
"20 742 OFFCURVE",
"17 738 OFFCURVE",
"19 732 CURVE SMOOTH",
"274 10 LINE SMOOTH",
"276 3 OFFCURVE",
"282 0 OFFCURVE",
"293 0 CURVE SMOOTH",
"325 0 LINE SMOOTH",
"334 0 OFFCURVE",
"338 3 OFFCURVE",
"341 11 CURVE SMOOTH",
"603 733 LINE SMOOTH",
"605 738 OFFCURVE",
"602 742 OFFCURVE",
"596 742 CURVE SMOOTH"
);
}
);
};
layerId = "91AB5BCA-6A50-42DA-B2F7-8181BF189245";
paths = (
{
closed = 1;
nodes = (
"563 742 LINE",
"308 42 LINE",
"60 742 LINE",
"15 742 LINE",
"278 0 LINE",
"337 0 LINE",
"606 742 LINE"
);
}
);
width = 621;
}
);
leftKerningGroup = V;
rightKerningGroup = V;
unicode = 0056;
},
{
glyphname = W;
lastChange = "2017-11-28 01:47:59 +0000";
layers = (
{
anchors = (
{
name = top;
position = "{498, 742}";
}
);
background = {
anchors = (
{
name = top;
position = "{516, 742}";
}
);
paths = (
{
closed = 1;
nodes = (
"896 742 LINE SMOOTH",
"875 742 OFFCURVE",
"867 734 OFFCURVE",
"864 721 CURVE SMOOTH",
"762 339 LINE SMOOTH",
"760 331 OFFCURVE",
"753 333 OFFCURVE",
"751 341 CURVE SMOOTH",
"641 721 LINE SMOOTH",
"637 734 OFFCURVE",
"630 742 OFFCURVE",
"609 742 CURVE SMOOTH",
"469 742 LINE SMOOTH",
"448 742 OFFCURVE",
"440 734 OFFCURVE",
"437 721 CURVE SMOOTH",
"332 346 LINE SMOOTH",
"329 335 OFFCURVE",
"324 335 OFFCURVE",
"320 350 CURVE SMOOTH",
"214 721 LINE SMOOTH",
"210 734 OFFCURVE",
"203 742 OFFCURVE",
"182 742 CURVE SMOOTH",
"17 742 LINE SMOOTH",
"-9 742 OFFCURVE",
"-19 725 OFFCURVE",
"-13 702 CURVE SMOOTH",
"191 25 LINE SMOOTH",
"197 8 OFFCURVE",
"207 0 OFFCURVE",
"227 0 CURVE SMOOTH",
"370 0 LINE SMOOTH",
"391 0 OFFCURVE",
"401 8 OFFCURVE",
"406 25 CURVE SMOOTH",
"509 375 LINE SMOOTH",
"516 395 OFFCURVE",
"521 393 OFFCURVE",
"525 377 CURVE SMOOTH",
"629 25 LINE SMOOTH",
"634 8 OFFCURVE",
"645 0 OFFCURVE",
"665 0 CURVE SMOOTH",
"803 0 LINE SMOOTH",
"823 0 OFFCURVE",
"833 8 OFFCURVE",
"839 25 CURVE SMOOTH",
"1042 702 LINE SMOOTH",
"1048 725 OFFCURVE",
"1038 742 OFFCURVE",
"1012 742 CURVE SMOOTH"
);
}
);
};
guideLines = (
{
angle = -73.94;
position = "{216, 742}";
},
{
angle = 74.3834;
position = "{442, 742}";
}
);
layerId = "258ED206-D907-4350-8EBA-CBDDA1C16BF7";
paths = (
{
closed = 1;
nodes = (
"794 742 LINE",
"683 344 LINE",
"568 742 LINE",
"429 742 LINE",
"318 344 LINE",
"203 742 LINE",
"10 742 LINE",
"234 0 LINE",
"381 0 LINE",
"499 403 LINE",
"616 0 LINE",
"765 0 LINE",
"987 742 LINE"
);
}
);
width = 997;
},
{
anchors = (
{
name = top;
position = "{488, 742}";
}
);
background = {
anchors = (
{
name = top;
position = "{488, 742}";
}
);
guideLines = (
{
position = "{22, 125}";
showMeasurement = 1;
}
);
paths = (
{
closed = 1;
nodes = (
"910 742 LINE SMOOTH",
"904 742 OFFCURVE",
"899 740 OFFCURVE",
"898 735 CURVE SMOOTH",
"709 72 LINE SMOOTH",
"705 58 OFFCURVE",
"701 58 OFFCURVE",
"697 71 CURVE SMOOTH",
"512 734 LINE SMOOTH",
"510 740 OFFCURVE",
"508 742 OFFCURVE",
"500 742 CURVE SMOOTH",
"475 742 LINE SMOOTH",
"466 742 OFFCURVE",
"463 738 OFFCURVE",
"462 735 CURVE SMOOTH",
"273 72 LINE SMOOTH",
"269 58 OFFCURVE",
"265 58 OFFCURVE",
"261 71 CURVE SMOOTH",
"76 734 LINE SMOOTH",
"74 740 OFFCURVE",
"72 742 OFFCURVE",
"64 742 CURVE SMOOTH",
"39 742 LINE SMOOTH",
"32 742 OFFCURVE",
"29 738 OFFCURVE",
"31 732 CURVE SMOOTH",
"233 10 LINE SMOOTH",
"235 3 OFFCURVE",
"241 0 OFFCURVE",
"251 0 CURVE SMOOTH",
"283 0 LINE SMOOTH",
"293 0 OFFCURVE",
"297 3 OFFCURVE",
"299 11 CURVE SMOOTH",
"484 658 LINE SMOOTH",
"485 662 OFFCURVE",
"487 662 OFFCURVE",
"488 658 CURVE SMOOTH",
"669 10 LINE SMOOTH",
"671 3 OFFCURVE",
"677 0 OFFCURVE",
"687 0 CURVE SMOOTH",
"719 0 LINE SMOOTH",
"729 0 OFFCURVE",
"733 3 OFFCURVE",
"735 11 CURVE SMOOTH",
"942 733 LINE SMOOTH",
"943 738 OFFCURVE",
"941 742 OFFCURVE",
"935 742 CURVE SMOOTH"
);
}
);
};
guideLines = (
{
position = "{124, 125}";
showMeasurement = 1;
}
);
layerId = "91AB5BCA-6A50-42DA-B2F7-8181BF189245";
paths = (
{
closed = 1;
nodes = (
"892 742 LINE",
"695 50 LINE",
"502 742 LINE",
"462 742 LINE",
"265 50 LINE",
"75 742 LINE",
"30 742 LINE",
"238 0 LINE",
"291 0 LINE",
"481 665 LINE",
"667 0 LINE",
"723 0 LINE",
"936 742 LINE"
);
}
);
width = 966;
}
);
leftKerningGroup = W;
rightKerningGroup = W;
unicode = 0057;
},
{
glyphname = X;
lastChange = "2017-11-14 17:50:30 +0000";
layers = (
{
background = {
paths = (
{
closed = 1;
nodes = (
"489 403 LINE",
"711 742 LINE",
"494 742 LINE",
"380 541 LINE",
"266 742 LINE",
"11 742 LINE",
"247 374 LINE",
"38 51 LINE SMOOTH",
"12 11 OFFCURVE",
"23 0 OFFCURVE",
"51 0 CURVE SMOOTH",
"225 0 LINE",
"358 233 LINE",
"494 0 LINE",
"704 0 LINE SMOOTH",
"732 0 OFFCURVE",
"743 12 OFFCURVE",
"718 51 CURVE SMOOTH"
);
}
);
};
layerId = "258ED206-D907-4350-8EBA-CBDDA1C16BF7";
paths = (
{
closed = 1;
nodes = (
"480 403 LINE",
"702 742 LINE",
"492 742 LINE",
"378 541 LINE",
"264 742 LINE",
"16 742 LINE",
"252 374 LINE",
"10 0 LINE",
"223 0 LINE",
"356 233 LINE",
"492 0 LINE",
"742 0 LINE"
);
}
);
width = 752;
},
{
background = {
guideLines = (
{
angle = 90;
position = "{42, 437}";
},
{
angle = 90;
position = "{553, 372}";
},
{
position = "{8, 716}";
showMeasurement = 1;
},
{
position = "{2, 32}";
showMeasurement = 1;
},
{
position = "{72, 454}";
showMeasurement = 1;
},
{
position = "{70, 290}";
showMeasurement = 1;
},
{
angle = 236.602;
position = "{285, 374}";
},
{
angle = 123.344;
position = "{342, 374}";
},
{
angle = 56.5817;
position = "{330, 370}";
},
{
angle = 123.4;
position = "{295, 370}";
}
);
paths = (
{
closed = 1;
nodes = (
"344 374 LINE SMOOTH",
"340 380 OFFCURVE",
"341 384 OFFCURVE",
"345 390 CURVE SMOOTH",
"579 736 LINE SMOOTH",
"581 739 OFFCURVE",
"581 742 OFFCURVE",
"577 742 CURVE SMOOTH",
"536 742 LINE SMOOTH",
"532 742 OFFCURVE",
"530 741 OFFCURVE",
"528 738 CURVE SMOOTH",
"321 431 LINE SMOOTH",
"314 421 OFFCURVE",
"310 422 OFFCURVE",
"304 430 CURVE SMOOTH",
"97 738 LINE SMOOTH",
"95 741 OFFCURVE",
"94 742 OFFCURVE",
"88 742 CURVE SMOOTH",
"49 742 LINE SMOOTH",
"45 742 OFFCURVE",
"44 737 OFFCURVE",
"46 734 CURVE SMOOTH",
"278 391 LINE SMOOTH",
"283 383 OFFCURVE",
"284 377 OFFCURVE",
"279 370 CURVE SMOOTH",
"37 10 LINE SMOOTH",
"32 2 OFFCURVE",
"34 0 OFFCURVE",
"40 0 CURVE SMOOTH",
"76 0 LINE SMOOTH",
"79 0 OFFCURVE",
"82 1 OFFCURVE",
"84 4 CURVE SMOOTH",
"301 324 LINE SMOOTH",
"311 339 OFFCURVE",
"315 338 OFFCURVE",
"322 327 CURVE SMOOTH",
"542 4 LINE SMOOTH",
"544 1 OFFCURVE",
"545 0 OFFCURVE",
"549 0 CURVE SMOOTH",
"585 0 LINE SMOOTH",
"591 0 OFFCURVE",
"595 2 OFFCURVE",
"589 10 CURVE SMOOTH"
);
}
);
};
guideLines = (
{
angle = 90;
position = "{144, 437}";
},
{
angle = 90;
position = "{655, 372}";
},
{
position = "{110, 716}";
showMeasurement = 1;
},
{
position = "{104, 32}";
showMeasurement = 1;
},
{
position = "{174, 454}";
showMeasurement = 1;
},
{
position = "{172, 290}";
showMeasurement = 1;
},
{
angle = 236.602;
position = "{387, 374}";
},
{
angle = 123.344;
position = "{444, 374}";
},
{
angle = 56.5817;
position = "{432, 370}";
},
{
angle = 123.4;
position = "{397, 370}";
}
);
layerId = "91AB5BCA-6A50-42DA-B2F7-8181BF189245";
paths = (
{
closed = 1;
nodes = (
"339 381 LINE",
"583 742 LINE",
"531 742 LINE",
"312 418 LINE",
"94 742 LINE",
"41 742 LINE",
"286 380 LINE",
"30 0 LINE",
"81 0 LINE",
"313 341 LINE",
"545 0 LINE",
"596 0 LINE"
);
}
);
width = 626;
}
);
leftKerningGroup = X;
rightKerningGroup = X;
unicode = 0058;
},
{
glyphname = Y;
lastChange = "2017-11-14 17:50:30 +0000";
layers = (
{
anchors = (
{
name = top;
position = "{387, 742}";
}
);
background = {
anchors = (
{
name = top;
position = "{382, 742}";
}
);
paths = (
{
closed = 1;
nodes = (
"555 742 LINE SMOOTH",
"536 742 OFFCURVE",
"529 738 OFFCURVE",
"521 721 CURVE SMOOTH",
"400 498 LINE SMOOTH",
"393 486 OFFCURVE",
"389 487 OFFCURVE",
"383 499 CURVE SMOOTH",
"260 721 LINE SMOOTH",
"251 737 OFFCURVE",
"246 742 OFFCURVE",
"226 742 CURVE SMOOTH",
"25 742 LINE SMOOTH",
"4 742 OFFCURVE",
"-3 730 OFFCURVE",
"7 714 CURVE SMOOTH",
"241 332 LINE SMOOTH",
"250 317 OFFCURVE",
"255 309 OFFCURVE",
"255 288 CURVE SMOOTH",
"255 25 LINE SMOOTH",
"255 8 OFFCURVE",
"261 0 OFFCURVE",
"281 0 CURVE SMOOTH",
"449 0 LINE SMOOTH",
"472 0 OFFCURVE",
"482 8 OFFCURVE",
"482 29 CURVE SMOOTH",
"482 275 LINE SMOOTH",
"482 317 OFFCURVE",
"483 327 OFFCURVE",
"492 341 CURVE SMOOTH",
"726 719 LINE SMOOTH",
"734 732 OFFCURVE",
"729 742 OFFCURVE",
"712 742 CURVE SMOOTH"
);
}
);
};
guideLines = (
{
angle = 58.823;
position = "{520, 742}";
}
);
layerId = "258ED206-D907-4350-8EBA-CBDDA1C16BF7";
paths = (
{
closed = 1;
nodes = (
"507 742 LINE",
"361 478 LINE",
"214 742 LINE",
"-1 742 LINE",
"261 309 LINE",
"261 0 LINE",
"461 0 LINE",
"461 309 LINE",
"724 742 LINE"
);
}
);
width = 724;
},
{
anchors = (
{
name = top;
position = "{273, 742}";
}
);
background = {
anchors = (
{
name = top;
position = "{273, 742}";
}
);
paths = (
{
closed = 1;
nodes = (
"515 742 LINE SMOOTH",
"506 742 OFFCURVE",
"504 741 OFFCURVE",
"499 733 CURVE SMOOTH",
"290 374 LINE SMOOTH",
"282 361 OFFCURVE",
"275 360 OFFCURVE",
"266 376 CURVE SMOOTH",
"56 733 LINE SMOOTH",
"52 740 OFFCURVE",
"49 742 OFFCURVE",
"40 742 CURVE SMOOTH",
"17 742 LINE SMOOTH",
"7 742 OFFCURVE",
"5 737 OFFCURVE",
"9 730 CURVE SMOOTH",
"253 315 LINE SMOOTH",
"257 308 OFFCURVE",
"258 305 OFFCURVE",
"258 295 CURVE SMOOTH",
"258 11 LINE SMOOTH",
"258 4 OFFCURVE",
"261 0 OFFCURVE",
"270 0 CURVE SMOOTH",
"289 0 LINE SMOOTH",
"300 0 OFFCURVE",
"304 4 OFFCURVE",
"304 13 CURVE SMOOTH",
"304 306 LINE SMOOTH",
"304 316 OFFCURVE",
"304 320 OFFCURVE",
"308 326 CURVE SMOOTH",
"547 731 LINE SMOOTH",
"551 737 OFFCURVE",
"548 742 OFFCURVE",
"541 742 CURVE SMOOTH"
);
}
);
};
guideLines = (
{
angle = 239.8907;
position = "{276, 362}";
},
{
angle = -59.5603;
position = "{236, 353}";
}
);
layerId = "91AB5BCA-6A50-42DA-B2F7-8181BF189245";
paths = (
{
closed = 1;
nodes = (
"498 742 LINE",
"279 360 LINE",
"55 742 LINE",
"10 742 LINE",
"258 320 LINE",
"258 0 LINE",
"298 0 LINE",
"298 319 LINE",
"543 742 LINE"
);
}
);
width = 553;
}
);
leftKerningGroup = Y;
rightKerningGroup = Y;
unicode = 0059;
},
{
glyphname = Z;
lastChange = "2017-11-14 17:50:30 +0000";
layers = (
{
anchors = (
{
name = bottom;
position = "{361, 0}";
},
{
name = top;
position = "{385, 742}";
}
);
background = {
anchors = (
{
name = bottom;
position = "{356, 0}";
},
{
name = top;
position = "{380, 742}";
}
);
paths = (
{
closed = 1;
nodes = (
"686 0 LINE",
"686 166 LINE",
"345 166 LINE",
"692 654 LINE",
"692 742 LINE",
"68 742 LINE",
"68 577 LINE",
"375 577 LINE",
"35 91 LINE",
"35 0 LINE"
);
}
);
};
layerId = "258ED206-D907-4350-8EBA-CBDDA1C16BF7";
paths = (
{
closed = 1;
nodes = (
"671 0 LINE",
"671 166 LINE",
"320 166 LINE",
"677 654 LINE",
"677 742 LINE",
"73 742 LINE",
"73 577 LINE",
"390 577 LINE",
"40 91 LINE",
"40 0 LINE"
);
}
);
width = 707;
},
{
anchors = (
{
name = bottom;
position = "{307, 0}";
},
{
name = top;
position = "{300, 742}";
}
);
background = {
anchors = (
{
name = bottom;
position = "{307, 0}";
},
{
name = top;
position = "{300, 742}";
}
);
paths = (
{
closed = 1;
nodes = (
"539 0 LINE",
"539 40 LINE",
"105 40 LINE",
"539 715 LINE",
"539 742 LINE",
"60 742 LINE",
"60 702 LINE",
"481 702 LINE",
"50 28 LINE",
"50 0 LINE"
);
}
);
};
guideLines = (
{
angle = 237.1304;
position = "{533, 711}";
}
);
layerId = "91AB5BCA-6A50-42DA-B2F7-8181BF189245";
paths = (
{
closed = 1;
nodes = (
"539 0 LINE",
"539 40 LINE",
"101 40 LINE",
"539 711 LINE",
"539 742 LINE",
"60 742 LINE",
"60 702 LINE",
"486 702 LINE",
"50 32 LINE",
"50 0 LINE"
);
}
);
width = 589;
}
);
leftKerningGroup = Z;
rightKerningGroup = Z;
unicode = 005A;
},
{
glyphname = a;
lastChange = "2017-11-28 01:36:51 +0000";
layers = (
{
anchors = (
{
name = ogonek;
position = "{509, 10}";
},
{
name = top;
position = "{297, 530}";
}
);
background = {
anchors = (
{
name = ogonek;
position = "{504, 10}";
},
{
name = top;
position = "{292, 530}";
}
);
guideLines = (
{
angle = 90;
position = "{342, 102}";
}
);
paths = (
{
closed = 1;
nodes = (
"335 56 OFFCURVE",
"343 55 OFFCURVE",
"345 42 CURVE SMOOTH",
"346 35 LINE SMOOTH",
"349 16 OFFCURVE",
"354 0 OFFCURVE",
"372 0 CURVE SMOOTH",
"509 0 LINE SMOOTH",
"528 0 OFFCURVE",
"532 7 OFFCURVE",
"532 27 CURVE SMOOTH",
"532 375 LINE SMOOTH",
"532 473 OFFCURVE",
"477 540 OFFCURVE",
"292 540 CURVE SMOOTH",
"161 540 OFFCURVE",
"70 506 OFFCURVE",
"40 421 CURVE SMOOTH",
"31 396 OFFCURVE",
"37 391 OFFCURVE",
"47 389 CURVE SMOOTH",
"178 363 LINE SMOOTH",
"196 360 OFFCURVE",
"200 363 OFFCURVE",
"205 374 CURVE SMOOTH",
"222 411 OFFCURVE",
"255 421 OFFCURVE",
"283 421 CURVE SMOOTH",
"323 421 OFFCURVE",
"342 400 OFFCURVE",
"342 363 CURVE SMOOTH",
"342 346 LINE SMOOTH",
"342 334 OFFCURVE",
"332 332 OFFCURVE",
"327 332 CURVE SMOOTH",
"320 332 LINE SMOOTH",
"131 332 OFFCURVE",
"13 253 OFFCURVE",
"13 136 CURVE SMOOTH",
"13 53 OFFCURVE",
"73 -10 OFFCURVE",
"173 -10 CURVE SMOOTH",
"235 -10 OFFCURVE",
"282 12 OFFCURVE",
"318 42 CURVE SMOOTH"
);
},
{
closed = 1;
nodes = (
"342 171 LINE SMOOTH",
"342 156 OFFCURVE",
"331 145 OFFCURVE",
"319 135 CURVE SMOOTH",
"308 126 OFFCURVE",
"290 116 OFFCURVE",
"264 116 CURVE SMOOTH",
"228 116 OFFCURVE",
"207 135 OFFCURVE",
"207 163 CURVE SMOOTH",
"207 219 OFFCURVE",
"291 242 OFFCURVE",
"323 242 CURVE SMOOTH",
"327 242 LINE SMOOTH",
"339 242 OFFCURVE",
"342 236 OFFCURVE",
"342 224 CURVE SMOOTH"
);
}
);
};
guideLines = (
{
angle = 270;
position = "{355, 102}";
}
);
layerId = "258ED206-D907-4350-8EBA-CBDDA1C16BF7";
paths = (
{
closed = 1;
nodes = (
"279 -10 OFFCURVE",
"335 21 OFFCURVE",
"357 62 CURVE",
"372 0 LINE",
"537 0 LINE",
"537 375 LINE SMOOTH",
"537 473 OFFCURVE",
"482 540 OFFCURVE",
"297 540 CURVE SMOOTH",
"161 540 OFFCURVE",
"50 490 OFFCURVE",
"44 365 CURVE",
"206 365 LINE",
"223 401 OFFCURVE",
"261 410 OFFCURVE",
"288 411 CURVE SMOOTH",
"328 412 OFFCURVE",
"347 397 OFFCURVE",
"347 363 CURVE SMOOTH",
"347 341 LINE",
"306 341 LINE SMOOTH",
"113 341 OFFCURVE",
"24 274 OFFCURVE",
"24 159 CURVE SMOOTH",
"24 49 OFFCURVE",
"107 -10 OFFCURVE",
"207 -10 CURVE SMOOTH"
);
},
{
closed = 1;
nodes = (
"243 116 OFFCURVE",
"211 139 OFFCURVE",
"211 179 CURVE SMOOTH",
"211 232 OFFCURVE",
"283 242 OFFCURVE",
"315 242 CURVE SMOOTH",
"347 242 LINE",
"347 179 LINE",
"346 146 OFFCURVE",
"316 116 OFFCURVE",
"277 116 CURVE SMOOTH"
);
}
);
width = 592;
},
{
anchors = (
{
name = ogonek;
position = "{463, 14}";
},
{
name = top;
position = "{278, 530}";
}
);
background = {
anchors = (
{
name = ogonek;
position = "{463, 14}";
},
{
name = top;
position = "{278, 530}";
}
);
paths = (
{
closed = 1;
nodes = (
"425 78 OFFCURVE",
"429 77 OFFCURVE",
"430 70 CURVE SMOOTH",
"432 9 LINE SMOOTH",
"432 2 OFFCURVE",
"435 0 OFFCURVE",
"441 0 CURVE SMOOTH",
"459 0 LINE SMOOTH",
"465 0 OFFCURVE",
"469 2 OFFCURVE",
"469 10 CURVE SMOOTH",
"469 367 LINE SMOOTH",
"469 475 OFFCURVE",
"395 540 OFFCURVE",
"282 540 CURVE SMOOTH",
"187 540 OFFCURVE",
"120 493 OFFCURVE",
"78 431 CURVE SMOOTH",
"74 426 OFFCURVE",
"75 423 OFFCURVE",
"78 421 CURVE SMOOTH",
"102 406 LINE SMOOTH",
"106 403 OFFCURVE",
"108 405 OFFCURVE",
"112 410 CURVE SMOOTH",
"157 470 OFFCURVE",
"211 502 OFFCURVE",
"280 502 CURVE SMOOTH",
"370 502 OFFCURVE",
"429 448 OFFCURVE",
"429 363 CURVE SMOOTH",
"429 332 LINE SMOOTH",
"429 323 OFFCURVE",
"423 318 OFFCURVE",
"412 317 CURVE SMOOTH",
"307 308 LINE SMOOTH",
"143 294 OFFCURVE",
"60 236 OFFCURVE",
"60 135 CURVE SMOOTH",
"60 45 OFFCURVE",
"125 -10 OFFCURVE",
"230 -10 CURVE SMOOTH",
"304 -10 OFFCURVE",
"365 17 OFFCURVE",
"420 72 CURVE SMOOTH"
);
},
{
closed = 1;
nodes = (
"429 171 LINE SMOOTH",
"429 141 OFFCURVE",
"409 107 OFFCURVE",
"372 77 CURVE SMOOTH",
"334 47 OFFCURVE",
"285 28 OFFCURVE",
"236 28 CURVE SMOOTH",
"155 28 OFFCURVE",
"102 69 OFFCURVE",
"102 138 CURVE SMOOTH",
"102 215 OFFCURVE",
"169 261 OFFCURVE",
"326 273 CURVE SMOOTH",
"415 280 LINE SMOOTH",
"424 281 OFFCURVE",
"429 277 OFFCURVE",
"429 266 CURVE SMOOTH"
);
}
);
};
hints = (
{
horizontal = 1;
place = "{4139, 202}";
}
);
layerId = "91AB5BCA-6A50-42DA-B2F7-8181BF189245";
paths = (
{
closed = 1;
nodes = (
"308 -10 OFFCURVE",
"372 20 OFFCURVE",
"430 82 CURVE",
"432 0 LINE",
"469 0 LINE",
"469 367 LINE SMOOTH",
"469 475 OFFCURVE",
"395 540 OFFCURVE",
"282 540 CURVE SMOOTH",
"185 540 OFFCURVE",
"116 490 OFFCURVE",
"73 424 CURVE",
"107 403 LINE",
"153 468 OFFCURVE",
"209 502 OFFCURVE",
"280 502 CURVE SMOOTH",
"370 502 OFFCURVE",
"429 448 OFFCURVE",
"429 363 CURVE SMOOTH",
"429 318 LINE",
"307 308 LINE SMOOTH",
"130 293 OFFCURVE",
"60 254 OFFCURVE",
"60 135 CURVE SMOOTH",
"60 45 OFFCURVE",
"125 -10 OFFCURVE",
"230 -10 CURVE SMOOTH"
);
},
{
closed = 1;
nodes = (
"155 28 OFFCURVE",
"102 69 OFFCURVE",
"102 138 CURVE SMOOTH",
"102 231 OFFCURVE",
"157 260 OFFCURVE",
"326 273 CURVE SMOOTH",
"429 281 LINE",
"429 171 LINE SMOOTH",
"429 99 OFFCURVE",
"324 28 OFFCURVE",
"236 28 CURVE SMOOTH"
);
}
);
width = 561;
}
);
leftKerningGroup = a;
rightMetricsKey = n;
unicode = 0061;
},
{
glyphname = ae;
lastChange = "2017-11-14 17:50:30 +0000";
layers = (
{
anchors = (
{
name = top;
position = "{462, 530}";
}
);
background = {
anchors = (
{
name = top;
position = "{457, 530}";
}
);
paths = (
{
closed = 1;
nodes = (
"879 229 LINE SMOOTH",
"896 230 OFFCURVE",
"897 237 OFFCURVE",
"897 254 CURVE SMOOTH",
"897 435 OFFCURVE",
"782 540 OFFCURVE",
"625 540 CURVE SMOOTH",
"573 540 OFFCURVE",
"523 526 OFFCURVE",
"480 500 CURVE",
"442 525 OFFCURVE",
"383 539 OFFCURVE",
"294 540 CURVE SMOOTH",
"141 540 OFFCURVE",
"84 499 OFFCURVE",
"46 421 CURVE SMOOTH",
"41 410 OFFCURVE",
"44 391 OFFCURVE",
"53 389 CURVE SMOOTH",
"184 363 LINE SMOOTH",
"202 360 OFFCURVE",
"206 361 OFFCURVE",
"211 374 CURVE",
"228 411 OFFCURVE",
"261 421 OFFCURVE",
"289 421 CURVE SMOOTH",
"329 421 OFFCURVE",
"348 400 OFFCURVE",
"348 363 CURVE SMOOTH",
"348 346 LINE SMOOTH",
"348 334 OFFCURVE",
"338 332 OFFCURVE",
"330 332 CURVE",
"307 331 LINE SMOOTH",
"115 322 OFFCURVE",
"19 250 OFFCURVE",
"19 143 CURVE SMOOTH",
"19 52 OFFCURVE",
"79 -10 OFFCURVE",
"192 -10 CURVE SMOOTH",
"284 -10 OFFCURVE",
"349 12 OFFCURVE",
"410 71 CURVE SMOOTH",
"414 75 OFFCURVE",
"417 75 OFFCURVE",
"421 71 CURVE SMOOTH",
"471 20 OFFCURVE",
"545 -10 OFFCURVE",
"629 -10 CURVE SMOOTH",
"741 -10 OFFCURVE",
"809 17 OFFCURVE",
"881 118 CURVE",
"890 129 OFFCURVE",
"887 138 OFFCURVE",
"877 142 CURVE SMOOTH",
"786 179 LINE SMOOTH",
"773 184 OFFCURVE",
"770 183 OFFCURVE",
"765 178 CURVE SMOOTH",
"721 135 OFFCURVE",
"690 122 OFFCURVE",
"656 122 CURVE SMOOTH",
"598 122 OFFCURVE",
"553 151 OFFCURVE",
"553 212 CURVE SMOOTH",
"553 224 OFFCURVE",
"558 229 OFFCURVE",
"568 229 CURVE SMOOTH"
);
},
{
closed = 1;
nodes = (
"684 423 OFFCURVE",
"703 372 OFFCURVE",
"703 346 CURVE SMOOTH",
"703 334 OFFCURVE",
"699 332 OFFCURVE",
"686 332 CURVE SMOOTH",
"556 333 LINE",
"555 395 OFFCURVE",
"593 423 OFFCURVE",
"634 423 CURVE SMOOTH"
);
},
{
closed = 1;
nodes = (
"348 160 LINE SMOOTH",
"348 127 OFFCURVE",
"311 108 OFFCURVE",
"273 108 CURVE SMOOTH",
"234 108 OFFCURVE",
"213 127 OFFCURVE",
"213 156 CURVE SMOOTH",
"213 205 OFFCURVE",
"278 230 OFFCURVE",
"316 233 CURVE SMOOTH",
"330 234 LINE SMOOTH",
"342 234 OFFCURVE",
"348 228 OFFCURVE",
"348 216 CURVE SMOOTH"
);
}
);
};
layerId = "258ED206-D907-4350-8EBA-CBDDA1C16BF7";
paths = (
{
closed = 1;
nodes = (
"902 229 LINE",
"902 426 OFFCURVE",
"787 540 OFFCURVE",
"630 540 CURVE SMOOTH",
"578 540 OFFCURVE",
"528 526 OFFCURVE",
"485 500 CURVE",
"447 525 OFFCURVE",
"388 539 OFFCURVE",
"299 540 CURVE SMOOTH",
"138 540 OFFCURVE",
"77 489 OFFCURVE",
"37 393 CURVE",
"209 359 LINE",
"228 408 OFFCURVE",
"264 421 OFFCURVE",
"294 421 CURVE SMOOTH",
"334 421 OFFCURVE",
"353 400 OFFCURVE",
"353 363 CURVE SMOOTH",
"353 333 LINE",
"312 331 LINE SMOOTH",
"120 322 OFFCURVE",
"24 250 OFFCURVE",
"24 143 CURVE SMOOTH",
"24 52 OFFCURVE",
"84 -10 OFFCURVE",
"197 -10 CURVE SMOOTH",
"289 -10 OFFCURVE",
"354 12 OFFCURVE",
"415 71 CURVE SMOOTH",
"419 75 OFFCURVE",
"422 75 OFFCURVE",
"426 71 CURVE SMOOTH",
"476 20 OFFCURVE",
"550 -10 OFFCURVE",
"634 -10 CURVE SMOOTH",
"751 -10 OFFCURVE",
"823 21 OFFCURVE",
"898 135 CURVE",
"777 185 LINE",
"730 137 OFFCURVE",
"697 122 OFFCURVE",
"661 122 CURVE SMOOTH",
"603 122 OFFCURVE",
"558 156 OFFCURVE",
"558 229 CURVE"
);
},
{
closed = 1;
nodes = (
"689 423 OFFCURVE",
"708 363 OFFCURVE",
"708 332 CURVE",
"561 333 LINE",
"560 395 OFFCURVE",
"598 423 OFFCURVE",
"639 423 CURVE SMOOTH"
);
},
{
closed = 1;
nodes = (
"353 160 LINE SMOOTH",
"353 127 OFFCURVE",
"316 108 OFFCURVE",
"278 108 CURVE SMOOTH",
"239 108 OFFCURVE",
"218 127 OFFCURVE",
"218 156 CURVE SMOOTH",
"218 205 OFFCURVE",
"283 230 OFFCURVE",
"321 233 CURVE SMOOTH",
"353 235 LINE"
);
}
);
width = 925;
},
{
anchors = (
{
name = top;
position = "{465, 530}";
}
);
background = {
anchors = (
{
name = top;
position = "{465, 530}";
}
);
paths = (
{
closed = 1;
nodes = (
"875 254 LINE SMOOTH",
"889 254 OFFCURVE",
"893 261 OFFCURVE",
"893 274 CURVE SMOOTH",
"893 444 OFFCURVE",
"801 540 OFFCURVE",
"664 540 CURVE SMOOTH",
"570 540 OFFCURVE",
"498 500 OFFCURVE",
"458 421 CURVE",
"438 501 OFFCURVE",
"382 540 OFFCURVE",
"283 540 CURVE SMOOTH",
"198 540 OFFCURVE",
"121 500 OFFCURVE",
"78 431 CURVE SMOOTH",
"75 426 OFFCURVE",
"75 423 OFFCURVE",
"78 421 CURVE SMOOTH",
"100 406 LINE SMOOTH",
"104 403 OFFCURVE",
"106 404 OFFCURVE",
"111 410 CURVE SMOOTH",
"157 470 OFFCURVE",
"211 502 OFFCURVE",
"275 502 CURVE SMOOTH",
"375 502 OFFCURVE",
"429 448 OFFCURVE",
"429 363 CURVE SMOOTH",
"429 332 LINE SMOOTH",
"429 323 OFFCURVE",
"423 318 OFFCURVE",
"411 317 CURVE SMOOTH",
"299 308 LINE SMOOTH",
"136 294 OFFCURVE",
"60 234 OFFCURVE",
"60 136 CURVE SMOOTH",
"60 45 OFFCURVE",
"122 -10 OFFCURVE",
"226 -10 CURVE SMOOTH",
"357 -10 OFFCURVE",
"415 62 OFFCURVE",
"451 108 CURVE SMOOTH",
"453 111 OFFCURVE",
"454 111 OFFCURVE",
"456 108 CURVE SMOOTH",
"485 65 OFFCURVE",
"539 -10 OFFCURVE",
"661 -10 CURVE SMOOTH",
"758 -10 OFFCURVE",
"839 37 OFFCURVE",
"873 100 CURVE SMOOTH",
"876 106 OFFCURVE",
"875 108 OFFCURVE",
"872 110 CURVE SMOOTH",
"850 125 LINE SMOOTH",
"845 128 OFFCURVE",
"844 127 OFFCURVE",
"839 121 CURVE SMOOTH",
"810 81 OFFCURVE",
"767 28 OFFCURVE",
"663 28 CURVE SMOOTH",
"551 28 OFFCURVE",
"463 134 OFFCURVE",
"463 228 CURVE SMOOTH",
"463 249 OFFCURVE",
"466 253 OFFCURVE",
"483 253 CURVE SMOOTH"
);
},
{
closed = 1;
nodes = (
"771 502 OFFCURVE",
"850 414 OFFCURVE",
"850 306 CURVE SMOOTH",
"850 294 OFFCURVE",
"849 290 OFFCURVE",
"833 290 CURVE SMOOTH",
"465 291 LINE",
"466 418 OFFCURVE",
"551 502 OFFCURVE",
"661 502 CURVE SMOOTH"
);
},
{
closed = 1;
nodes = (
"429 177 LINE",
"429 99 OFFCURVE",
"343 34 OFFCURVE",
"236 29 CURVE SMOOTH",
"152 25 OFFCURVE",
"103 71 OFFCURVE",
"103 138 CURVE SMOOTH",
"103 215 OFFCURVE",
"169 260 OFFCURVE",
"319 272 CURVE SMOOTH",
"414 279 LINE SMOOTH",
"427 280 OFFCURVE",
"429 275 OFFCURVE",
"429 265 CURVE SMOOTH"
);
}
);
};
hints = (
{
horizontal = 1;
place = "{4139, 202}";
}
);
layerId = "91AB5BCA-6A50-42DA-B2F7-8181BF189245";
paths = (
{
closed = 1;
nodes = (
"893 254 LINE",
"893 437 OFFCURVE",
"801 540 OFFCURVE",
"664 540 CURVE SMOOTH",
"570 540 OFFCURVE",
"498 500 OFFCURVE",
"458 421 CURVE",
"438 501 OFFCURVE",
"382 540 OFFCURVE",
"283 540 CURVE SMOOTH",
"196 540 OFFCURVE",
"118 497 OFFCURVE",
"74 424 CURVE",
"105 402 LINE",
"153 467 OFFCURVE",
"209 502 OFFCURVE",
"275 502 CURVE SMOOTH",
"375 502 OFFCURVE",
"429 448 OFFCURVE",
"429 363 CURVE SMOOTH",
"429 318 LINE",
"299 308 LINE SMOOTH",
"136 294 OFFCURVE",
"60 234 OFFCURVE",
"60 136 CURVE SMOOTH",
"60 45 OFFCURVE",
"122 -10 OFFCURVE",
"226 -10 CURVE SMOOTH",
"357 -10 OFFCURVE",
"415 62 OFFCURVE",
"451 108 CURVE SMOOTH",
"453 111 OFFCURVE",
"454 111 OFFCURVE",
"456 108 CURVE SMOOTH",
"485 65 OFFCURVE",
"539 -10 OFFCURVE",
"661 -10 CURVE SMOOTH",
"760 -10 OFFCURVE",
"842 40 OFFCURVE",
"877 107 CURVE",
"845 129 LINE",
"815 85 OFFCURVE",
"770 28 OFFCURVE",
"663 28 CURVE SMOOTH",
"551 28 OFFCURVE",
"463 147 OFFCURVE",
"463 253 CURVE"
);
},
{
closed = 1;
nodes = (
"771 502 OFFCURVE",
"850 407 OFFCURVE",
"850 290 CURVE",
"465 291 LINE",
"466 418 OFFCURVE",
"551 502 OFFCURVE",
"661 502 CURVE SMOOTH"
);
},
{
closed = 1;
nodes = (
"429 177 LINE",
"429 99 OFFCURVE",
"343 34 OFFCURVE",
"236 29 CURVE SMOOTH",
"152 25 OFFCURVE",
"103 71 OFFCURVE",
"103 138 CURVE SMOOTH",
"103 215 OFFCURVE",
"169 260 OFFCURVE",
"319 272 CURVE SMOOTH",
"429 280 LINE"
);
}
);
width = 945;
}
);
leftMetricsKey = a;
rightMetricsKey = e;
unicode = 00E6;
},
{
glyphname = b;
lastChange = "2017-11-28 01:36:51 +0000";
layers = (
{
background = {
paths = (
{
closed = 1;
nodes = (
"177 0 OFFCURVE",
"185 7 OFFCURVE",
"190 23 CURVE SMOOTH",
"206 70 LINE SMOOTH",
"209 78 OFFCURVE",
"213 79 OFFCURVE",
"219 73 CURVE SMOOTH",
"258 22 OFFCURVE",
"312 -10 OFFCURVE",
"375 -10 CURVE SMOOTH",
"521 -10 OFFCURVE",
"602 99 OFFCURVE",
"602 269 CURVE SMOOTH",
"602 436 OFFCURVE",
"526 540 OFFCURVE",
"396 540 CURVE SMOOTH",
"351 540 OFFCURVE",
"310 527 OFFCURVE",
"269 488 CURVE SMOOTH",
"259 480 OFFCURVE",
"250 480 OFFCURVE",
"250 496 CURVE SMOOTH",
"250 721 LINE SMOOTH",
"250 734 OFFCURVE",
"244 742 OFFCURVE",
"232 742 CURVE SMOOTH",
"69 742 LINE SMOOTH",
"58 742 OFFCURVE",
"50 734 OFFCURVE",
"50 719 CURVE SMOOTH",
"50 25 LINE SMOOTH",
"50 8 OFFCURVE",
"56 0 OFFCURVE",
"77 0 CURVE SMOOTH",
"164 0 LINE SMOOTH"
);
},
{
closed = 1;
nodes = (
"270 403 OFFCURVE",
"293 418 OFFCURVE",
"324 418 CURVE SMOOTH",
"373 418 OFFCURVE",
"400 381 OFFCURVE",
"400 265 CURVE SMOOTH",
"400 148 OFFCURVE",
"373 107 OFFCURVE",
"321 107 CURVE SMOOTH",
"279 107 OFFCURVE",
"250 135 OFFCURVE",
"250 185 CURVE SMOOTH",
"250 378 LINE"
);
}
);
};
layerId = "258ED206-D907-4350-8EBA-CBDDA1C16BF7";
paths = (
{
closed = 1;
nodes = (
"526 -10 OFFCURVE",
"607 99 OFFCURVE",
"607 269 CURVE SMOOTH",
"607 436 OFFCURVE",
"531 540 OFFCURVE",
"401 540 CURVE SMOOTH",
"349 540 OFFCURVE",
"291 515 OFFCURVE",
"255 450 CURVE",
"255 762 LINE",
"55 762 LINE",
"55 0 LINE",
"196 0 LINE",
"216 74 LINE",
"245 16 OFFCURVE",
"314 -10 OFFCURVE",
"380 -10 CURVE SMOOTH"
);
},
{
closed = 1;
nodes = (
"282 129 OFFCURVE",
"255 172 OFFCURVE",
"255 271 CURVE",
"255 271 LINE",
"255 362 OFFCURVE",
"284 400 OFFCURVE",
"329 400 CURVE SMOOTH",
"370 400 OFFCURVE",
"405 377 OFFCURVE",
"405 271 CURVE SMOOTH",
"405 164 OFFCURVE",
"373 129 OFFCURVE",
"326 129 CURVE"
);
}
);
width = 630;
},
{
background = {
paths = (
{
closed = 1;
nodes = (
"126 0 OFFCURVE",
"129 3 OFFCURVE",
"129 13 CURVE SMOOTH",
"131 64 LINE SMOOTH",
"131 73 OFFCURVE",
"136 74 OFFCURVE",
"141 67 CURVE SMOOTH",
"153 50 OFFCURVE",
"203 -10 OFFCURVE",
"306 -10 CURVE SMOOTH",
"450 -10 OFFCURVE",
"534 96 OFFCURVE",
"534 267 CURVE SMOOTH",
"534 416 OFFCURVE",
"470 540 OFFCURVE",
"317 540 CURVE SMOOTH",
"211 540 OFFCURVE",
"155 482 OFFCURVE",
"145 473 CURVE SMOOTH",
"136 465 OFFCURVE",
"132 465 OFFCURVE",
"132 478 CURVE SMOOTH",
"132 731 LINE SMOOTH",
"132 739 OFFCURVE",
"130 742 OFFCURVE",
"124 742 CURVE SMOOTH",
"101 742 LINE SMOOTH",
"95 742 OFFCURVE",
"92 739 OFFCURVE",
"92 732 CURVE SMOOTH",
"92 13 LINE SMOOTH",
"92 3 OFFCURVE",
"95 0 OFFCURVE",
"103 0 CURVE SMOOTH",
"114 0 LINE SMOOTH"
);
},
{
closed = 1;
nodes = (
"172 463 OFFCURVE",
"236 502 OFFCURVE",
"310 502 CURVE SMOOTH",
"428 502 OFFCURVE",
"491 409 OFFCURVE",
"491 267 CURVE SMOOTH",
"491 103 OFFCURVE",
"406 28 OFFCURVE",
"302 28 CURVE SMOOTH",
"218 28 OFFCURVE",
"132 96 OFFCURVE",
"132 177 CURVE SMOOTH",
"132 415 LINE"
);
}
);
};
layerId = "91AB5BCA-6A50-42DA-B2F7-8181BF189245";
paths = (
{
closed = 1;
nodes = (
"450 -10 OFFCURVE",
"534 96 OFFCURVE",
"534 267 CURVE SMOOTH",
"534 416 OFFCURVE",
"470 540 OFFCURVE",
"317 540 CURVE SMOOTH",
"203 540 OFFCURVE",
"143 472 OFFCURVE",
"132 461 CURVE",
"132 762 LINE",
"92 762 LINE",
"92 0 LINE",
"128 0 LINE",
"132 80 LINE",
"144 60 OFFCURVE",
"197 -10 OFFCURVE",
"306 -10 CURVE SMOOTH"
);
},
{
closed = 1;
nodes = (
"218 28 OFFCURVE",
"132 96 OFFCURVE",
"132 177 CURVE SMOOTH",
"132 415 LINE",
"172 463 OFFCURVE",
"236 502 OFFCURVE",
"310 502 CURVE SMOOTH",
"428 502 OFFCURVE",
"491 409 OFFCURVE",
"491 267 CURVE SMOOTH",
"491 103 OFFCURVE",
"406 28 OFFCURVE",
"302 28 CURVE SMOOTH"
);
}
);
width = 586;
}
);
leftMetricsKey = n;
rightMetricsKey = o;
unicode = 0062;
},
{
glyphname = c;
lastChange = "2017-11-29 05:46:11 +0000";
layers = (
{
anchors = (
{
name = bottom;
position = "{289, 0}";
},
{
name = top;
position = "{290, 530}";
}
);
background = {
anchors = (
{
name = bottom;
position = "{284, 0}";
},
{
name = top;
position = "{285, 530}";
}
);
paths = (
{
closed = 1;
nodes = (
"127 540 OFFCURVE",
"8 428 OFFCURVE",
"8 263 CURVE SMOOTH",
"8 101 OFFCURVE",
"125 -10 OFFCURVE",
"285 -10 CURVE SMOOTH",
"447 -10 OFFCURVE",
"513 105 OFFCURVE",
"523 157 CURVE SMOOTH",
"527 172 OFFCURVE",
"525 178 OFFCURVE",
"514 180 CURVE SMOOTH",
"420 198 LINE SMOOTH",
"407 200 OFFCURVE",
"403 198 OFFCURVE",
"400 193 CURVE SMOOTH",
"375 148 OFFCURVE",
"356 114 OFFCURVE",
"301 114 CURVE SMOOTH",
"244 114 OFFCURVE",
"210 154 OFFCURVE",
"210 265 CURVE SMOOTH",
"210 372 OFFCURVE",
"241 414 OFFCURVE",
"290 414 CURVE SMOOTH",
"338 414 OFFCURVE",
"347 376 OFFCURVE",
"351 351 CURVE SMOOTH",
"353 340 OFFCURVE",
"357 336 OFFCURVE",
"368 337 CURVE SMOOTH",
"505 344 LINE SMOOTH",
"522 345 OFFCURVE",
"528 353 OFFCURVE",
"523 370 CURVE SMOOTH",
"507 447 OFFCURVE",
"428 540 OFFCURVE",
"285 540 CURVE SMOOTH"
);
}
);
};
guideLines = (
{
angle = -0.5577;
position = "{-587, 185}";
},
{
position = "{582, 136}";
},
{
angle = 3.769;
position = "{460, 340}";
}
);
layerId = "258ED206-D907-4350-8EBA-CBDDA1C16BF7";
paths = (
{
closed = 1;
nodes = (
"136 540 OFFCURVE",
"23 427 OFFCURVE",
"23 263 CURVE SMOOTH",
"23 100 OFFCURVE",
"138 -10 OFFCURVE",
"290 -10 CURVE SMOOTH",
"435 -10 OFFCURVE",
"515 91 OFFCURVE",
"520 184 CURVE",
"363 205 LINE",
"358 174 OFFCURVE",
"346 127 OFFCURVE",
"295 127 CURVE SMOOTH",
"244 127 OFFCURVE",
"206 177 OFFCURVE",
"206 265 CURVE SMOOTH",
"206 350 OFFCURVE",
"240 393 OFFCURVE",
"291 393 CURVE SMOOTH",
"343 393 OFFCURVE",
"355 352 OFFCURVE",
"361 314 CURVE",
"523 335 LINE",
"520 434 OFFCURVE",
"440 540 OFFCURVE",
"290 540 CURVE SMOOTH"
);
}
);
width = 546;
},
{
anchors = (
{
name = bottom;
position = "{283, 0}";
},
{
name = top;
position = "{281, 530}";
}
);
background = {
anchors = (
{
name = bottom;
position = "{283, 0}";
},
{
name = top;
position = "{281, 530}";
}
);
paths = (
{
closed = 1;
nodes = (
"141 540 OFFCURVE",
"42 425 OFFCURVE",
"42 263 CURVE SMOOTH",
"42 100 OFFCURVE",
"139 -10 OFFCURVE",
"282 -10 CURVE SMOOTH",
"367 -10 OFFCURVE",
"439 29 OFFCURVE",
"487 107 CURVE SMOOTH",
"489 111 OFFCURVE",
"488 115 OFFCURVE",
"485 117 CURVE SMOOTH",
"462 132 LINE SMOOTH",
"458 135 OFFCURVE",
"456 134 OFFCURVE",
"452 128 CURVE SMOOTH",
"408 60 OFFCURVE",
"354 28 OFFCURVE",
"286 28 CURVE SMOOTH",
"164 28 OFFCURVE",
"84 123 OFFCURVE",
"84 265 CURVE SMOOTH",
"84 407 OFFCURVE",
"164 502 OFFCURVE",
"287 502 CURVE SMOOTH",
"343 502 OFFCURVE",
"388 478 OFFCURVE",
"443 411 CURVE SMOOTH",
"447 406 OFFCURVE",
"451 405 OFFCURVE",
"454 407 CURVE SMOOTH",
"478 423 LINE SMOOTH",
"481 425 OFFCURVE",
"482 427 OFFCURVE",
"478 433 CURVE SMOOTH",
"432 499 OFFCURVE",
"371 540 OFFCURVE",
"282 540 CURVE SMOOTH"
);
}
);
};
layerId = "91AB5BCA-6A50-42DA-B2F7-8181BF189245";
paths = (
{
closed = 1;
nodes = (
"139 540 OFFCURVE",
"52 426 OFFCURVE",
"52 263 CURVE SMOOTH",
"52 101 OFFCURVE",
"139 -10 OFFCURVE",
"282 -10 CURVE SMOOTH",
"369 -10 OFFCURVE",
"432 31 OFFCURVE",
"481 113 CURVE",
"447 135 LINE",
"402 62 OFFCURVE",
"358 28 OFFCURVE",
"286 28 CURVE SMOOTH",
"166 28 OFFCURVE",
"94 122 OFFCURVE",
"94 265 CURVE SMOOTH",
"94 406 OFFCURVE",
"168 502 OFFCURVE",
"287 502 CURVE SMOOTH",
"349 502 OFFCURVE",
"382 476 OFFCURVE",
"439 404 CURVE",
"473 426 LINE",
"426 496 OFFCURVE",
"371 540 OFFCURVE",
"282 540 CURVE SMOOTH"
);
}
);
width = 533;
}
);
leftKerningGroup = o;
leftMetricsKey = o;
rightMetricsKey = e;
unicode = 0063;
},
{
glyphname = d;
lastChange = "2017-11-14 17:50:30 +0000";
layers = (
{
anchors = (
{
name = bottom;
position = "{303, 0}";
},
{
name = center;
position = "{303, 265}";
},
{
name = topright;
position = "{589, 530}";
}
);
background = {
anchors = (
{
name = bottom;
position = "{298, 0}";
},
{
name = center;
position = "{298, 265}";
},
{
name = topright;
position = "{584, 530}";
}
);
paths = (
{
closed = 1;
nodes = (
"539 0 LINE SMOOTH",
"560 0 OFFCURVE",
"566 8 OFFCURVE",
"566 25 CURVE SMOOTH",
"566 719 LINE SMOOTH",
"566 734 OFFCURVE",
"558 742 OFFCURVE",
"547 742 CURVE SMOOTH",
"385 742 LINE SMOOTH",
"373 742 OFFCURVE",
"367 734 OFFCURVE",
"367 721 CURVE SMOOTH",
"367 496 LINE SMOOTH",
"367 480 OFFCURVE",
"358 480 OFFCURVE",
"348 488 CURVE SMOOTH",
"307 528 OFFCURVE",
"269 540 OFFCURVE",
"224 540 CURVE SMOOTH",
"114 540 OFFCURVE",
"14 431 OFFCURVE",
"14 263 CURVE SMOOTH",
"14 82 OFFCURVE",
"96 -10 OFFCURVE",
"214 -10 CURVE SMOOTH",
"276 -10 OFFCURVE",
"315 10 OFFCURVE",
"354 46 CURVE SMOOTH",
"361 52 OFFCURVE",
"369 51 OFFCURVE",
"369 42 CURVE SMOOTH",
"369 23 LINE SMOOTH",
"369 6 OFFCURVE",
"381 0 OFFCURVE",
"394 0 CURVE SMOOTH"
);
},
{
closed = 1;
nodes = (
"366 176 LINE SMOOTH",
"366 137 OFFCURVE",
"335 110 OFFCURVE",
"296 110 CURVE SMOOTH",
"245 110 OFFCURVE",
"216 149 OFFCURVE",
"216 264 CURVE SMOOTH",
"216 380 OFFCURVE",
"249 416 OFFCURVE",
"296 416 CURVE SMOOTH",
"327 416 OFFCURVE",
"345 403 OFFCURVE",
"366 378 CURVE"
);
}
);
};
layerId = "258ED206-D907-4350-8EBA-CBDDA1C16BF7";
paths = (
{
closed = 1;
nodes = (
"336 -10 OFFCURVE",
"393 28 OFFCURVE",
"419 70 CURVE",
"434 0 LINE",
"575 0 LINE",
"575 762 LINE",
"375 762 LINE",
"375 470 LINE",
"343 524 OFFCURVE",
"281 540 OFFCURVE",
"229 540 CURVE SMOOTH",
"99 540 OFFCURVE",
"23 436 OFFCURVE",
"23 269 CURVE SMOOTH",
"23 99 OFFCURVE",
"104 -10 OFFCURVE",
"250 -10 CURVE SMOOTH"
);
},
{
closed = 1;
nodes = (
"252 129 OFFCURVE",
"215 164 OFFCURVE",
"215 271 CURVE SMOOTH",
"215 377 OFFCURVE",
"255 400 OFFCURVE",
"296 400 CURVE SMOOTH",
"341 400 OFFCURVE",
"375 373 OFFCURVE",
"375 291 CURVE",
"375 245 LINE",
"375 166 OFFCURVE",
"343 129 OFFCURVE",
"299 129 CURVE"
);
}
);
width = 630;
},
{
anchors = (
{
name = bottom;
position = "{282, 0}";
},
{
name = center;
position = "{294, 265}";
},
{
name = topright;
position = "{607, 742}";
}
);
background = {
anchors = (
{
name = bottom;
position = "{282, 0}";
},
{
name = center;
position = "{294, 265}";
},
{
name = topright;
position = "{607, 742}";
}
);
paths = (
{
closed = 1;
nodes = (
"469 0 LINE SMOOTH",
"478 0 OFFCURVE",
"481 3 OFFCURVE",
"481 12 CURVE SMOOTH",
"481 733 LINE SMOOTH",
"481 739 OFFCURVE",
"478 742 OFFCURVE",
"473 742 CURVE SMOOTH",
"450 742 LINE SMOOTH",
"443 742 OFFCURVE",
"441 739 OFFCURVE",
"441 732 CURVE SMOOTH",
"441 493 LINE SMOOTH",
"441 480 OFFCURVE",
"439 476 OFFCURVE",
"427 486 CURVE SMOOTH",
"396 510 OFFCURVE",
"353 540 OFFCURVE",
"280 540 CURVE SMOOTH",
"133 540 OFFCURVE",
"37 425 OFFCURVE",
"37 255 CURVE SMOOTH",
"37 78 OFFCURVE",
"140 -10 OFFCURVE",
"268 -10 CURVE SMOOTH",
"364 -10 OFFCURVE",
"415 49 OFFCURVE",
"431 66 CURVE SMOOTH",
"439 74 OFFCURVE",
"443 73 OFFCURVE",
"443 62 CURVE SMOOTH",
"443 11 LINE SMOOTH",
"443 4 OFFCURVE",
"446 0 OFFCURVE",
"453 0 CURVE SMOOTH"
);
},
{
closed = 1;
nodes = (
"441 170 LINE SMOOTH",
"441 110 OFFCURVE",
"369 28 OFFCURVE",
"273 28 CURVE SMOOTH",
"171 28 OFFCURVE",
"79 100 OFFCURVE",
"79 259 CURVE SMOOTH",
"79 411 OFFCURVE",
"164 502 OFFCURVE",
"281 502 CURVE SMOOTH",
"342 502 OFFCURVE",
"392 474 OFFCURVE",
"441 426 CURVE"
);
}
);
};
layerId = "91AB5BCA-6A50-42DA-B2F7-8181BF189245";
paths = (
{
closed = 1;
nodes = (
"371 -10 OFFCURVE",
"426 59 OFFCURVE",
"443 79 CURVE",
"443 0 LINE",
"481 0 LINE",
"481 762 LINE",
"441 762 LINE",
"441 475 LINE",
"389 517 OFFCURVE",
"344 540 OFFCURVE",
"280 540 CURVE SMOOTH",
"133 540 OFFCURVE",
"52 425 OFFCURVE",
"52 255 CURVE SMOOTH",
"52 78 OFFCURVE",
"140 -10 OFFCURVE",
"268 -10 CURVE SMOOTH"
);
},
{
closed = 1;
nodes = (
"171 28 OFFCURVE",
"94 100 OFFCURVE",
"94 259 CURVE SMOOTH",
"94 411 OFFCURVE",
"164 502 OFFCURVE",
"281 502 CURVE SMOOTH",
"342 502 OFFCURVE",
"392 474 OFFCURVE",
"441 426 CURVE",
"441 170 LINE",
"441 110 OFFCURVE",
"369 28 OFFCURVE",
"273 28 CURVE SMOOTH"
);
}
);
width = 577;
}
);
leftKerningGroup = o;
leftMetricsKey = o;
rightMetricsKey = u;
unicode = 0064;
},
{
glyphname = eth;
lastChange = "2017-11-14 17:50:30 +0000";
layers = (
{
background = {
paths = (
{
closed = 1;
nodes = (
"576 440 OFFCURVE",
"501 582 OFFCURVE",
"377 669 CURVE",
"423 695 LINE SMOOTH",
"429 699 OFFCURVE",
"430 704 OFFCURVE",
"427 709 CURVE SMOOTH",
"406 747 LINE SMOOTH",
"402 752 OFFCURVE",
"395 754 OFFCURVE",
"388 749 CURVE SMOOTH",
"313 707 LINE",
"276 726 OFFCURVE",
"235 740 OFFCURVE",
"192 750 CURVE SMOOTH",
"180 753 OFFCURVE",
"178 752 OFFCURVE",
"171 746 CURVE SMOOTH",
"87 677 LINE SMOOTH",
"80 671 OFFCURVE",
"83 665 OFFCURVE",
"89 663 CURVE SMOOTH",
"119 653 OFFCURVE",
"146 641 OFFCURVE",
"171 628 CURVE",
"100 589 LINE SMOOTH",
"93 586 OFFCURVE",
"90 578 OFFCURVE",
"98 567 CURVE SMOOTH",
"113 543 LINE SMOOTH",
"120 532 OFFCURVE",
"126 530 OFFCURVE",
"137 536 CURVE SMOOTH",
"233 590 LINE",
"261 569 OFFCURVE",
"280 551 OFFCURVE",
"299 525 CURVE SMOOTH",
"301 522 OFFCURVE",
"301 520 OFFCURVE",
"297 520 CURVE SMOOTH",
"139 520 OFFCURVE",
"18 409 OFFCURVE",
"18 252 CURVE SMOOTH",
"18 103 OFFCURVE",
"132 -10 OFFCURVE",
"296 -10 CURVE SMOOTH",
"463 -10 OFFCURVE",
"576 102 OFFCURVE",
"576 282 CURVE SMOOTH"
);
},
{
closed = 1;
nodes = (
"244 118 OFFCURVE",
"220 162 OFFCURVE",
"220 256 CURVE SMOOTH",
"220 351 OFFCURVE",
"244 396 OFFCURVE",
"297 396 CURVE SMOOTH",
"351 396 OFFCURVE",
"374 351 OFFCURVE",
"374 256 CURVE SMOOTH",
"374 163 OFFCURVE",
"351 118 OFFCURVE",
"297 118 CURVE SMOOTH"
);
}
);
};
layerId = "258ED206-D907-4350-8EBA-CBDDA1C16BF7";
paths = (
{
closed = 1;
nodes = (
"581 440 OFFCURVE",
"506 582 OFFCURVE",
"382 669 CURVE",
"437 700 LINE",
"406 756 LINE",
"318 707 LINE",
"277 727 OFFCURVE",
"232 742 OFFCURVE",
"184 753 CURVE",
"81 668 LINE",
"115 656 OFFCURVE",
"147 643 OFFCURVE",
"176 628 CURVE",
"93 583 LINE",
"127 528 LINE",
"238 590 LINE",
"266 569 OFFCURVE",
"285 551 OFFCURVE",
"304 525 CURVE SMOOTH",
"306 522 OFFCURVE",
"306 520 OFFCURVE",
"302 520 CURVE SMOOTH",
"144 520 OFFCURVE",
"23 409 OFFCURVE",
"23 252 CURVE SMOOTH",
"23 103 OFFCURVE",
"137 -10 OFFCURVE",
"301 -10 CURVE SMOOTH",
"468 -10 OFFCURVE",
"581 102 OFFCURVE",
"581 282 CURVE SMOOTH"
);
},
{
closed = 1;
nodes = (
"249 118 OFFCURVE",
"225 162 OFFCURVE",
"225 256 CURVE SMOOTH",
"225 351 OFFCURVE",
"249 396 OFFCURVE",
"302 396 CURVE SMOOTH",
"356 396 OFFCURVE",
"379 351 OFFCURVE",
"379 256 CURVE SMOOTH",
"379 163 OFFCURVE",
"356 118 OFFCURVE",
"302 118 CURVE SMOOTH"
);
}
);
width = 604;
},
{
background = {
paths = (
{
closed = 1;
nodes = (
"538 422 OFFCURVE",
"483 563 OFFCURVE",
"327 669 CURVE",
"417 719 LINE SMOOTH",
"420 721 OFFCURVE",
"420 724 OFFCURVE",
"418 727 CURVE SMOOTH",
"406 749 LINE SMOOTH",
"405 751 OFFCURVE",
"400 752 OFFCURVE",
"397 750 CURVE SMOOTH",
"293 692 LINE",
"258 713 OFFCURVE",
"221 731 OFFCURVE",
"177 749 CURVE SMOOTH",
"168 753 OFFCURVE",
"165 751 OFFCURVE",
"159 747 CURVE SMOOTH",
"141 735 LINE SMOOTH",
"136 731 OFFCURVE",
"137 726 OFFCURVE",
"142 724 CURVE SMOOTH",
"184 707 OFFCURVE",
"221 689 OFFCURVE",
"255 670 CURVE",
"100 583 LINE SMOOTH",
"97 581 OFFCURVE",
"95 578 OFFCURVE",
"99 572 CURVE SMOOTH",
"108 558 LINE SMOOTH",
"112 552 OFFCURVE",
"115 550 OFFCURVE",
"121 553 CURVE SMOOTH",
"289 648 LINE",
"375 590 OFFCURVE",
"428 523 OFFCURVE",
"459 451 CURVE",
"416 494 OFFCURVE",
"357 520 OFFCURVE",
"286 520 CURVE SMOOTH",
"150 520 OFFCURVE",
"52 408 OFFCURVE",
"52 252 CURVE SMOOTH",
"52 98 OFFCURVE",
"149 -10 OFFCURVE",
"293 -10 CURVE SMOOTH",
"447 -10 OFFCURVE",
"538 101 OFFCURVE",
"538 255 CURVE SMOOTH"
);
},
{
closed = 1;
nodes = (
"181 28 OFFCURVE",
"94 128 OFFCURVE",
"94 254 CURVE SMOOTH",
"94 380 OFFCURVE",
"181 482 OFFCURVE",
"296 482 CURVE SMOOTH",
"410 482 OFFCURVE",
"496 381 OFFCURVE",
"496 254 CURVE SMOOTH",
"496 127 OFFCURVE",
"412 28 OFFCURVE",
"297 28 CURVE SMOOTH"
);
}
);
};
layerId = "91AB5BCA-6A50-42DA-B2F7-8181BF189245";
paths = (
{
closed = 1;
nodes = (
"538 422 OFFCURVE",
"483 563 OFFCURVE",
"327 669 CURVE",
"421 721 LINE",
"404 754 LINE",
"293 692 LINE",
"255 714 OFFCURVE",
"215 734 OFFCURVE",
"168 753 CURVE",
"131 728 LINE",
"177 710 OFFCURVE",
"218 691 OFFCURVE",
"255 670 CURVE",
"94 580 LINE",
"114 549 LINE",
"289 648 LINE",
"375 590 OFFCURVE",
"428 523 OFFCURVE",
"459 451 CURVE",
"416 494 OFFCURVE",
"357 520 OFFCURVE",
"286 520 CURVE SMOOTH",
"150 520 OFFCURVE",
"52 408 OFFCURVE",
"52 252 CURVE SMOOTH",
"52 98 OFFCURVE",
"149 -10 OFFCURVE",
"293 -10 CURVE SMOOTH",
"447 -10 OFFCURVE",
"538 101 OFFCURVE",
"538 255 CURVE SMOOTH"
);
},
{
closed = 1;
nodes = (
"181 28 OFFCURVE",
"94 128 OFFCURVE",
"94 254 CURVE SMOOTH",
"94 380 OFFCURVE",
"181 482 OFFCURVE",
"296 482 CURVE SMOOTH",
"410 482 OFFCURVE",
"496 381 OFFCURVE",
"496 254 CURVE SMOOTH",
"496 127 OFFCURVE",
"412 28 OFFCURVE",
"297 28 CURVE SMOOTH"
);
}
);
width = 590;
}
);
leftMetricsKey = o;
rightMetricsKey = o;
unicode = 00F0;
},
{
glyphname = dcroat;
lastChange = "2017-11-28 01:30:58 +0000";
layers = (
{
background = {
components = (
{
name = d;
transform = "{1, 0, 0, 1, -10, 0}";
}
);
paths = (
{
closed = 1;
nodes = (
"603 680 OFFCURVE",
"597 687 OFFCURVE",
"587 687 CURVE SMOOTH",
"248 687 LINE SMOOTH",
"238 687 OFFCURVE",
"232 680 OFFCURVE",
"232 667 CURVE SMOOTH",
"232 602 LINE SMOOTH",
"232 587 OFFCURVE",
"237 580 OFFCURVE",
"254 580 CURVE SMOOTH",
"574 580 LINE SMOOTH",
"594 580 OFFCURVE",
"603 587 OFFCURVE",
"603 604 CURVE SMOOTH",
"603 669 LINE SMOOTH"
);
}
);
};
components = (
{
name = d;
}
);
layerId = "258ED206-D907-4350-8EBA-CBDDA1C16BF7";
paths = (
{
closed = 1;
nodes = (
"237 687 LINE",
"237 580 LINE",
"608 580 LINE",
"608 687 LINE"
);
}
);
width = 636;
},
{
background = {
components = (
{
name = d;
transform = "{1, 0, 0, 1, 2, 0}";
}
);
paths = (
{
closed = 1;
nodes = (
"579 660 OFFCURVE",
"577 662 OFFCURVE",
"574 662 CURVE SMOOTH",
"295 662 LINE SMOOTH",
"292 662 OFFCURVE",
"290 660 OFFCURVE",
"290 655 CURVE SMOOTH",
"290 635 LINE SMOOTH",
"290 629 OFFCURVE",
"291 627 OFFCURVE",
"297 627 CURVE SMOOTH",
"569 627 LINE SMOOTH",
"576 627 OFFCURVE",
"579 629 OFFCURVE",
"579 635 CURVE SMOOTH",
"579 656 LINE SMOOTH"
);
}
);
};
components = (
{
name = d;
}
);
layerId = "91AB5BCA-6A50-42DA-B2F7-8181BF189245";
paths = (
{
closed = 1;
nodes = (
"290 662 LINE",
"290 627 LINE",
"579 627 LINE",
"579 662 LINE"
);
}
);
width = 604;
}
);
leftKerningGroup = o;
leftMetricsKey = d;
unicode = 0111;
},
{
glyphname = e;
lastChange = "2017-11-29 06:15:48 +0000";
layers = (
{
anchors = (
{
name = bottom;
position = "{296, 0}";
},
{
name = ogonek;
position = "{425, 26}";
},
{
name = top;
position = "{293, 530}";
}
);
background = {
anchors = (
{
name = bottom;
position = "{291, 0}";
},
{
name = ogonek;
position = "{420, 26}";
},
{
name = top;
position = "{288, 530}";
}
);
paths = (
{
closed = 1;
nodes = (
"214 224 OFFCURVE",
"219 229 OFFCURVE",
"229 229 CURVE SMOOTH",
"540 229 LINE SMOOTH",
"557 230 OFFCURVE",
"558 237 OFFCURVE",
"558 254 CURVE SMOOTH",
"558 435 OFFCURVE",
"443 540 OFFCURVE",
"286 540 CURVE SMOOTH",
"138 540 OFFCURVE",
"8 426 OFFCURVE",
"8 256 CURVE SMOOTH",
"8 99 OFFCURVE",
"130 -10 OFFCURVE",
"290 -10 CURVE SMOOTH",
"402 -10 OFFCURVE",
"470 17 OFFCURVE",
"542 118 CURVE SMOOTH",
"551 129 OFFCURVE",
"548 138 OFFCURVE",
"538 142 CURVE SMOOTH",
"447 179 LINE SMOOTH",
"434 184 OFFCURVE",
"431 183 OFFCURVE",
"426 178 CURVE SMOOTH",
"382 135 OFFCURVE",
"351 122 OFFCURVE",
"317 122 CURVE SMOOTH",
"259 122 OFFCURVE",
"214 151 OFFCURVE",
"214 212 CURVE SMOOTH"
);
},
{
closed = 1;
nodes = (
"216 395 OFFCURVE",
"254 423 OFFCURVE",
"295 423 CURVE SMOOTH",
"345 423 OFFCURVE",
"364 372 OFFCURVE",
"364 346 CURVE SMOOTH",
"364 334 OFFCURVE",
"360 332 OFFCURVE",
"347 332 CURVE SMOOTH",
"217 333 LINE"
);
}
);
};
layerId = "258ED206-D907-4350-8EBA-CBDDA1C16BF7";
paths = (
{
closed = 1;
nodes = (
"553 219 LINE",
"553 266 LINE",
"553 423 OFFCURVE",
"466 540 OFFCURVE",
"292 540 CURVE SMOOTH",
"122 540 OFFCURVE",
"23 410 OFFCURVE",
"23 258 CURVE SMOOTH",
"23 97 OFFCURVE",
"135 -10 OFFCURVE",
"301 -10 CURVE SMOOTH",
"418 -10 OFFCURVE",
"538 63 OFFCURVE",
"555 181 CURVE",
"379 181 LINE",
"362 139 OFFCURVE",
"332 129 OFFCURVE",
"295 129 CURVE SMOOTH",
"252 129 OFFCURVE",
"217 156 OFFCURVE",
"218 219 CURVE"
);
},
{
closed = 1;
nodes = (
"217 371 OFFCURVE",
"251 406 OFFCURVE",
"292 406 CURVE SMOOTH",
"343 406 OFFCURVE",
"369 371 OFFCURVE",
"369 331 CURVE",
"217 331 LINE"
);
}
);
width = 578;
},
{
anchors = (
{
name = bottom;
position = "{281, 0}";
},
{
name = ogonek;
position = "{386, 18}";
},
{
name = top;
position = "{290, 530}";
}
);
background = {
anchors = (
{
name = bottom;
position = "{293, 0}";
},
{
name = ogonek;
position = "{386, 18}";
},
{
name = top;
position = "{290, 530}";
}
);
paths = (
{
closed = 1;
nodes = (
"91 247 OFFCURVE",
"93 254 OFFCURVE",
"97 254 CURVE SMOOTH",
"508 254 LINE SMOOTH",
"523 254 OFFCURVE",
"521 266 OFFCURVE",
"521 274 CURVE SMOOTH",
"521 442 OFFCURVE",
"433 540 OFFCURVE",
"292 540 CURVE SMOOTH",
"151 540 OFFCURVE",
"49 436 OFFCURVE",
"49 261 CURVE SMOOTH",
"49 100 OFFCURVE",
"148 -10 OFFCURVE",
"292 -10 CURVE SMOOTH",
"386 -10 OFFCURVE",
"456 27 OFFCURVE",
"502 100 CURVE SMOOTH",
"505 104 OFFCURVE",
"504 108 OFFCURVE",
"501 110 CURVE SMOOTH",
"478 125 LINE SMOOTH",
"474 128 OFFCURVE",
"471 127 OFFCURVE",
"467 121 CURVE SMOOTH",
"431 61 OFFCURVE",
"372 28 OFFCURVE",
"292 28 CURVE SMOOTH",
"180 28 OFFCURVE",
"91 127 OFFCURVE",
"91 240 CURVE SMOOTH"
);
},
{
closed = 1;
nodes = (
"91 390 OFFCURVE",
"159 502 OFFCURVE",
"291 502 CURVE SMOOTH",
"407 502 OFFCURVE",
"479 414 OFFCURVE",
"479 304 CURVE SMOOTH",
"479 293 OFFCURVE",
"476 290 OFFCURVE",
"462 290 CURVE SMOOTH",
"92 290 LINE"
);
}
);
};
guideLines = (
{
angle = 88.4926;
position = "{286, 521}";
}
);
layerId = "91AB5BCA-6A50-42DA-B2F7-8181BF189245";
paths = (
{
closed = 1;
nodes = (
"506 254 LINE",
"506 284 LINE",
"506 447 OFFCURVE",
"426 540 OFFCURVE",
"290 540 CURVE SMOOTH",
"146 540 OFFCURVE",
"63 436 OFFCURVE",
"63 261 CURVE SMOOTH",
"63 87 OFFCURVE",
"162 -10 OFFCURVE",
"301 -10 CURVE SMOOTH",
"395 -10 OFFCURVE",
"467 33 OFFCURVE",
"494 109 CURVE",
"456 125 LINE",
"434 66 OFFCURVE",
"384 30 OFFCURVE",
"301 30 CURVE SMOOTH",
"167 30 OFFCURVE",
"106 134 OFFCURVE",
"106 254 CURVE"
);
},
{
closed = 1;
nodes = (
"106 394 OFFCURVE",
"160 500 OFFCURVE",
"289 500 CURVE SMOOTH",
"408 500 OFFCURVE",
"464 412 OFFCURVE",
"464 294 CURVE",
"107 294 LINE"
);
}
);
width = 569;
}
);
leftKerningGroup = o;
leftMetricsKey = o;
rightMetricsKey = o;
unicode = 0065;
},
{
glyphname = f;
lastChange = "2017-11-14 17:50:30 +0000";
layers = (
{
background = {
paths = (
{
closed = 1;
nodes = (
"303 530 LINE SMOOTH",
"295 530 OFFCURVE",
"290 533 OFFCURVE",
"290 543 CURVE SMOOTH",
"290 561 LINE SMOOTH",
"290 589 OFFCURVE",
"312 612 OFFCURVE",
"335 612 CURVE SMOOTH",
"378 612 LINE SMOOTH",
"390 612 OFFCURVE",
"396 621 OFFCURVE",
"396 632 CURVE",
"395 716 LINE",
"395 732 OFFCURVE",
"385 742 OFFCURVE",
"366 742 CURVE SMOOTH",
"253 742 LINE SMOOTH",
"156 742 OFFCURVE",
"95 688 OFFCURVE",
"95 601 CURVE SMOOTH",
"95 548 LINE SMOOTH",
"95 535 OFFCURVE",
"92 530 OFFCURVE",
"81 530 CURVE SMOOTH",
"33 530 LINE SMOOTH",
"16 530 OFFCURVE",
"9 520 OFFCURVE",
"9 508 CURVE SMOOTH",
"9 414 LINE SMOOTH",
"9 400 OFFCURVE",
"17 395 OFFCURVE",
"31 395 CURVE SMOOTH",
"87 395 LINE SMOOTH",
"93 395 OFFCURVE",
"95 392 OFFCURVE",
"95 385 CURVE SMOOTH",
"95 20 LINE SMOOTH",
"95 7 OFFCURVE",
"102 0 OFFCURVE",
"113 0 CURVE SMOOTH",
"276 0 LINE SMOOTH",
"288 0 OFFCURVE",
"295 7 OFFCURVE",
"295 22 CURVE SMOOTH",
"295 383 LINE SMOOTH",
"295 391 OFFCURVE",
"300 395 OFFCURVE",
"307 395 CURVE SMOOTH",
"369 395 LINE SMOOTH",
"382 395 OFFCURVE",
"391 400 OFFCURVE",
"391 414 CURVE SMOOTH",
"391 508 LINE SMOOTH",
"391 520 OFFCURVE",
"383 530 OFFCURVE",
"366 530 CURVE SMOOTH"
);
}
);
};
layerId = "258ED206-D907-4350-8EBA-CBDDA1C16BF7";
paths = (
{
closed = 1;
nodes = (
"295 530 LINE",
"295 561 LINE SMOOTH",
"295 600 OFFCURVE",
"307 612 OFFCURVE",
"340 612 CURVE SMOOTH",
"401 612 LINE",
"400 742 LINE",
"258 742 LINE SMOOTH",
"161 742 OFFCURVE",
"100 688 OFFCURVE",
"100 601 CURVE SMOOTH",
"100 530 LINE",
"14 530 LINE",
"14 395 LINE",
"100 395 LINE",
"100 0 LINE",
"300 0 LINE",
"300 395 LINE",
"396 395 LINE",
"396 530 LINE"
);
}
);
width = 421;
},
{
background = {
paths = (
{
closed = 1;
nodes = (
"208 530 LINE SMOOTH",
"203 530 OFFCURVE",
"201 532 OFFCURVE",
"201 537 CURVE SMOOTH",
"201 627 LINE SMOOTH",
"201 678 OFFCURVE",
"214 707 OFFCURVE",
"264 707 CURVE SMOOTH",
"344 707 LINE SMOOTH",
"349 707 OFFCURVE",
"352 709 OFFCURVE",
"352 714 CURVE SMOOTH",
"352 735 LINE SMOOTH",
"352 740 OFFCURVE",
"350 742 OFFCURVE",
"346 742 CURVE SMOOTH",
"274 742 LINE SMOOTH",
"194 742 OFFCURVE",
"161 700 OFFCURVE",
"161 618 CURVE SMOOTH",
"161 537 LINE SMOOTH",
"161 532 OFFCURVE",
"159 530 OFFCURVE",
"154 530 CURVE SMOOTH",
"41 530 LINE SMOOTH",
"37 530 OFFCURVE",
"35 528 OFFCURVE",
"35 524 CURVE SMOOTH",
"35 501 LINE SMOOTH",
"35 497 OFFCURVE",
"37 495 OFFCURVE",
"41 495 CURVE SMOOTH",
"155 495 LINE SMOOTH",
"159 495 OFFCURVE",
"161 492 OFFCURVE",
"161 488 CURVE SMOOTH",
"161 10 LINE SMOOTH",
"161 3 OFFCURVE",
"163 0 OFFCURVE",
"169 0 CURVE SMOOTH",
"192 0 LINE SMOOTH",
"198 0 OFFCURVE",
"201 3 OFFCURVE",
"201 11 CURVE SMOOTH",
"201 488 LINE SMOOTH",
"201 493 OFFCURVE",
"203 495 OFFCURVE",
"208 495 CURVE SMOOTH",
"341 495 LINE SMOOTH",
"345 495 OFFCURVE",
"347 497 OFFCURVE",
"347 501 CURVE SMOOTH",
"347 524 LINE SMOOTH",
"347 528 OFFCURVE",
"345 530 OFFCURVE",
"342 530 CURVE SMOOTH"
);
}
);
};
layerId = "91AB5BCA-6A50-42DA-B2F7-8181BF189245";
paths = (
{
closed = 1;
nodes = (
"201 530 LINE",
"201 627 LINE SMOOTH",
"201 678 OFFCURVE",
"214 707 OFFCURVE",
"264 707 CURVE SMOOTH",
"352 707 LINE",
"352 742 LINE",
"274 742 LINE SMOOTH",
"194 742 OFFCURVE",
"161 700 OFFCURVE",
"161 618 CURVE SMOOTH",
"161 530 LINE",
"35 530 LINE",
"35 495 LINE",
"161 495 LINE",
"161 0 LINE",
"201 0 LINE",
"201 495 LINE",
"347 495 LINE",
"347 530 LINE"
);
}
);
width = 387;
}
);
leftKerningGroup = f;
rightKerningGroup = f;
unicode = 0066;
},
{
glyphname = g;
lastChange = "2017-12-07 07:12:00 +0000";
layers = (
{
anchors = (
{
name = top;
position = "{325, 530}";
}
);
background = {
anchors = (
{
name = top;
position = "{320, 530}";
}
);
paths = (
{
closed = 1;
nodes = (
"600 562 OFFCURVE",
"544 534 OFFCURVE",
"517 496 CURVE SMOOTH",
"510 486 OFFCURVE",
"496 485 OFFCURVE",
"486 493 CURVE SMOOTH",
"453 519 OFFCURVE",
"395 538 OFFCURVE",
"319 538 CURVE SMOOTH",
"140 538 OFFCURVE",
"49 469 OFFCURVE",
"49 373 CURVE SMOOTH",
"49 312 OFFCURVE",
"87 265 OFFCURVE",
"153 237 CURVE SMOOTH",
"163 231 OFFCURVE",
"156 228 OFFCURVE",
"150 225 CURVE SMOOTH",
"96 202 OFFCURVE",
"41 169 OFFCURVE",
"41 122 CURVE SMOOTH",
"41 81 OFFCURVE",
"72 56 OFFCURVE",
"107 39 CURVE SMOOTH",
"115 35 OFFCURVE",
"117 31 OFFCURVE",
"107 28 CURVE SMOOTH",
"54 13 OFFCURVE",
"10 -8 OFFCURVE",
"10 -53 CURVE SMOOTH",
"10 -137 OFFCURVE",
"112 -175 OFFCURVE",
"321 -175 CURVE SMOOTH",
"522 -175 OFFCURVE",
"624 -99 OFFCURVE",
"624 3 CURVE SMOOTH",
"624 85 OFFCURVE",
"558 143 OFFCURVE",
"410 152 CURVE SMOOTH",
"258 161 LINE SMOOTH",
"229 163 OFFCURVE",
"214 167 OFFCURVE",
"214 182 CURVE SMOOTH",
"214 198 OFFCURVE",
"241 209 OFFCURVE",
"307 209 CURVE SMOOTH",
"475 209 OFFCURVE",
"564 284 OFFCURVE",
"564 374 CURVE SMOOTH",
"564 384 OFFCURVE",
"562 395 OFFCURVE",
"559 405 CURVE SMOOTH",
"555 419 OFFCURVE",
"560 428 OFFCURVE",
"579 428 CURVE SMOOTH",
"591 428 OFFCURVE",
"610 425 OFFCURVE",
"623 421 CURVE SMOOTH",
"638 416 OFFCURVE",
"649 424 OFFCURVE",
"649 447 CURVE SMOOTH",
"649 537 LINE SMOOTH",
"649 555 OFFCURVE",
"640 562 OFFCURVE",
"629 562 CURVE SMOOTH"
);
},
{
closed = 1;
nodes = (
"255 300 OFFCURVE",
"227 334 OFFCURVE",
"227 370 CURVE SMOOTH",
"227 411 OFFCURVE",
"255 445 OFFCURVE",
"305 445 CURVE SMOOTH",
"361 445 OFFCURVE",
"383 411 OFFCURVE",
"383 370 CURVE SMOOTH",
"383 335 OFFCURVE",
"361 300 OFFCURVE",
"305 300 CURVE SMOOTH"
);
},
{
closed = 1;
nodes = (
"428 0 OFFCURVE",
"451 -16 OFFCURVE",
"451 -35 CURVE SMOOTH",
"451 -64 OFFCURVE",
"409 -86 OFFCURVE",
"331 -86 CURVE SMOOTH",
"206 -86 OFFCURVE",
"171 -64 OFFCURVE",
"171 -27 CURVE SMOOTH",
"171 -6 OFFCURVE",
"197 10 OFFCURVE",
"240 8 CURVE SMOOTH",
"385 2 LINE SMOOTH"
);
}
);
};
layerId = "258ED206-D907-4350-8EBA-CBDDA1C16BF7";
paths = (
{
closed = 1;
nodes = (
"527 -175 OFFCURVE",
"629 -99 OFFCURVE",
"629 3 CURVE SMOOTH",
"629 85 OFFCURVE",
"564 152 OFFCURVE",
"417 162 CURVE SMOOTH",
"372 165 OFFCURVE",
"330 167 OFFCURVE",
"312 168 CURVE SMOOTH",
"260 171 OFFCURVE",
"227 171 OFFCURVE",
"227 186 CURVE",
"227 191 OFFCURVE",
"231 193 OFFCURVE",
"241 195 CURVE",
"259 193 OFFCURVE",
"295 192 OFFCURVE",
"312 192 CURVE SMOOTH",
"480 192 OFFCURVE",
"569 284 OFFCURVE",
"569 374 CURVE SMOOTH",
"569 380 OFFCURVE",
"567 400 OFFCURVE",
"563 415 CURVE",
"653 428 LINE",
"654 569 LINE",
"596 545 OFFCURVE",
"520 516 OFFCURVE",
"480 501 CURVE",
"441 521 OFFCURVE",
"400 538 OFFCURVE",
"324 538 CURVE SMOOTH",
"180 538 OFFCURVE",
"54 480 OFFCURVE",
"54 373 CURVE SMOOTH",
"54 317 OFFCURVE",
"91 249 OFFCURVE",
"168 215 CURVE",
"85 204 OFFCURVE",
"46 164 OFFCURVE",
"46 122 CURVE SMOOTH",
"46 64 OFFCURVE",
"106 41 OFFCURVE",
"121 33 CURVE",
"113 31 OFFCURVE",
"15 15 OFFCURVE",
"15 -53 CURVE SMOOTH",
"15 -121 OFFCURVE",
"117 -175 OFFCURVE",
"326 -175 CURVE SMOOTH"
);
},
{
closed = 1;
nodes = (
"255 -71 OFFCURVE",
"209 -64 OFFCURVE",
"209 -30 CURVE SMOOTH",
"209 -12 OFFCURVE",
"223 11 OFFCURVE",
"278 8 CURVE SMOOTH",
"374 2 LINE SMOOTH",
"415 -1 OFFCURVE",
"440 -15 OFFCURVE",
"440 -38 CURVE SMOOTH",
"440 -57 OFFCURVE",
"427 -71 OFFCURVE",
"357 -71 CURVE SMOOTH"
);
},
{
closed = 1;
nodes = (
"280 296 OFFCURVE",
"254 326 OFFCURVE",
"254 366 CURVE SMOOTH",
"254 406 OFFCURVE",
"280 441 OFFCURVE",
"318 441 CURVE SMOOTH",
"356 441 OFFCURVE",
"382 406 OFFCURVE",
"382 366 CURVE SMOOTH",
"382 326 OFFCURVE",
"356 296 OFFCURVE",
"318 296 CURVE SMOOTH"
);
}
);
width = 666;
},
{
anchors = (
{
name = top;
position = "{293, 530}";
}
);
background = {
anchors = (
{
name = top;
position = "{293, 530}";
}
);
guideLines = (
{
angle = 90;
position = "{289, 374}";
showMeasurement = 1;
}
);
paths = (
{
closed = 1;
nodes = (
"507 530 OFFCURVE",
"477 507 OFFCURVE",
"457 492 CURVE SMOOTH",
"450 487 OFFCURVE",
"446 487 OFFCURVE",
"439 493 CURVE SMOOTH",
"405 522 OFFCURVE",
"362 538 OFFCURVE",
"296 538 CURVE SMOOTH",
"164 538 OFFCURVE",
"86 475 OFFCURVE",
"86 369 CURVE SMOOTH",
"86 307 OFFCURVE",
"110 266 OFFCURVE",
"165 235 CURVE SMOOTH",
"172 231 OFFCURVE",
"174 225 OFFCURVE",
"166 223 CURVE SMOOTH",
"116 207 OFFCURVE",
"99 181 OFFCURVE",
"99 159 CURVE SMOOTH",
"99 137 OFFCURVE",
"110 121 OFFCURVE",
"137 109 CURVE SMOOTH",
"144 106 OFFCURVE",
"144 102 OFFCURVE",
"137 98 CURVE SMOOTH",
"74 63 OFFCURVE",
"45 21 OFFCURVE",
"45 -27 CURVE SMOOTH",
"45 -120 OFFCURVE",
"131 -175 OFFCURVE",
"285 -175 CURVE SMOOTH",
"436 -175 OFFCURVE",
"524 -119 OFFCURVE",
"524 -19 CURVE SMOOTH",
"524 60 OFFCURVE",
"477 110 OFFCURVE",
"370 116 CURVE SMOOTH",
"250 123 LINE SMOOTH",
"173 127 OFFCURVE",
"141 136 OFFCURVE",
"141 160 CURVE SMOOTH",
"141 184 OFFCURVE",
"174 209 OFFCURVE",
"289 209 CURVE SMOOTH",
"430 209 OFFCURVE",
"491 280 OFFCURVE",
"491 369 CURVE SMOOTH",
"491 411 OFFCURVE",
"477 434 OFFCURVE",
"470 451 CURVE SMOOTH",
"467 458 OFFCURVE",
"472 464 OFFCURVE",
"490 474 CURVE SMOOTH",
"506 483 OFFCURVE",
"519 487 OFFCURVE",
"545 488 CURVE SMOOTH",
"559 489 OFFCURVE",
"562 495 OFFCURVE",
"562 504 CURVE SMOOTH",
"562 517 LINE SMOOTH",
"562 526 OFFCURVE",
"558 530 OFFCURVE",
"543 530 CURVE SMOOTH"
);
},
{
closed = 1;
nodes = (
"185 247 OFFCURVE",
"126 290 OFFCURVE",
"126 371 CURVE SMOOTH",
"126 453 OFFCURVE",
"186 500 OFFCURVE",
"290 500 CURVE SMOOTH",
"396 500 OFFCURVE",
"451 454 OFFCURVE",
"451 371 CURVE SMOOTH",
"451 289 OFFCURVE",
"398 247 OFFCURVE",
"290 247 CURVE SMOOTH"
);
},
{
closed = 1;
nodes = (
"453 70 OFFCURVE",
"482 36 OFFCURVE",
"482 -19 CURVE SMOOTH",
"482 -101 OFFCURVE",
"416 -137 OFFCURVE",
"294 -137 CURVE SMOOTH",
"163 -137 OFFCURVE",
"87 -96 OFFCURVE",
"87 -23 CURVE SMOOTH",
"87 43 OFFCURVE",
"161 88 OFFCURVE",
"193 86 CURVE SMOOTH",
"369 75 LINE SMOOTH"
);
}
);
};
guideLines = (
{
angle = 90;
position = "{391, 374}";
showMeasurement = 1;
}
);
layerId = "91AB5BCA-6A50-42DA-B2F7-8181BF189245";
paths = (
{
closed = 1;
nodes = (
"436 -175 OFFCURVE",
"524 -119 OFFCURVE",
"524 -19 CURVE SMOOTH",
"524 60 OFFCURVE",
"477 110 OFFCURVE",
"370 116 CURVE SMOOTH",
"320 119 OFFCURVE",
"281 121 OFFCURVE",
"250 123 CURVE SMOOTH",
"165 129 OFFCURVE",
"141 137 OFFCURVE",
"141 160 CURVE SMOOTH",
"141 183 OFFCURVE",
"172 207 OFFCURVE",
"278 209 CURVE SMOOTH",
"282 209 OFFCURVE",
"285 209 OFFCURVE",
"289 209 CURVE SMOOTH",
"430 209 OFFCURVE",
"491 280 OFFCURVE",
"491 369 CURVE SMOOTH",
"491 396 OFFCURVE",
"479 437 OFFCURVE",
"468 457 CURVE",
"562 478 LINE",
"562 537 LINE",
"549 532 OFFCURVE",
"461 494 OFFCURVE",
"447 488 CURVE",
"406 522 OFFCURVE",
"362 538 OFFCURVE",
"296 538 CURVE SMOOTH",
"164 538 OFFCURVE",
"86 475 OFFCURVE",
"86 369 CURVE SMOOTH",
"86 303 OFFCURVE",
"111 264 OFFCURVE",
"177 228 CURVE",
"126 212 OFFCURVE",
"99 188 OFFCURVE",
"99 159 CURVE SMOOTH",
"99 127 OFFCURVE",
"123 116 OFFCURVE",
"143 104 CURVE",
"127 90 OFFCURVE",
"45 53 OFFCURVE",
"45 -27 CURVE SMOOTH",
"45 -120 OFFCURVE",
"131 -175 OFFCURVE",
"285 -175 CURVE SMOOTH"
);
},
{
closed = 1;
nodes = (
"163 -137 OFFCURVE",
"87 -96 OFFCURVE",
"87 -23 CURVE SMOOTH",
"87 43 OFFCURVE",
"161 88 OFFCURVE",
"193 86 CURVE SMOOTH",
"369 75 LINE SMOOTH",
"453 70 OFFCURVE",
"482 36 OFFCURVE",
"482 -19 CURVE SMOOTH",
"482 -101 OFFCURVE",
"416 -137 OFFCURVE",
"294 -137 CURVE SMOOTH"
);
},
{
closed = 1;
nodes = (
"185 247 OFFCURVE",
"126 290 OFFCURVE",
"126 371 CURVE SMOOTH",
"126 453 OFFCURVE",
"186 500 OFFCURVE",
"290 500 CURVE SMOOTH",
"396 500 OFFCURVE",
"451 454 OFFCURVE",
"451 371 CURVE SMOOTH",
"451 289 OFFCURVE",
"398 247 OFFCURVE",
"290 247 CURVE SMOOTH"
);
}
);
width = 594;
}
);
leftKerningGroup = g;
unicode = 0067;
},
{
glyphname = gcommaaccent;
lastChange = "2017-11-28 01:30:58 +0000";
layers = (
{
anchors = (
{
name = _top;
position = "{298, 550}";
}
);
background = {
anchors = (
{
name = _top;
position = "{293, 550}";
}
);
components = (
{
name = g;
transform = "{1, 0, 0, 1, -10, 0}";
}
);
paths = (
{
closed = 1;
nodes = (
"340 599 LINE SMOOTH",
"350 599 OFFCURVE",
"358 605 OFFCURVE",
"358 619 CURVE SMOOTH",
"358 680 LINE SMOOTH",
"358 696 OFFCURVE",
"352 702 OFFCURVE",
"335 702 CURVE SMOOTH",
"326 702 LINE SMOOTH",
"312 702 OFFCURVE",
"306 717 OFFCURVE",
"317 731 CURVE SMOOTH",
"350 776 LINE SMOOTH",
"356 784 OFFCURVE",
"349 796 OFFCURVE",
"338 796 CURVE SMOOTH",
"320 796 LINE SMOOTH",
"302 796 OFFCURVE",
"295 793 OFFCURVE",
"287 782 CURVE SMOOTH",
"233 715 LINE SMOOTH",
"232 712 OFFCURVE",
"229 707 OFFCURVE",
"229 702 CURVE SMOOTH",
"229 615 LINE SMOOTH",
"229 605 OFFCURVE",
"235 599 OFFCURVE",
"246 599 CURVE SMOOTH"
);
}
);
};
components = (
{
name = g;
}
);
layerId = "258ED206-D907-4350-8EBA-CBDDA1C16BF7";
paths = (
{
closed = 1;
nodes = (
"363 599 LINE",
"363 702 LINE",
"301 702 LINE",
"370 796 LINE",
"303 796 LINE",
"234 710 LINE",
"234 599 LINE"
);
}
);
width = 666;
},
{
anchors = (
{
name = _top;
position = "{285, 550}";
}
);
background = {
anchors = (
{
name = _top;
position = "{285, 550}";
}
);
components = (
{
name = g;
transform = "{1, 0, 0, 1, 2, 0}";
}
);
paths = (
{
closed = 1;
nodes = (
"304 632 LINE SMOOTH",
"308 632 OFFCURVE",
"311 634 OFFCURVE",
"311 640 CURVE SMOOTH",
"311 706 LINE SMOOTH",
"311 713 OFFCURVE",
"309 715 OFFCURVE",
"303 715 CURVE SMOOTH",
"295 715 LINE SMOOTH",
"290 715 OFFCURVE",
"288 718 OFFCURVE",
"291 724 CURVE SMOOTH",
"316 778 LINE SMOOTH",
"318 782 OFFCURVE",
"316 786 OFFCURVE",
"312 786 CURVE SMOOTH",
"299 786 LINE SMOOTH",
"291 786 OFFCURVE",
"288 785 OFFCURVE",
"285 780 CURVE SMOOTH",
"254 721 LINE SMOOTH",
"254 720 OFFCURVE",
"253 717 OFFCURVE",
"253 715 CURVE SMOOTH",
"253 639 LINE SMOOTH",
"253 634 OFFCURVE",
"255 632 OFFCURVE",
"259 632 CURVE SMOOTH"
);
}
);
};
components = (
{
name = g;
}
);
layerId = "91AB5BCA-6A50-42DA-B2F7-8181BF189245";
paths = (
{
closed = 1;
nodes = (
"311 632 LINE",
"311 715 LINE",
"287 715 LINE",
"320 786 LINE",
"288 786 LINE",
"253 719 LINE",
"253 632 LINE"
);
}
);
width = 594;
}
);
leftKerningGroup = g;
leftMetricsKey = g;
rightMetricsKey = g;
unicode = 0123;
},
{
glyphname = h;
lastChange = "2017-11-28 01:36:51 +0000";
layers = (
{
anchors = (
{
name = bottom;
position = "{319, 0}";
},
{
name = top;
position = "{458, 530}";
}
);
background = {
anchors = (
{
name = bottom;
position = "{314, 0}";
},
{
name = top;
position = "{453, 530}";
}
);
paths = (
{
closed = 1;
nodes = (
"217 0 LINE SMOOTH",
"241 0 OFFCURVE",
"250 8 OFFCURVE",
"250 29 CURVE SMOOTH",
"250 349 LINE",
"269 383 OFFCURVE",
"293 399 OFFCURVE",
"324 399 CURVE SMOOTH",
"356 399 OFFCURVE",
"376 381 OFFCURVE",
"376 351 CURVE SMOOTH",
"376 25 LINE SMOOTH",
"376 6 OFFCURVE",
"382 0 OFFCURVE",
"399 0 CURVE SMOOTH",
"546 0 LINE SMOOTH",
"567 0 OFFCURVE",
"576 10 OFFCURVE",
"576 30 CURVE SMOOTH",
"576 375 LINE SMOOTH",
"576 481 OFFCURVE",
"519 540 OFFCURVE",
"420 540 CURVE SMOOTH",
"367 540 OFFCURVE",
"317 523 OFFCURVE",
"260 468 CURVE SMOOTH",
"252 461 OFFCURVE",
"247 464 OFFCURVE",
"247 472 CURVE SMOOTH",
"247 721 LINE SMOOTH",
"247 734 OFFCURVE",
"241 742 OFFCURVE",
"229 742 CURVE SMOOTH",
"69 742 LINE SMOOTH",
"57 742 OFFCURVE",
"50 733 OFFCURVE",
"50 719 CURVE SMOOTH",
"50 25 LINE SMOOTH",
"50 7 OFFCURVE",
"57 0 OFFCURVE",
"76 0 CURVE SMOOTH"
);
}
);
};
layerId = "258ED206-D907-4350-8EBA-CBDDA1C16BF7";
paths = (
{
closed = 1;
nodes = (
"255 0 LINE",
"255 329 LINE",
"255 359 OFFCURVE",
"288 379 OFFCURVE",
"318 379 CURVE SMOOTH",
"348 379 OFFCURVE",
"381 361 OFFCURVE",
"381 331 CURVE SMOOTH",
"381 0 LINE",
"581 0 LINE",
"581 355 LINE SMOOTH",
"581 461 OFFCURVE",
"494 530 OFFCURVE",
"395 530 CURVE SMOOTH",
"312 530 OFFCURVE",
"285 499 OFFCURVE",
"252 465 CURVE",
"252 762 LINE",
"55 762 LINE",
"55 0 LINE"
);
}
);
width = 636;
},
{
anchors = (
{
name = bottom;
position = "{304, 0}";
},
{
name = top;
position = "{326, 530}";
}
);
background = {
anchors = (
{
name = bottom;
position = "{304, 0}";
},
{
name = top;
position = "{326, 530}";
}
);
paths = (
{
closed = 1;
nodes = (
"123 0 LINE SMOOTH",
"129 0 OFFCURVE",
"132 3 OFFCURVE",
"132 9 CURVE SMOOTH",
"132 410 LINE",
"212 471 OFFCURVE",
"259 502 OFFCURVE",
"330 502 CURVE SMOOTH",
"417 502 OFFCURVE",
"453 455 OFFCURVE",
"453 377 CURVE SMOOTH",
"453 9 LINE SMOOTH",
"453 3 OFFCURVE",
"456 0 OFFCURVE",
"462 0 CURVE SMOOTH",
"484 0 LINE SMOOTH",
"490 0 OFFCURVE",
"493 3 OFFCURVE",
"493 10 CURVE SMOOTH",
"493 393 LINE SMOOTH",
"493 480 OFFCURVE",
"438 540 OFFCURVE",
"331 540 CURVE SMOOTH",
"258 540 OFFCURVE",
"213 511 OFFCURVE",
"137 457 CURVE SMOOTH",
"131 452 OFFCURVE",
"129 453 OFFCURVE",
"129 460 CURVE SMOOTH",
"129 734 LINE SMOOTH",
"129 740 OFFCURVE",
"127 742 OFFCURVE",
"121 742 CURVE SMOOTH",
"100 742 LINE SMOOTH",
"94 742 OFFCURVE",
"92 739 OFFCURVE",
"92 733 CURVE SMOOTH",
"92 9 LINE SMOOTH",
"92 3 OFFCURVE",
"95 0 OFFCURVE",
"101 0 CURVE SMOOTH"
);
}
);
};
layerId = "91AB5BCA-6A50-42DA-B2F7-8181BF189245";
paths = (
{
closed = 1;
nodes = (
"132 0 LINE",
"132 410 LINE",
"212 471 OFFCURVE",
"259 502 OFFCURVE",
"330 502 CURVE SMOOTH",
"417 502 OFFCURVE",
"453 455 OFFCURVE",
"453 377 CURVE SMOOTH",
"453 0 LINE",
"493 0 LINE",
"493 393 LINE SMOOTH",
"493 480 OFFCURVE",
"438 540 OFFCURVE",
"331 540 CURVE SMOOTH",
"255 540 OFFCURVE",
"208 509 OFFCURVE",
"129 451 CURVE",
"129 762 LINE",
"92 762 LINE",
"92 0 LINE"
);
}
);
width = 585;
}
);
leftMetricsKey = n;
rightMetricsKey = n;
unicode = 0068;
},
{
glyphname = hbar;
lastChange = "2017-11-28 01:30:58 +0000";
layers = (
{
background = {
components = (
{
name = h;
transform = "{1, 0, 0, 1, 3, 0}";
}
);
paths = (
{
closed = 1;
nodes = (
"374 680 OFFCURVE",
"368 687 OFFCURVE",
"358 687 CURVE SMOOTH",
"19 687 LINE SMOOTH",
"9 687 OFFCURVE",
"3 680 OFFCURVE",
"3 667 CURVE SMOOTH",
"3 602 LINE SMOOTH",
"3 587 OFFCURVE",
"8 580 OFFCURVE",
"25 580 CURVE SMOOTH",
"345 580 LINE SMOOTH",
"365 580 OFFCURVE",
"374 587 OFFCURVE",
"374 604 CURVE SMOOTH",
"374 669 LINE SMOOTH"
);
}
);
};
components = (
{
name = h;
transform = "{1, 0, 0, 1, 13, 0}";
}
);
layerId = "258ED206-D907-4350-8EBA-CBDDA1C16BF7";
paths = (
{
closed = 1;
nodes = (
"8 687 LINE",
"8 580 LINE",
"379 580 LINE",
"379 687 LINE"
);
}
);
width = 649;
},
{
background = {
components = (
{
name = h;
}
);
paths = (
{
closed = 1;
nodes = (
"309 660 OFFCURVE",
"307 662 OFFCURVE",
"304 662 CURVE SMOOTH",
"25 662 LINE SMOOTH",
"22 662 OFFCURVE",
"20 660 OFFCURVE",
"20 655 CURVE SMOOTH",
"20 635 LINE SMOOTH",
"20 629 OFFCURVE",
"21 627 OFFCURVE",
"27 627 CURVE SMOOTH",
"299 627 LINE SMOOTH",
"306 627 OFFCURVE",
"309 629 OFFCURVE",
"309 635 CURVE SMOOTH",
"309 656 LINE SMOOTH"
);
}
);
};
components = (
{
name = h;
transform = "{1, 0, 0, 1, -2, 0}";
}
);
layerId = "91AB5BCA-6A50-42DA-B2F7-8181BF189245";
paths = (
{
closed = 1;
nodes = (
"20 662 LINE",
"20 627 LINE",
"309 627 LINE",
"309 662 LINE"
);
}
);
width = 583;
}
);
rightMetricsKey = h;
unicode = 0127;
},
{
glyphname = i;
lastChange = "2017-11-28 01:47:03 +0000";
layers = (
{
background = {
paths = (
{
closed = 1;
nodes = (
"250 522 OFFCURVE",
"243 530 OFFCURVE",
"232 530 CURVE SMOOTH",
"69 530 LINE SMOOTH",
"57 530 OFFCURVE",
"50 522 OFFCURVE",
"50 507 CURVE SMOOTH",
"50 25 LINE SMOOTH",
"50 8 OFFCURVE",
"56 0 OFFCURVE",
"76 0 CURVE SMOOTH",
"217 0 LINE SMOOTH",
"240 0 OFFCURVE",
"250 8 OFFCURVE",
"250 29 CURVE SMOOTH",
"250 510 LINE SMOOTH"
);
},
{
closed = 1;
nodes = (
"250 734 OFFCURVE",
"243 742 OFFCURVE",
"232 742 CURVE SMOOTH",
"69 742 LINE SMOOTH",
"57 742 OFFCURVE",
"50 734 OFFCURVE",
"50 719 CURVE SMOOTH",
"50 600 LINE SMOOTH",
"50 583 OFFCURVE",
"56 574 OFFCURVE",
"76 574 CURVE SMOOTH",
"217 574 LINE SMOOTH",
"240 574 OFFCURVE",
"250 583 OFFCURVE",
"250 603 CURVE SMOOTH",
"250 721 LINE SMOOTH"
);
}
);
};
layerId = "258ED206-D907-4350-8EBA-CBDDA1C16BF7";
paths = (
{
closed = 1;
nodes = (
"55 530 LINE",
"55 0 LINE",
"255 0 LINE",
"255 530 LINE"
);
},
{
closed = 1;
nodes = (
"55 762 LINE",
"55 594 LINE",
"255 594 LINE",
"255 762 LINE"
);
}
);
width = 310;
},
{
background = {
paths = (
{
closed = 1;
nodes = (
"137 528 OFFCURVE",
"135 530 OFFCURVE",
"128 530 CURVE SMOOTH",
"106 530 LINE SMOOTH",
"99 530 OFFCURVE",
"97 528 OFFCURVE",
"97 520 CURVE SMOOTH",
"97 10 LINE SMOOTH",
"97 2 OFFCURVE",
"99 0 OFFCURVE",
"108 0 CURVE SMOOTH",
"125 0 LINE SMOOTH",
"135 0 OFFCURVE",
"137 2 OFFCURVE",
"137 12 CURVE SMOOTH",
"137 520 LINE SMOOTH"
);
},
{
closed = 1;
nodes = (
"142 737 OFFCURVE",
"137 742 OFFCURVE",
"130 742 CURVE SMOOTH",
"104 742 LINE SMOOTH",
"97 742 OFFCURVE",
"92 737 OFFCURVE",
"92 729 CURVE SMOOTH",
"92 658 LINE SMOOTH",
"92 650 OFFCURVE",
"94 644 OFFCURVE",
"103 644 CURVE SMOOTH",
"130 644 LINE SMOOTH",
"140 644 OFFCURVE",
"142 650 OFFCURVE",
"142 660 CURVE SMOOTH",
"142 729 LINE SMOOTH"
);
}
);
};
layerId = "91AB5BCA-6A50-42DA-B2F7-8181BF189245";
paths = (
{
closed = 1;
nodes = (
"97 530 LINE",
"97 0 LINE",
"137 0 LINE",
"137 530 LINE"
);
},
{
closed = 1;
nodes = (
"92 762 LINE",
"92 664 LINE",
"142 664 LINE",
"142 762 LINE"
);
}
);
width = 238;
}
);
leftMetricsKey = n;
rightMetricsKey = u;
unicode = 0069;
},
{
glyphname = idotless;
lastChange = "2017-11-28 01:36:51 +0000";
layers = (
{
anchors = (
{
name = ogonek;
position = "{227, 9}";
},
{
name = top;
position = "{159, 530}";
}
);
background = {
anchors = (
{
name = ogonek;
position = "{222, 9}";
},
{
name = top;
position = "{154, 530}";
}
);
paths = (
{
closed = 1;
nodes = (
"250 522 OFFCURVE",
"243 530 OFFCURVE",
"232 530 CURVE SMOOTH",
"69 530 LINE SMOOTH",
"57 530 OFFCURVE",
"50 522 OFFCURVE",
"50 507 CURVE SMOOTH",
"50 25 LINE SMOOTH",
"50 8 OFFCURVE",
"56 0 OFFCURVE",
"76 0 CURVE SMOOTH",
"217 0 LINE SMOOTH",
"240 0 OFFCURVE",
"250 8 OFFCURVE",
"250 29 CURVE SMOOTH",
"250 510 LINE SMOOTH"
);
}
);
};
layerId = "258ED206-D907-4350-8EBA-CBDDA1C16BF7";
paths = (
{
closed = 1;
nodes = (
"55 530 LINE",
"55 0 LINE",
"255 0 LINE",
"255 530 LINE"
);
}
);
width = 310;
},
{
anchors = (
{
name = ogonek;
position = "{124, 13}";
},
{
name = top;
position = "{112, 530}";
}
);
background = {
anchors = (
{
name = ogonek;
position = "{124, 13}";
},
{
name = top;
position = "{112, 530}";
}
);
paths = (
{
closed = 1;
nodes = (
"132 528 OFFCURVE",
"130 530 OFFCURVE",
"123 530 CURVE SMOOTH",
"101 530 LINE SMOOTH",
"94 530 OFFCURVE",
"92 528 OFFCURVE",
"92 520 CURVE SMOOTH",
"92 10 LINE SMOOTH",
"92 2 OFFCURVE",
"94 0 OFFCURVE",
"103 0 CURVE SMOOTH",
"120 0 LINE SMOOTH",
"130 0 OFFCURVE",
"132 2 OFFCURVE",
"132 12 CURVE SMOOTH",
"132 520 LINE SMOOTH"
);
}
);
};
layerId = "91AB5BCA-6A50-42DA-B2F7-8181BF189245";
paths = (
{
closed = 1;
nodes = (
"92 530 LINE",
"92 0 LINE",
"132 0 LINE",
"132 530 LINE"
);
}
);
width = 228;
}
);
leftMetricsKey = i;
rightMetricsKey = i;
unicode = 0131;
},
{
glyphname = j;
lastChange = "2017-11-14 17:50:30 +0000";
layers = (
{
background = {
paths = (
{
closed = 1;
nodes = (
"254 510 LINE SMOOTH",
"254 522 OFFCURVE",
"248 530 OFFCURVE",
"236 530 CURVE SMOOTH",
"74 530 LINE SMOOTH",
"62 530 OFFCURVE",
"54 522 OFFCURVE",
"54 507 CURVE SMOOTH",
"54 36 LINE SMOOTH",
"54 2 OFFCURVE",
"43 -6 OFFCURVE",
"30 -10 CURVE SMOOTH",
"-5 -16 LINE SMOOTH",
"-18 -19 OFFCURVE",
"-25 -32 OFFCURVE",
"-25 -43 CURVE SMOOTH",
"-24 -145 LINE SMOOTH",
"-24 -166 OFFCURVE",
"-12 -170 OFFCURVE",
"44 -170 CURVE SMOOTH",
"186 -170 OFFCURVE",
"254 -103 OFFCURVE",
"254 29 CURVE SMOOTH"
);
},
{
closed = 1;
nodes = (
"254 734 OFFCURVE",
"248 742 OFFCURVE",
"236 742 CURVE SMOOTH",
"74 742 LINE SMOOTH",
"62 742 OFFCURVE",
"54 734 OFFCURVE",
"54 719 CURVE SMOOTH",
"54 600 LINE SMOOTH",
"54 583 OFFCURVE",
"61 574 OFFCURVE",
"81 574 CURVE SMOOTH",
"222 574 LINE SMOOTH",
"222 574 OFFCURVE",
"254 583 OFFCURVE",
"254 603 CURVE SMOOTH",
"254 721 LINE SMOOTH"
);
}
);
};
layerId = "258ED206-D907-4350-8EBA-CBDDA1C16BF7";
paths = (
{
closed = 1;
nodes = (
"259 530 LINE",
"59 530 LINE",
"59 29 LINE",
"59 7 OFFCURVE",
"48 -6 OFFCURVE",
"10 -14 CURVE",
"-20 -19 LINE",
"-19 -153 LINE",
"-19 -153 OFFCURVE",
"-4 -170 OFFCURVE",
"49 -170 CURVE",
"191 -170 OFFCURVE",
"259 -103 OFFCURVE",
"259 29 CURVE SMOOTH"
);
},
{
closed = 1;
nodes = (
"59 762 LINE",
"59 594 LINE",
"259 594 LINE",
"259 762 LINE"
);
}
);
width = 314;
},
{
background = {
paths = (
{
closed = 1;
nodes = (
"153 520 LINE SMOOTH",
"153 527 OFFCURVE",
"151 530 OFFCURVE",
"145 530 CURVE SMOOTH",
"123 530 LINE SMOOTH",
"116 530 OFFCURVE",
"113 527 OFFCURVE",
"113 520 CURVE SMOOTH",
"113 -46 LINE SMOOTH",
"113 -110 OFFCURVE",
"92 -132 OFFCURVE",
"39 -133 CURVE SMOOTH",
"-19 -134 LINE SMOOTH",
"-23 -134 OFFCURVE",
"-25 -136 OFFCURVE",
"-25 -140 CURVE SMOOTH",
"-25 -161 LINE SMOOTH",
"-25 -169 OFFCURVE",
"-19 -170 OFFCURVE",
"40 -170 CURVE SMOOTH",
"131 -170 OFFCURVE",
"153 -133 OFFCURVE",
"153 -51 CURVE SMOOTH"
);
},
{
closed = 1;
nodes = (
"158 737 OFFCURVE",
"153 742 OFFCURVE",
"146 742 CURVE SMOOTH",
"120 742 LINE SMOOTH",
"113 742 OFFCURVE",
"108 737 OFFCURVE",
"108 729 CURVE SMOOTH",
"108 658 LINE SMOOTH",
"108 650 OFFCURVE",
"110 644 OFFCURVE",
"119 644 CURVE SMOOTH",
"146 644 LINE SMOOTH",
"156 644 OFFCURVE",
"158 650 OFFCURVE",
"158 660 CURVE SMOOTH",
"158 729 LINE SMOOTH"
);
}
);
};
layerId = "91AB5BCA-6A50-42DA-B2F7-8181BF189245";
paths = (
{
closed = 1;
nodes = (
"153 530 LINE",
"113 530 LINE",
"113 -46 LINE SMOOTH",
"113 -110 OFFCURVE",
"92 -132 OFFCURVE",
"39 -133 CURVE SMOOTH",
"-25 -134 LINE",
"-25 -161 LINE SMOOTH",
"-25 -161 OFFCURVE",
"-19 -170 OFFCURVE",
"40 -170 CURVE SMOOTH",
"131 -170 OFFCURVE",
"153 -133 OFFCURVE",
"153 -51 CURVE SMOOTH"
);
},
{
closed = 1;
nodes = (
"108 762 LINE",
"108 664 LINE",
"158 664 LINE",
"158 762 LINE"
);
}
);
width = 263;
}
);
unicode = 006A;
},
{
glyphname = jdotless;
lastChange = "2017-11-14 17:50:30 +0000";
layers = (
{
anchors = (
{
name = top;
position = "{147, 530}";
}
);
background = {
anchors = (
{
name = top;
position = "{142, 530}";
}
);
paths = (
{
closed = 1;
nodes = (
"242 510 LINE SMOOTH",
"242 522 OFFCURVE",
"236 530 OFFCURVE",
"224 530 CURVE SMOOTH",
"62 530 LINE SMOOTH",
"50 530 OFFCURVE",
"42 522 OFFCURVE",
"42 507 CURVE SMOOTH",
"42 36 LINE SMOOTH",
"42 2 OFFCURVE",
"31 -6 OFFCURVE",
"18 -10 CURVE SMOOTH",
"-17 -16 LINE SMOOTH",
"-30 -19 OFFCURVE",
"-37 -32 OFFCURVE",
"-37 -43 CURVE SMOOTH",
"-36 -145 LINE SMOOTH",
"-36 -166 OFFCURVE",
"-24 -170 OFFCURVE",
"32 -170 CURVE SMOOTH",
"174 -170 OFFCURVE",
"242 -103 OFFCURVE",
"242 29 CURVE SMOOTH"
);
}
);
};
layerId = "258ED206-D907-4350-8EBA-CBDDA1C16BF7";
paths = (
{
closed = 1;
nodes = (
"247 530 LINE",
"47 530 LINE",
"47 29 LINE",
"47 7 OFFCURVE",
"36 -6 OFFCURVE",
"-2 -14 CURVE",
"-32 -19 LINE",
"-31 -153 LINE",
"-31 -153 OFFCURVE",
"-16 -170 OFFCURVE",
"37 -170 CURVE",
"179 -170 OFFCURVE",
"247 -103 OFFCURVE",
"247 29 CURVE SMOOTH"
);
}
);
width = 303;
},
{
anchors = (
{
name = top;
position = "{111, 530}";
}
);
background = {
anchors = (
{
name = top;
position = "{111, 530}";
}
);
paths = (
{
closed = 1;
nodes = (
"131 520 LINE SMOOTH",
"131 527 OFFCURVE",
"129 530 OFFCURVE",
"123 530 CURVE SMOOTH",
"101 530 LINE SMOOTH",
"94 530 OFFCURVE",
"91 527 OFFCURVE",
"91 520 CURVE SMOOTH",
"91 -46 LINE SMOOTH",
"91 -110 OFFCURVE",
"70 -132 OFFCURVE",
"17 -133 CURVE SMOOTH",
"-41 -134 LINE SMOOTH",
"-45 -134 OFFCURVE",
"-47 -136 OFFCURVE",
"-47 -140 CURVE SMOOTH",
"-47 -161 LINE SMOOTH",
"-47 -169 OFFCURVE",
"-41 -170 OFFCURVE",
"18 -170 CURVE SMOOTH",
"109 -170 OFFCURVE",
"131 -133 OFFCURVE",
"131 -51 CURVE SMOOTH"
);
}
);
};
layerId = "91AB5BCA-6A50-42DA-B2F7-8181BF189245";
paths = (
{
closed = 1;
nodes = (
"131 530 LINE",
"91 530 LINE",
"91 -46 LINE SMOOTH",
"91 -110 OFFCURVE",
"70 -132 OFFCURVE",
"17 -133 CURVE SMOOTH",
"-47 -134 LINE",
"-47 -161 LINE SMOOTH",
"-47 -169 OFFCURVE",
"-41 -170 OFFCURVE",
"18 -170 CURVE SMOOTH",
"109 -170 OFFCURVE",
"131 -133 OFFCURVE",
"131 -51 CURVE SMOOTH"
);
}
);
width = 222;
}
);
unicode = 0237;
},
{
glyphname = k;
lastChange = "2017-11-28 01:36:51 +0000";
layers = (
{
anchors = (
{
name = bottom;
position = "{315, 0}";
}
);
background = {
anchors = (
{
name = bottom;
position = "{310, 0}";
}
);
paths = (
{
closed = 1;
nodes = (
"463 337 LINE SMOOTH",
"454 355 OFFCURVE",
"456 361 OFFCURVE",
"465 372 CURVE SMOOTH",
"594 501 LINE SMOOTH",
"607 515 OFFCURVE",
"603 530 OFFCURVE",
"580 530 CURVE SMOOTH",
"443 530 LINE SMOOTH",
"433 530 OFFCURVE",
"422 523 OFFCURVE",
"412 513 CURVE SMOOTH",
"262 344 LINE SMOOTH",
"254 335 OFFCURVE",
"250 340 OFFCURVE",
"250 346 CURVE SMOOTH",
"250 721 LINE SMOOTH",
"250 734 OFFCURVE",
"244 742 OFFCURVE",
"232 742 CURVE SMOOTH",
"69 742 LINE SMOOTH",
"58 742 OFFCURVE",
"50 734 OFFCURVE",
"50 719 CURVE SMOOTH",
"50 25 LINE SMOOTH",
"50 8 OFFCURVE",
"56 0 OFFCURVE",
"77 0 CURVE SMOOTH",
"218 0 LINE SMOOTH",
"241 0 OFFCURVE",
"250 8 OFFCURVE",
"250 29 CURVE SMOOTH",
"250 130 LINE SMOOTH",
"250 146 OFFCURVE",
"253 153 OFFCURVE",
"259 158 CURVE SMOOTH",
"307 203 LINE SMOOTH",
"317 213 OFFCURVE",
"322 211 OFFCURVE",
"328 198 CURVE SMOOTH",
"400 26 LINE SMOOTH",
"407 10 OFFCURVE",
"416 0 OFFCURVE",
"433 0 CURVE SMOOTH",
"604 0 LINE SMOOTH",
"622 0 OFFCURVE",
"629 17 OFFCURVE",
"623 28 CURVE SMOOTH"
);
}
);
};
guideLines = (
{
angle = 228.4912;
position = "{268, 150}";
},
{
angle = 122;
position = "{429, 0}";
}
);
layerId = "258ED206-D907-4350-8EBA-CBDDA1C16BF7";
paths = (
{
closed = 1;
nodes = (
"415 311 LINE",
"609 530 LINE",
"412 530 LINE",
"255 341 LINE",
"255 762 LINE",
"55 762 LINE",
"55 0 LINE",
"255 0 LINE",
"255 150 LINE",
"294 195 LINE",
"416 0 LINE",
"610 0 LINE"
);
}
);
width = 625;
},
{
anchors = (
{
name = bottom;
position = "{274, 0}";
}
);
background = {
anchors = (
{
name = bottom;
position = "{274, 0}";
}
);
paths = (
{
closed = 1;
nodes = (
"307 331 LINE SMOOTH",
"304 336 OFFCURVE",
"305 339 OFFCURVE",
"308 342 CURVE SMOOTH",
"477 515 LINE SMOOTH",
"486 524 OFFCURVE",
"485 530 OFFCURVE",
"475 530 CURVE SMOOTH",
"443 530 LINE SMOOTH",
"436 530 OFFCURVE",
"433 528 OFFCURVE",
"426 520 CURVE",
"142 229 LINE SMOOTH",
"134 221 OFFCURVE",
"132 222 OFFCURVE",
"132 234 CURVE SMOOTH",
"132 732 LINE SMOOTH",
"132 740 OFFCURVE",
"130 742 OFFCURVE",
"123 742 CURVE SMOOTH",
"101 742 LINE SMOOTH",
"94 742 OFFCURVE",
"92 740 OFFCURVE",
"92 732 CURVE SMOOTH",
"92 10 LINE SMOOTH",
"92 2 OFFCURVE",
"94 0 OFFCURVE",
"103 0 CURVE SMOOTH",
"120 0 LINE SMOOTH",
"130 0 OFFCURVE",
"132 2 OFFCURVE",
"132 12 CURVE SMOOTH",
"132 152 LINE SMOOTH",
"132 159 OFFCURVE",
"134 164 OFFCURVE",
"139 169 CURVE SMOOTH",
"267 299 LINE SMOOTH",
"272 304 OFFCURVE",
"273 302 OFFCURVE",
"275 299 CURVE SMOOTH",
"457 7 LINE SMOOTH",
"460 2 OFFCURVE",
"463 0 OFFCURVE",
"469 0 CURVE SMOOTH",
"500 0 LINE SMOOTH",
"509 0 OFFCURVE",
"510 4 OFFCURVE",
"505 12 CURVE SMOOTH"
);
}
);
};
guideLines = (
{
angle = 121.8697;
position = "{361, 152}";
}
);
layerId = "91AB5BCA-6A50-42DA-B2F7-8181BF189245";
paths = (
{
closed = 1;
nodes = (
"303 337 LINE",
"492 530 LINE",
"436 530 LINE",
"132 219 LINE",
"132 762 LINE",
"92 762 LINE",
"92 0 LINE",
"132 0 LINE",
"132 162 LINE",
"272 304 LINE",
"461 0 LINE",
"512 0 LINE"
);
}
);
width = 552;
}
);
leftMetricsKey = n;
rightKerningGroup = k;
unicode = 006B;
},
{
glyphname = kgreenlandic;
lastChange = "2017-11-28 01:36:51 +0000";
layers = (
{
background = {
paths = (
{
closed = 1;
nodes = (
"463 337 LINE SMOOTH",
"454 355 OFFCURVE",
"456 361 OFFCURVE",
"465 372 CURVE SMOOTH",
"594 501 LINE SMOOTH",
"607 515 OFFCURVE",
"603 530 OFFCURVE",
"580 530 CURVE SMOOTH",
"443 530 LINE SMOOTH",
"433 530 OFFCURVE",
"422 523 OFFCURVE",
"412 513 CURVE SMOOTH",
"262 344 LINE SMOOTH",
"254 335 OFFCURVE",
"250 340 OFFCURVE",
"250 346 CURVE SMOOTH",
"250 509 LINE SMOOTH",
"250 522 OFFCURVE",
"244 530 OFFCURVE",
"232 530 CURVE SMOOTH",
"69 530 LINE SMOOTH",
"58 530 OFFCURVE",
"50 522 OFFCURVE",
"50 507 CURVE SMOOTH",
"50 25 LINE SMOOTH",
"50 8 OFFCURVE",
"56 0 OFFCURVE",
"77 0 CURVE SMOOTH",
"218 0 LINE SMOOTH",
"241 0 OFFCURVE",
"250 8 OFFCURVE",
"250 29 CURVE SMOOTH",
"250 130 LINE SMOOTH",
"250 146 OFFCURVE",
"253 153 OFFCURVE",
"259 158 CURVE SMOOTH",
"307 203 LINE SMOOTH",
"317 213 OFFCURVE",
"322 211 OFFCURVE",
"328 198 CURVE SMOOTH",
"400 26 LINE SMOOTH",
"407 10 OFFCURVE",
"416 0 OFFCURVE",
"433 0 CURVE SMOOTH",
"604 0 LINE SMOOTH",
"622 0 OFFCURVE",
"629 17 OFFCURVE",
"623 28 CURVE SMOOTH"
);
}
);
};
layerId = "258ED206-D907-4350-8EBA-CBDDA1C16BF7";
paths = (
{
closed = 1;
nodes = (
"457 359 LINE",
"628 530 LINE",
"432 530 LINE",
"255 330 LINE",
"255 530 LINE",
"55 530 LINE",
"55 0 LINE",
"255 0 LINE",
"255 150 LINE",
"326 216 LINE",
"416 0 LINE",
"642 0 LINE"
);
}
);
width = 657;
},
{
background = {
paths = (
{
closed = 1;
nodes = (
"307 331 LINE SMOOTH",
"304 336 OFFCURVE",
"305 339 OFFCURVE",
"308 342 CURVE SMOOTH",
"477 515 LINE SMOOTH",
"486 524 OFFCURVE",
"485 530 OFFCURVE",
"475 530 CURVE SMOOTH",
"443 530 LINE SMOOTH",
"436 530 OFFCURVE",
"433 528 OFFCURVE",
"426 520 CURVE",
"142 229 LINE SMOOTH",
"134 221 OFFCURVE",
"132 222 OFFCURVE",
"132 234 CURVE SMOOTH",
"132 520 LINE SMOOTH",
"132 528 OFFCURVE",
"130 530 OFFCURVE",
"123 530 CURVE SMOOTH",
"101 530 LINE SMOOTH",
"94 530 OFFCURVE",
"92 528 OFFCURVE",
"92 520 CURVE SMOOTH",
"92 10 LINE SMOOTH",
"92 2 OFFCURVE",
"94 0 OFFCURVE",
"103 0 CURVE SMOOTH",
"120 0 LINE SMOOTH",
"130 0 OFFCURVE",
"132 2 OFFCURVE",
"132 12 CURVE SMOOTH",
"132 152 LINE SMOOTH",
"132 159 OFFCURVE",
"134 164 OFFCURVE",
"139 169 CURVE SMOOTH",
"267 299 LINE SMOOTH",
"272 304 OFFCURVE",
"273 302 OFFCURVE",
"275 299 CURVE SMOOTH",
"457 7 LINE SMOOTH",
"460 2 OFFCURVE",
"463 0 OFFCURVE",
"469 0 CURVE SMOOTH",
"500 0 LINE SMOOTH",
"509 0 OFFCURVE",
"510 4 OFFCURVE",
"505 12 CURVE SMOOTH"
);
}
);
};
layerId = "91AB5BCA-6A50-42DA-B2F7-8181BF189245";
paths = (
{
closed = 1;
nodes = (
"303 337 LINE",
"492 530 LINE",
"436 530 LINE",
"132 219 LINE",
"132 530 LINE",
"92 530 LINE",
"92 0 LINE",
"132 0 LINE",
"132 162 LINE",
"272 304 LINE",
"461 0 LINE",
"512 0 LINE"
);
}
);
width = 552;
}
);
leftMetricsKey = k;
rightKerningGroup = k;
rightMetricsKey = k;
unicode = 0138;
},
{
glyphname = l;
lastChange = "2017-11-28 01:36:51 +0000";
layers = (
{
anchors = (
{
name = bottom;
position = "{141, 0}";
},
{
name = top;
position = "{155, 785}";
},
{
name = topright;
position = "{404, 785}";
}
);
background = {
anchors = (
{
name = bottom;
position = "{94, 0}";
},
{
name = top;
position = "{150, 742}";
},
{
name = topright;
position = "{337, 530}";
}
);
paths = (
{
closed = 1;
nodes = (
"327 129 LINE",
"327 129 OFFCURVE",
"301 131 OFFCURVE",
"292 133 CURVE SMOOTH",
"253 142 OFFCURVE",
"246 163 OFFCURVE",
"246 190 CURVE SMOOTH",
"246 742 LINE",
"49 742 LINE",
"46 173 LINE",
"46 95 OFFCURVE",
"57 -1 OFFCURVE",
"252 2 CURVE SMOOTH",
"278 3 OFFCURVE",
"294 5 OFFCURVE",
"327 9 CURVE"
);
}
);
};
layerId = "258ED206-D907-4350-8EBA-CBDDA1C16BF7";
paths = (
{
closed = 1;
nodes = (
"283 -11 OFFCURVE",
"309 -4 OFFCURVE",
"332 5 CURVE",
"332 126 LINE",
"311 128 LINE",
"257 135 OFFCURVE",
"251 161 OFFCURVE",
"251 187 CURVE SMOOTH",
"251 762 LINE",
"55 762 LINE",
"55 160 LINE",
"55 82 OFFCURVE",
"62 -11 OFFCURVE",
"257 -11 CURVE SMOOTH"
);
}
);
width = 352;
},
{
anchors = (
{
name = bottom;
position = "{109, 0}";
},
{
name = top;
position = "{109, 782}";
},
{
name = topright;
position = "{254, 742}";
}
);
background = {
anchors = (
{
name = bottom;
position = "{109, 0}";
},
{
name = top;
position = "{109, 742}";
},
{
name = topright;
position = "{254, 742}";
}
);
paths = (
{
closed = 1;
nodes = (
"239 36 LINE",
"229 36 OFFCURVE",
"216 36 OFFCURVE",
"200 36 CURVE SMOOTH",
"136 36 OFFCURVE",
"129 87 OFFCURVE",
"129 130 CURVE",
"129 742 LINE",
"89 742 LINE",
"89 130 LINE",
"89 57 OFFCURVE",
"117 2 OFFCURVE",
"188 2 CURVE SMOOTH",
"212 2 OFFCURVE",
"226 3 OFFCURVE",
"239 6 CURVE"
);
}
);
};
layerId = "91AB5BCA-6A50-42DA-B2F7-8181BF189245";
paths = (
{
closed = 1;
nodes = (
"198 1 OFFCURVE",
"212 2 OFFCURVE",
"225 5 CURVE",
"225 35 LINE",
"192 35 LINE",
"163 35 OFFCURVE",
"132 60 OFFCURVE",
"132 129 CURVE",
"132 762 LINE",
"92 762 LINE",
"92 129 LINE",
"92 56 OFFCURVE",
"120 1 OFFCURVE",
"191 1 CURVE SMOOTH"
);
}
);
width = 271;
}
);
leftMetricsKey = n;
unicode = 006C;
},
{
glyphname = lslash;
lastChange = "2017-11-14 17:50:30 +0000";
layers = (
{
background = {
components = (
{
name = l;
transform = "{1, 0, 0, 1, 40, 0}";
}
);
paths = (
{
closed = 1;
nodes = (
"344 507 OFFCURVE",
"337 511 OFFCURVE",
"320 500 CURVE SMOOTH",
"39 324 LINE SMOOTH",
"27 316 OFFCURVE",
"20 305 OFFCURVE",
"20 290 CURVE SMOOTH",
"20 170 LINE SMOOTH",
"20 153 OFFCURVE",
"26 150 OFFCURVE",
"46 163 CURVE SMOOTH",
"324 345 LINE SMOOTH",
"337 354 OFFCURVE",
"344 366 OFFCURVE",
"344 378 CURVE SMOOTH",
"344 491 LINE SMOOTH"
);
}
);
};
components = (
{
name = l;
transform = "{1, 0, 0, 1, 50, 0}";
}
);
layerId = "258ED206-D907-4350-8EBA-CBDDA1C16BF7";
paths = (
{
closed = 1;
nodes = (
"25 312 LINE",
"25 146 LINE",
"349 358 LINE",
"349 515 LINE"
);
}
);
width = 384;
},
{
background = {
components = (
{
name = l;
transform = "{1, 0, 0, 1, 10, 0}";
}
);
paths = (
{
closed = 1;
nodes = (
"240 437 OFFCURVE",
"238 439 OFFCURVE",
"233 435 CURVE SMOOTH",
"8 225 LINE SMOOTH",
"5 222 OFFCURVE",
"3 219 OFFCURVE",
"3 215 CURVE SMOOTH",
"3 186 LINE SMOOTH",
"3 181 OFFCURVE",
"5 177 OFFCURVE",
"10 181 CURVE SMOOTH",
"234 392 LINE SMOOTH",
"238 396 OFFCURVE",
"240 399 OFFCURVE",
"240 403 CURVE SMOOTH",
"240 433 LINE SMOOTH"
);
}
);
};
components = (
{
name = l;
transform = "{1, 0, 0, 1, 8, 0}";
}
);
layerId = "91AB5BCA-6A50-42DA-B2F7-8181BF189245";
paths = (
{
closed = 1;
nodes = (
"3 220 LINE",
"3 174 LINE",
"240 398 LINE",
"240 442 LINE"
);
}
);
width = 226;
}
);
unicode = 0142;
},
{
glyphname = m;
lastChange = "2017-11-28 01:36:51 +0000";
layers = (
{
background = {
guideLines = (
{
angle = 90;
position = "{333, 331}";
showMeasurement = 1;
}
);
paths = (
{
closed = 1;
nodes = (
"217 0 LINE SMOOTH",
"241 0 OFFCURVE",
"250 8 OFFCURVE",
"250 29 CURVE SMOOTH",
"250 349 LINE",
"269 383 OFFCURVE",
"294 399 OFFCURVE",
"324 399 CURVE SMOOTH",
"356 399 OFFCURVE",
"376 381 OFFCURVE",
"376 351 CURVE SMOOTH",
"376 25 LINE SMOOTH",
"376 6 OFFCURVE",
"383 0 OFFCURVE",
"399 0 CURVE SMOOTH",
"545 0 LINE SMOOTH",
"566 0 OFFCURVE",
"575 10 OFFCURVE",
"575 30 CURVE SMOOTH",
"575 333 LINE SMOOTH",
"575 342 OFFCURVE",
"576 350 OFFCURVE",
"583 360 CURVE SMOOTH",
"598 381 OFFCURVE",
"624 399 OFFCURVE",
"649 399 CURVE SMOOTH",
"680 399 OFFCURVE",
"701 381 OFFCURVE",
"701 351 CURVE SMOOTH",
"701 25 LINE SMOOTH",
"701 6 OFFCURVE",
"707 0 OFFCURVE",
"724 0 CURVE SMOOTH",
"870 0 LINE SMOOTH",
"891 0 OFFCURVE",
"901 10 OFFCURVE",
"901 30 CURVE SMOOTH",
"901 373 LINE SMOOTH",
"901 480 OFFCURVE",
"837 540 OFFCURVE",
"747 540 CURVE SMOOTH",
"687 540 OFFCURVE",
"611 497 OFFCURVE",
"574 446 CURVE SMOOTH",
"569 440 OFFCURVE",
"564 440 OFFCURVE",
"562 445 CURVE SMOOTH",
"539 507 OFFCURVE",
"487 541 OFFCURVE",
"420 541 CURVE SMOOTH",
"359 541 OFFCURVE",
"303 507 OFFCURVE",
"260 461 CURVE SMOOTH",
"252 453 OFFCURVE",
"247 457 OFFCURVE",
"247 465 CURVE SMOOTH",
"247 510 LINE SMOOTH",
"247 522 OFFCURVE",
"241 530 OFFCURVE",
"229 530 CURVE SMOOTH",
"69 530 LINE SMOOTH",
"58 530 OFFCURVE",
"50 521 OFFCURVE",
"50 507 CURVE SMOOTH",
"50 25 LINE SMOOTH",
"50 7 OFFCURVE",
"57 0 OFFCURVE",
"76 0 CURVE SMOOTH"
);
}
);
};
guideLines = (
{
angle = 90;
position = "{351, 331}";
showMeasurement = 1;
}
);
layerId = "258ED206-D907-4350-8EBA-CBDDA1C16BF7";
paths = (
{
closed = 1;
nodes = (
"255 0 LINE",
"255 350 LINE",
"255 380 OFFCURVE",
"288 399 OFFCURVE",
"318 399 CURVE SMOOTH",
"348 399 OFFCURVE",
"381 380 OFFCURVE",
"381 350 CURVE SMOOTH",
"381 0 LINE",
"580 0 LINE",
"580 318 LINE SMOOTH",
"580 327 OFFCURVE",
"580 336 OFFCURVE",
"580 350 CURVE SMOOTH",
"580 380 OFFCURVE",
"614 399 OFFCURVE",
"644 399 CURVE SMOOTH",
"674 399 OFFCURVE",
"706 380 OFFCURVE",
"706 350 CURVE SMOOTH",
"706 0 LINE",
"906 0 LINE",
"906 373 LINE SMOOTH",
"906 479 OFFCURVE",
"814 540 OFFCURVE",
"732 540 CURVE SMOOTH",
"675 540 OFFCURVE",
"607 511 OFFCURVE",
"571 467 CURVE",
"536 522 OFFCURVE",
"476 541 OFFCURVE",
"425 541 CURVE SMOOTH",
"342 541 OFFCURVE",
"285 491 OFFCURVE",
"252 467 CURVE",
"252 530 LINE",
"55 530 LINE",
"55 0 LINE"
);
}
);
width = 961;
},
{
background = {
guideLines = (
{
position = "{272, 454}";
}
);
paths = (
{
closed = 1;
nodes = (
"123 0 LINE SMOOTH",
"129 0 OFFCURVE",
"132 3 OFFCURVE",
"132 9 CURVE SMOOTH",
"132 410 LINE",
"208 471 OFFCURVE",
"253 502 OFFCURVE",
"320 502 CURVE SMOOTH",
"400 502 OFFCURVE",
"433 455 OFFCURVE",
"433 377 CURVE SMOOTH",
"433 9 LINE SMOOTH",
"433 3 OFFCURVE",
"437 0 OFFCURVE",
"442 0 CURVE SMOOTH",
"464 0 LINE SMOOTH",
"469 0 OFFCURVE",
"473 3 OFFCURVE",
"473 10 CURVE SMOOTH",
"473 393 LINE SMOOTH",
"473 407 OFFCURVE",
"478 413 OFFCURVE",
"490 423 CURVE SMOOTH",
"529 455 OFFCURVE",
"588 502 OFFCURVE",
"661 502 CURVE SMOOTH",
"741 502 OFFCURVE",
"774 455 OFFCURVE",
"774 377 CURVE SMOOTH",
"774 9 LINE SMOOTH",
"774 3 OFFCURVE",
"777 0 OFFCURVE",
"783 0 CURVE SMOOTH",
"805 0 LINE SMOOTH",
"811 0 OFFCURVE",
"814 3 OFFCURVE",
"814 10 CURVE SMOOTH",
"814 393 LINE SMOOTH",
"814 480 OFFCURVE",
"762 540 OFFCURVE",
"662 540 CURVE SMOOTH",
"593 540 OFFCURVE",
"550 511 OFFCURVE",
"478 457 CURVE SMOOTH",
"472 452 OFFCURVE",
"465 448 OFFCURVE",
"463 454 CURVE SMOOTH",
"450 494 OFFCURVE",
"405 540 OFFCURVE",
"321 540 CURVE SMOOTH",
"252 540 OFFCURVE",
"209 511 OFFCURVE",
"137 457 CURVE SMOOTH",
"131 452 OFFCURVE",
"129 453 OFFCURVE",
"129 460 CURVE SMOOTH",
"129 522 LINE SMOOTH",
"129 528 OFFCURVE",
"127 530 OFFCURVE",
"121 530 CURVE SMOOTH",
"100 530 LINE SMOOTH",
"94 530 OFFCURVE",
"92 527 OFFCURVE",
"92 521 CURVE SMOOTH",
"92 9 LINE SMOOTH",
"92 3 OFFCURVE",
"95 0 OFFCURVE",
"101 0 CURVE SMOOTH"
);
}
);
};
guideLines = (
{
position = "{374, 454}";
}
);
layerId = "91AB5BCA-6A50-42DA-B2F7-8181BF189245";
paths = (
{
closed = 1;
nodes = (
"132 0 LINE",
"132 410 LINE",
"208 471 OFFCURVE",
"253 502 OFFCURVE",
"320 502 CURVE SMOOTH",
"400 502 OFFCURVE",
"433 455 OFFCURVE",
"433 377 CURVE SMOOTH",
"433 0 LINE",
"473 0 LINE",
"473 393 LINE SMOOTH",
"473 407 OFFCURVE",
"478 413 OFFCURVE",
"490 423 CURVE SMOOTH",
"529 455 OFFCURVE",
"588 502 OFFCURVE",
"661 502 CURVE SMOOTH",
"741 502 OFFCURVE",
"774 455 OFFCURVE",
"774 377 CURVE SMOOTH",
"774 0 LINE",
"814 0 LINE",
"814 393 LINE SMOOTH",
"814 480 OFFCURVE",
"762 540 OFFCURVE",
"662 540 CURVE SMOOTH",
"600 540 OFFCURVE",
"565 522 OFFCURVE",
"465 448 CURVE",
"447 504 OFFCURVE",
"396 540 OFFCURVE",
"321 540 CURVE SMOOTH",
"249 540 OFFCURVE",
"204 509 OFFCURVE",
"129 451 CURVE",
"129 530 LINE",
"92 530 LINE",
"92 0 LINE"
);
}
);
width = 906;
}
);
leftKerningGroup = n;
leftMetricsKey = n;
rightMetricsKey = n;
unicode = 006D;
},
